<svg width="87px" height="50px" viewBox="0 0 87 50" version="1.1" xmlns="http://www.w3.org/2000/svg" xmlns:xlink="http://www.w3.org/1999/xlink">
    <g id="Page-1" stroke="none" stroke-width="1" fill="none" fill-rule="evenodd">
        <g id="toppicks3" transform="translate(-157.000000, -195.000000)" fill="#FFFFFF">
            <g id="Group" transform="translate(32.000000, 119.000000)">
                <path d="M170.128575,106.14879 C170.096378,106.266491 170.065501,106.384985 170.031457,106.501895 L169.336331,106.114746 C169.444532,105.509084 169.565929,104.592805 169.573054,103.50578 C169.578332,102.58 169.499689,101.654221 169.337123,100.754304 C169.282495,100.452661 169.217046,100.155767 169.143944,99.8630966 C168.821188,98.8074759 168.383106,97.819415 167.832336,96.9184427 C167.978539,96.5819637 168.174357,96.0615427 168.335603,95.3933348 C168.516378,94.6406773 168.693458,93.5048295 168.605578,92.131467 C168.778436,92.4700573 168.941265,92.8139257 169.095386,93.1617528 C169.117554,92.8777908 169.131541,92.5814253 169.131013,92.2700172 C169.770191,93.7457749 170.239679,95.2967455 170.528391,96.8912605 C170.73714,98.041887 170.846397,99.2091396 170.860648,100.37692 C170.985211,102.355417 170.832937,104.34922 170.400397,106.278631 L170.128575,106.14879 Z M163.616715,117.588023 C163.661051,117.381913 163.699317,117.152316 163.728083,116.904509 C163.261762,117.32834 162.77776,117.73449 162.271854,118.117681 C162.482714,117.372676 162.641321,116.327612 162.478228,115.049519 C162.972258,114.723068 163.708554,114.193147 164.537216,113.455532 C165.657757,112.456915 167.228521,110.813313 168.413191,108.616303 L168.630913,108.737435 C168.810896,108.410193 168.984546,108.071339 169.147111,107.718234 L169.908742,108.081367 C168.724071,111.780262 166.553979,115.056381 163.616715,117.588023 Z M161.828229,113.220392 C161.50996,113.440225 161.270598,113.587748 161.161605,113.652933 C160.984789,113.651877 160.8085,113.648974 160.635378,113.64396 C158.001341,113.567428 156.342433,113.056507 155.414542,112.641648 C154.826298,112.377479 154.444427,112.122283 154.218788,111.943619 C154.198731,111.725106 154.155451,111.432435 154.083668,111.032091 C153.931659,110.199206 153.652184,108.908974 153.275591,107.301791 C152.994796,106.098648 152.6599,104.714729 152.279877,103.187246 L156.734596,98.4696773 L158.834489,95.9446327 L158.86088,95.9435771 C160.465687,95.8889487 163.78535,96.8701481 166.162608,97.7339097 C166.799147,98.7393884 167.268634,99.8456788 167.559986,101.023751 C167.749997,101.796994 167.870602,102.603224 167.917049,103.420538 C168.001499,104.89524 167.824946,105.997836 167.782986,106.231392 C166.724726,108.829011 164.980577,110.75631 164.279644,111.465159 C163.347795,112.409412 162.464769,113.038826 162.227254,113.202183 C162.09319,113.209836 161.960446,113.21485 161.828229,113.220392 Z M145.725264,116.278789 C145.25868,116.118599 144.749607,115.871584 144.211768,115.552522 C143.764185,115.339287 143.287836,115.054797 142.788264,114.695886 C141.641068,113.869071 139.848888,112.271653 137.809165,109.34864 C138.361782,106.878224 140.582808,102.947092 141.335993,101.658707 C143.196261,101.972491 148.461433,102.955537 150.491919,103.619523 C150.503531,103.665706 150.515407,103.713473 150.527019,103.760184 C150.678236,103.793964 150.818898,103.827744 150.946628,103.860732 C151.792972,106.520104 152.81666,109.900202 153.218587,111.523746 C153.273216,111.746746 153.316496,111.935966 153.346054,112.086656 C151.55704,114.135088 146.793024,115.901141 145.725264,116.278789 Z M138.918622,91.914537 C140.630311,89.3805196 143.378619,86.3912658 145.37084,85.52249 C145.983627,85.4741954 146.627292,85.4591528 147.285471,85.4781539 C149.832156,85.5520474 152.356409,86.1215547 154.208496,87.0388891 C154.222483,87.0468062 154.261277,87.0766275 154.27368,87.089031 C155.883238,89.1181978 157.083215,93.592446 157.441334,95.0410214 L155.356747,97.2475325 L151.350403,102.064593 C149.029357,101.47846 143.535643,100.817114 141.662708,100.627366 C140.841963,99.3147016 139.831734,96.7181387 138.659203,92.9081399 C138.772947,92.7146974 138.893551,92.5178242 139.017323,92.3196314 C138.984335,92.1850397 138.95161,92.0525594 138.918622,91.914537 Z M143.573909,81.3029103 C144.328414,81.0770075 145.101128,80.89201 145.873843,80.7524042 C146.564219,80.6270492 147.26647,80.5354741 147.960805,80.4795262 C148.705545,80.4196198 149.462689,80.4003547 150.212708,80.4222588 C153.842195,80.5272931 157.381164,81.5728853 160.482313,83.4513623 C160.347985,83.4534735 160.210755,83.4595433 160.070621,83.4711552 C159.186011,83.5421457 158.146225,83.8102733 156.979236,84.2681488 C156.042109,84.6373521 155.235351,85.0471968 154.802546,85.2789055 C154.669274,85.2153044 154.537321,85.1553979 154.405633,85.0960193 C154.288195,85.1656902 154.181049,85.2306109 154.093169,85.2849754 C151.273606,84.1467524 148.816913,83.9348365 147.247733,83.958588 C147.143754,83.9601714 147.039776,83.9628105 146.936589,83.9659773 C146.40957,83.9841868 145.8939,84.0293146 145.404092,84.0992495 C145.2249,84.12564 145.048875,84.1544056 144.880768,84.186866 C144.220741,83.265573 143.467292,82.5395699 142.636518,82.0241632 C143.067211,81.8650283 143.504766,81.7212 143.946016,81.5903031 C143.823827,81.4900191 143.70032,81.392902 143.573909,81.3029103 Z M165.221786,88.6468632 C166.080797,89.7370555 166.507532,90.6557093 166.574564,90.8056075 C166.576147,90.812469 166.577995,90.8211779 166.579578,90.8283033 C166.776451,91.2246889 166.882541,91.4980946 166.911307,91.574891 C166.917113,91.6094626 166.92371,91.6574933 166.9311,91.7071075 C167.166503,93.4462425 166.899167,94.8459955 166.633942,95.7139796 C166.543159,96.0082338 166.436014,96.2945709 166.314617,96.5674489 C164.487866,95.7860257 161.279571,94.5345874 159.175719,94.3902313 C159.153814,94.302087 159.129007,94.2049699 159.103673,94.1052137 C159.080185,94.1049498 159.055114,94.1028386 159.03189,94.1028386 C158.52097,92.4938088 157.236543,88.7996643 155.572358,86.5443308 C156.502623,86.0070199 158.13039,85.1664819 159.507711,84.9677613 C159.859761,84.9173555 160.175919,84.9133969 160.432699,84.9569412 C160.459089,84.9614276 160.573096,84.9978465 160.636698,85.0266122 C162.868807,86.0397441 164.361983,87.5542958 165.221786,88.6468632 Z M150,76 C136.192746,76 125,87.1930097 125,100.999736 C125,114.80699 136.192746,126 150,126 C163.80699,126 174.999736,114.80699 174.999736,100.999736 C174.999736,87.1930097 163.80699,76 150,76 Z" id="Fill-1"></path>
                <path d="M177.229715,91 L190,91 L190,109 L177.8825,109 C178.610248,106.458869 179,103.77495 179,101 C179,97.4856129 178.37486,94.117235 177.229715,91 Z" id="Combined-Shape"></path>
                <polygon id="Triangle" transform="translate(205.500000, 100.500000) rotate(-270.000000) translate(-205.500000, -100.500000) " points="205.5 94 219 107 192 107"></polygon>
                <rect id="Rectangle" x="192" y="91" width="5" height="18"></rect>
            </g>
        </g>
    </g>
</svg>