<svg width="60px" height="61px" viewBox="0 0 60 61" version="1.1" xmlns="http://www.w3.org/2000/svg" xmlns:xlink="http://www.w3.org/1999/xlink">
    <g id="Page-1" stroke="none" stroke-width="1" fill="none" fill-rule="evenodd">
        <g id="toppicks1" transform="translate(-158.000000, -191.000000)" fill="#FFFFFF">
            <g id="Group-12" transform="translate(32.000000, 119.000000)">
                <g id="Group-7">
                    <g id="noun_Calendar_2230090" transform="translate(126.000000, 72.000000)">
                        <g id="Group">
                            <path d="M6.87022901,4.65517241 C3.20610687,4.65517241 0,7.9137931 0,11.637931 L0,53.7672414 C0,57.7241379 3.20610687,60.75 6.87022901,60.75 L52.9007634,60.75 C56.7938931,60.75 60,57.7241379 60,53.7672414 L60,11.637931 C60,7.9137931 56.7938931,4.65517241 52.9007634,4.65517241 L48.3206107,4.65517241 L48.3206107,9.31034483 C48.3206107,15.5948276 39.1603053,15.5948276 39.1603053,9.31034483 L39.1603053,4.65517241 L20.8396947,4.65517241 L20.8396947,9.31034483 C20.8396947,15.5948276 11.4503817,15.5948276 11.4503817,9.31034483 L11.4503817,4.65517241 L6.87022901,4.65517241 Z M4.58015267,20.9482759 L55.1908397,20.9482759 L55.1908397,53.7672414 C55.1908397,55.1637931 54.2748092,56.0948276 52.9007634,56.0948276 L6.87022901,56.0948276 C5.72519084,56.0948276 4.58015267,55.1637931 4.58015267,53.7672414 L4.58015267,20.9482759 Z" id="Shape"></path>
                            <path d="M41.4503817,2.32758621 L41.4503817,9.31034483 C41.4503817,12.3362069 46.0305344,12.3362069 46.0305344,9.31034483 L46.0305344,2.32758621 C46.0305344,-0.698275862 41.4503817,-0.698275862 41.4503817,2.32758621 Z" id="Path"></path>
                            <path d="M13.740458,2.32758621 L13.740458,9.31034483 C13.740458,12.3362069 18.3206107,12.3362069 18.3206107,9.31034483 L18.3206107,2.32758621 C18.3206107,-0.698275862 13.740458,-0.698275862 13.740458,2.32758621 Z" id="Path"></path>
                        </g>
                    </g>
                </g>
            </g>
        </g>
    </g>
</svg>