<?xml version="1.0" encoding="UTF-8"?>
<svg width="82px" height="82px" viewBox="0 0 82 82" version="1.1" xmlns="http://www.w3.org/2000/svg" xmlns:xlink="http://www.w3.org/1999/xlink">
    <title>cards</title>
    <g id="Page-1" stroke="none" stroke-width="1" fill="none" fill-rule="evenodd">
        <g id="cards">
            <rect id="Rectangle" x="0" y="0" width="82" height="82"></rect>
            <g id="Group-14" transform="translate(16.000000, 6.000000)">
                <path d="M47.1876327,0.3 C47.6585981,0.3 48.0850501,0.489763096 48.3937331,0.796691396 C48.7018537,1.10306044 48.892601,1.52622555 48.892601,1.99357098 L48.892601,1.99357098 L48.892601,59.4971803 C48.892601,59.9650174 48.7024221,60.3885141 48.3942634,60.6949209 C48.0859603,61.0014716 47.6596852,61.1907513 47.1876327,61.1907513 L47.1876327,61.1907513 L10.2037352,61.1907513 C9.73276982,61.1907513 9.3063178,61.0009882 8.99763478,60.6940599 C8.68951421,60.3876909 8.49876684,59.9645257 8.49876684,59.4971803 L8.49876684,59.4971803 L8.49876684,1.99357098 C8.49876684,1.5257339 8.68894581,1.10223723 8.99710443,0.79583035 C9.30540762,0.489279725 9.73168271,0.3 10.2037352,0.3 L10.2037352,0.3 Z" id="Rectangle-73" stroke="#242F29" stroke-width="0.6" fill="#FFC531"></path>
                <path d="M43.0882493,4.39938342 C43.5592146,4.39938342 43.9856667,4.58914652 44.2943497,4.89607482 C44.6024702,5.20244386 44.7932176,5.62560897 44.7932176,6.0929544 L44.7932176,6.0929544 L44.7932176,63.5965637 C44.7932176,64.0644008 44.6030386,64.4878975 44.29488,64.7943044 C43.9865768,65.100855 43.5603017,65.2901347 43.0882493,65.2901347 L43.0882493,65.2901347 L6.10435174,65.2901347 C5.6333864,65.2901347 5.20693438,65.1003716 4.89825136,64.7934433 C4.59013079,64.4870743 4.39938342,64.0639092 4.39938342,63.5965637 L4.39938342,63.5965637 L4.39938342,6.0929544 C4.39938342,5.62511732 4.58956239,5.20162065 4.89772101,4.89521377 C5.2060242,4.58866315 5.63229929,4.39938342 6.10435174,4.39938342 L6.10435174,4.39938342 Z" id="Rectangle-73-Copy-2" stroke="#242F29" stroke-width="0.6" fill="#FFC531"></path>
                <path d="M38.9888659,8.49876684 C39.4598312,8.49876684 39.8862832,8.68852994 40.1949663,8.99545824 C40.5030868,9.30182728 40.6938342,9.72499239 40.6938342,10.1923378 L40.6938342,10.1923378 L40.6938342,67.6959472 C40.6938342,68.1637842 40.5036552,68.5872809 40.1954966,68.8936878 C39.8871934,69.2002384 39.4609183,69.3895181 38.9888659,69.3895181 L38.9888659,69.3895181 L2.00496832,69.3895181 C1.53400298,69.3895181 1.10755096,69.199755 0.798867939,68.8928267 C0.490747372,68.5864577 0.3,68.1632926 0.3,67.6959472 L0.3,67.6959472 L0.3,10.1923378 C0.3,9.72450074 0.490178969,9.30100407 0.798337593,8.99459719 C1.10664078,8.68804656 1.53291587,8.49876684 2.00496832,8.49876684 L2.00496832,8.49876684 Z" id="Rectangle-73-Copy" stroke="#242F29" stroke-width="0.6" fill="#FFC531"></path>
                <g id="goal-icon-copy-4" transform="translate(4.099383, 20.496917)" fill="#242F29">
                    <path d="M28.0594272,27.0915774 L27.5668682,24.7029376 C29.3379845,22.380951 30.3902696,19.490522 30.3902696,16.360189 C30.3902696,16.2176648 30.3876496,16.0756133 30.3833624,15.9340345 L32.1782968,14.2587249 C32.2709494,14.9465284 32.3197765,15.6478043 32.3197765,16.360189 C32.3197765,20.5021367 30.7010963,24.2751286 28.0594272,27.0915774 L28.0594272,27.0915774 Z M9.98110746,30.6397928 L12.0910721,29.503546 C13.424143,29.890761 14.8444574,30.1008343 16.3174024,30.1008343 C17.8349175,30.1008343 19.2957716,29.8780619 20.6636926,29.4680315 L22.8139599,30.5762973 C20.8310673,31.3907618 18.6314884,31.8444857 16.3174024,31.8444857 C14.065193,31.8444857 11.9220379,31.4137924 9.98110746,30.6397928 L9.98110746,30.6397928 Z M0.950581663,16.6038409 C0.950581663,15.9712538 0.988507539,15.3476631 1.06037942,14.7340158 L2.84945071,16.400002 C2.84874838,16.4679483 2.84687549,16.5358946 2.84687549,16.6038409 C2.84687549,19.7873731 3.91348224,22.7232684 5.70348998,25.0670603 L5.33851194,27.5668682 C2.62376833,24.7247246 0.950581663,20.858415 0.950581663,16.6038409 L0.950581663,16.6038409 Z M13.3081433,0.950581663 L12.3144324,3.1923543 C9.46766799,4.1024605 7.0183407,5.91273156 5.30083613,8.28823892 L2.85174499,8.55523496 C5.06161818,4.70911907 8.84163958,1.87915035 13.3081433,0.950581663 L13.3081433,0.950581663 Z M27.2252447,23.564919 L22.7445309,24.2398324 L19.4869241,19.7764704 L20.8907777,15.4329223 L26.2203762,13.3081433 L29.4680315,16.428658 C29.4393342,19.0729412 28.6154439,21.5285464 27.2252447,23.564919 L27.2252447,23.564919 Z M6.52279851,13.3081433 L11.893889,15.2785058 L13.3081433,19.6191592 L10.0655417,24.2398324 L5.7722114,23.6774692 C4.28362076,21.6271675 3.38482706,19.1251162 3.32703582,16.4197312 L6.52279851,13.3081433 L6.52279851,13.3081433 Z M26.6162866,8.52894973 L25.9344869,13.0302053 L20.4614692,15.2093066 L16.6351791,12.4186959 L16.6561869,6.39393844 L20.6326353,4.27761748 C23.0062816,5.10766003 25.0736433,6.5980944 26.6162866,8.52894973 L26.6162866,8.52894973 Z M12.1208298,4.27761748 L16.1598883,6.27778578 L16.139044,12.0589144 L12.350591,14.7340158 L6.90146244,12.7861018 L6.17878081,8.4740806 C7.69615169,6.57634928 9.75168471,5.10493994 12.1208298,4.27761748 L12.1208298,4.27761748 Z M16.6414043,29.4680315 C15.4727407,29.4680315 14.3390341,29.3186428 13.2584813,29.0400024 L10.9316891,25.0622345 L14.2411068,20.4375057 L18.9677176,20.4375057 L22.3386691,24.9308755 L20.2740541,28.9735033 C19.1192775,29.2954618 17.9005728,29.4680315 16.6414043,29.4680315 L16.6414043,29.4680315 Z M29.9433224,8.55523496 L27.4863713,8.30878451 C25.7624645,5.94440799 23.3357615,4.14694009 20.5259944,3.24312718 L19.4869241,0.950581663 C23.9289083,1.8623758 27.7014165,4.69135616 29.9433224,8.55523496 L29.9433224,8.55523496 Z M16.3975337,0 C7.35600824,0 0,7.35582619 0,16.3974163 C0,25.4392412 7.35600824,32.7950674 16.3975337,32.7950674 C25.4390591,32.7950674 32.7950674,25.4392412 32.7950674,16.3974163 C32.7950674,7.35582619 25.4390591,0 16.3975337,0 L16.3975337,0 Z" id="Fill-36"></path>
                </g>
            </g>
        </g>
    </g>
</svg>