
<svg width="32px" height="21px" viewBox="0 0 32 21" version="1.1" xmlns="http://www.w3.org/2000/svg" xmlns:xlink="http://www.w3.org/1999/xlink">
    <g id="Page-1" stroke="none" stroke-width="1" fill="none" fill-rule="evenodd">
        <g id="reference" transform="translate(-247.000000, -351.000000)" fill="#FFFFFF">
            <g id="most-shots-on-target" transform="translate(247.000000, 348.000000)">
                <g id="Group" transform="translate(15.739395, 12.881887) scale(-1, 1) rotate(-45.000000) translate(-15.739395, -12.881887) translate(3.739395, 7.881887)">
                    <path d="M3.10634215,8.87661004 C3.4795594,8.92560651 3.90706035,8.96371488 4.39425981,8.99229615 L4.32305477,9.38971196 C4.32603293,9.40060007 4.32819886,9.41148817 4.32833423,9.42237627 C4.32968794,9.56392163 4.07979347,9.68096875 3.77006511,9.68369078 C3.46033675,9.68777382 3.20814098,9.57480974 3.20678727,9.43326438 C3.2066519,9.42237627 3.20854709,9.41148817 3.21138988,9.40060007 L3.10634215,8.87661004 Z M6.41940676,9.05898579 C6.83323526,9.06442984 7.27535624,9.06579085 7.74807103,9.06442984 L7.64694905,9.62652823 C7.65006258,9.63741634 7.65209314,9.64830444 7.65222851,9.65919254 C7.65371759,9.8007379 7.40368775,9.91778502 7.09409476,9.92186806 C6.7843664,9.92459009 6.53217063,9.81162601 6.53068155,9.67008065 C6.53068155,9.65919254 6.53257674,9.64830444 6.53541953,9.63877735 L6.41940676,9.05898579 Z M18.2043813,8.86436092 C18.6733057,8.89158118 19.1295052,8.90519132 19.5640455,8.90110828 L19.4511462,9.52853529 C19.4542597,9.5394234 19.4562903,9.5503115 19.4564257,9.5611996 C19.4579148,9.70274496 19.2080203,9.81979208 18.8982919,9.82387512 C18.5885636,9.82659715 18.3363678,9.71363307 18.3350141,9.57208771 C18.3348787,9.5611996 18.3367739,9.5503115 18.3396167,9.54078441 L18.2043813,8.86436092 Z M20.6407847,8.84666775 C21.1723858,8.79494926 21.6490263,8.70240037 22.0498592,8.56221603 L21.8833531,9.48906591 C21.8864667,9.49995402 21.8884972,9.51084212 21.8886326,9.52173023 C21.8901217,9.66327558 21.6402272,9.78032271 21.3304988,9.78304473 C21.0207705,9.78712777 20.7685747,9.67416369 20.7670856,9.53261833 C20.7670856,9.52173023 20.7689808,9.51084212 20.7718236,9.49995402 L20.6407847,8.84666775 Z M23.1529957,4.94328233 C23.3075892,5.63059392 23.3847505,6.31382247 23.3574056,6.86367174 C23.2576373,8.87116599 19.6517657,8.8616389 16.056453,8.42611472 C14.2520958,8.20699162 12.9886803,8.22468479 12.0221329,8.32403874 L23.1529957,4.94328233 Z M21.9587547,2.18450888 C22.1519288,2.406354 22.3326488,2.69624978 22.4961767,3.02561494 L10.6676128,8.53499577 C9.99211255,8.67109707 9.46389574,8.80719838 8.87855246,8.81400344 C1.06914719,8.91335739 -0.371468716,8.25871012 0.114241664,6.89225301 C0.348568495,6.23216169 3.3326821,5.41691487 6.34305764,4.26141479 L8.1962837,6.08925532 L14.3307462,2.86909844 L13.8971536,0.281812632 C14.2043099,0.190624758 14.5139029,0.121213092 14.8172688,0.0844657401 C14.7885702,0.348502272 14.7604131,0.627509947 14.8685744,0.871131283 C15.61907,2.56423152 18.5862623,4.38254495 21.9587547,2.18450888 Z M13.6685124,2.53837227 L8.30485107,5.35294726 L6.95114321,4.01915447 C8.24921368,3.47883229 9.60711803,2.77246651 10.8735117,1.81023029 C11.3548902,1.44411778 12.2913853,0.867048244 13.3227754,0.475076485 L13.6685124,2.53837227 Z" id="Fill-375"></path>
                </g>
                <path d="M3.54835545,20.1611194 L13.4837507,20.1611194 L13.4837507,20.8707905 L3.54835545,20.8707905 L3.54835545,20.1611194 Z M0,15.9030929 L9.93539526,15.9030929 L9.93539526,16.612764 L0,16.612764 L0,15.9030929 Z M0.70967109,9.51605308 L3.54835545,9.51605308 L3.54835545,10.2257242 L0.70967109,10.2257242 L0.70967109,9.51605308 Z" id="Rectangle-266"></path>
                <path d="M31.3603655,9.50753703 C31.5269025,9.50753703 31.6570075,9.54917065 31.7506846,9.63243914 C31.8443616,9.71570763 31.8911995,9.82499589 31.8911995,9.96030718 C31.8911995,10.1372527 31.828749,10.272562 31.7038463,10.366239 C31.5789435,10.4599161 31.4020007,10.5067539 31.1730123,10.5067539 L29.939604,10.5067539 L29.471221,13.1921493 L30.7358549,13.1921493 C30.9023919,13.1921493 31.0298949,13.2363851 31.1183676,13.3248578 C31.2068404,13.4133306 31.2510761,13.525221 31.2510761,13.6605322 C31.2510761,13.8062521 31.1886257,13.931153 31.063723,14.0352386 C30.9388202,14.1393242 30.7618773,14.1913662 30.532889,14.1913662 L29.2526423,14.1913662 L28.6905828,17.4232084 C28.6489486,17.6105625 28.5682834,17.7588822 28.448585,17.8681721 C28.3288865,17.977462 28.1753626,18.0321062 27.9880085,18.0321062 C27.8422886,18.0321062 27.7277961,17.9930746 27.6445276,17.9150104 C27.5612592,17.8369462 27.5196255,17.7250559 27.5196255,17.579336 C27.5196255,17.5168846 27.5248297,17.4648426 27.5352383,17.4232084 L28.081685,14.1913662 L25.0528088,14.1913662 L24.4907493,17.4232084 C24.4595236,17.6001539 24.3788585,17.7458716 24.2487515,17.8603658 C24.1186445,17.9748599 23.9703247,18.0321062 23.8037877,18.0321062 C23.6580678,18.0321062 23.5409733,17.9904725 23.4525005,17.9072041 C23.3640277,17.8239356 23.319792,17.7094431 23.319792,17.5637232 L23.3354048,17.4232084 L23.8974643,14.1913662 L22.5859921,14.1913662 C22.4298637,14.1913662 22.3075649,14.1523347 22.2190922,14.0742705 C22.1306194,13.9962063 22.0863837,13.8947243 22.0863837,13.7698216 C22.0863837,13.5824675 22.1488341,13.4393519 22.2737368,13.3404706 C22.3986396,13.2415893 22.5599699,13.1921493 22.7577325,13.1921493 L24.116043,13.1921493 L24.5688131,10.5067539 L23.2729537,10.5067539 C22.8982455,10.5067539 22.7108942,10.3506278 22.7108942,10.038371 C22.7108942,9.87183402 22.7733447,9.74172896 22.8982474,9.6480519 C23.0231501,9.55437485 23.1948888,9.50753703 23.4134686,9.50753703 L24.7873918,9.50753703 L25.3494513,6.36937147 C25.380677,6.18201736 25.4587401,6.03109549 25.5836428,5.91660131 C25.7085455,5.80210714 25.8594674,5.74486091 26.036413,5.74486091 C26.1821328,5.74486091 26.2992274,5.78909663 26.3877001,5.8775694 C26.4761729,5.96604217 26.5204086,6.08313673 26.5204086,6.22885659 L26.5047959,6.3537587 L25.9427364,9.50753703 L28.9872253,9.50753703 L29.5492849,6.36937147 C29.570102,6.19242593 29.6455629,6.04410615 29.7756699,5.92440769 C29.9057769,5.80470924 30.0593009,5.74486091 30.2362465,5.74486091 C30.3923749,5.74486091 30.5094694,5.78649453 30.5875337,5.86976302 C30.6655979,5.95303151 30.7046294,6.06231977 30.7046294,6.19763106 C30.7046294,6.27049099 30.6994252,6.32253302 30.6890166,6.3537587 L30.1425699,9.50753703 L31.3603655,9.50753703 Z M28.3002637,13.1921493 L28.7686467,10.5067539 L25.7241577,10.5067539 L25.2713875,13.1921493 L28.3002637,13.1921493 Z" id="#"></path>
            </g>
        </g>
    </g>
</svg>