
<svg width="19px" height="19px" viewBox="0 0 19 19" version="1.1" xmlns="http://www.w3.org/2000/svg" xmlns:xlink="http://www.w3.org/1999/xlink">
    <g id="Page-1" stroke="none" stroke-width="1" fill="none" fill-rule="evenodd">
        <g id="01_2_contest_info" transform="translate(-38.000000, -643.000000)" fill="#000">
            <g id="Group-23-Copy" transform="translate(0.000000, 635.000000)">
                <g id="Group-29-Copy-2" transform="translate(38.000000, 8.000000)">
                    <path d="M10.5011489,14.4380106 L8.49885111,14.4380106 L8.49885111,6.96736857 L10.5011489,6.96736857 L10.5011489,14.4380106 Z M8.38147503,5.03411554 C8.38147503,4.73492012 8.48158892,4.48866297 8.6818197,4.2953367 C8.88205048,4.10201043 9.15477452,4.00534875 9.5,4.00534875 C9.84062247,4.00534875 10.1121958,4.10201043 10.3147281,4.2953367 C10.5172603,4.48866297 10.618525,4.73492012 10.618525,5.03411554 C10.618525,5.33791396 10.5161096,5.58647258 10.3112758,5.77979885 C10.106442,5.97312512 9.83601947,6.0697868 9.5,6.0697868 C9.16398053,6.0697868 8.89355796,5.97312512 8.68872418,5.77979885 C8.48389039,5.58647258 8.38147503,5.33791396 8.38147503,5.03411554 Z" id="i"></path>
                    <path d="M9.5,18.4433594 C4.40700694,18.4433594 0.278320312,14.3146727 0.278320312,9.22167969 C0.278320312,4.12868663 4.40700694,0 9.5,0 C14.5929931,0 18.7216797,4.12868663 18.7216797,9.22167969 C18.7216797,14.3146727 14.5929931,18.4433594 9.5,18.4433594 Z M9.5,16.7911855 C13.6805226,16.7911855 17.0695058,13.4022023 17.0695058,9.22167969 C17.0695058,5.04115708 13.6805226,1.65217391 9.5,1.65217391 C5.3194774,1.65217391 1.93049423,5.04115708 1.93049423,9.22167969 C1.93049423,13.4022023 5.3194774,16.7911855 9.5,16.7911855 Z" id="Oval" fill-rule="nonzero"></path>
                </g>
            </g>
        </g>
    </g>
</svg>