
<svg width="11px" height="18px" viewBox="0 0 11 18" version="1.1" xmlns="http://www.w3.org/2000/svg" xmlns:xlink="http://www.w3.org/1999/xlink">
    <g id="Page-1" stroke="none" stroke-width="1" fill="none" fill-rule="evenodd">
        <g id="06_contest_gameplay" transform="translate(-276.000000, -369.000000)">
            <g id="Group-15" transform="translate(0.000000, 48.000000)">
                <g id="Group-13">
                    <g id="Group-5" transform="translate(10.000000, 315.000000)">
                        <g id="Group-10-Copy-13" transform="translate(266.000000, 6.000000)">
                            <polygon id="Fill-63" fill="#FFC531" points="4.02406023 9.7781094 10.0068907 9.7781094 10.0068907 0.41217352 4.02406023 0.41217352"></polygon>
                            <path d="M0.286877674,11.8201268 C0.286877674,11.8201268 0.397272194,11.4957165 0.596074422,11.2333375 C0.768055041,11.0059653 2.8791344,7.39697211 3.43985568,6.43731062 L3.43985568,10.3797223 C3.43985568,10.3797223 3.70622995,10.3967125 3.794983,10.4024139 C3.82364644,10.4010456 3.85046805,10.3931776 3.87579317,10.3797223 C4.43294591,10.0851874 4.19431417,6.99103165 4.19431417,6.99103165 C4.19431417,6.99103165 4.1945444,6.64313155 4.32289673,6.30173106 C4.44641427,5.97275965 4.6889599,5.6497177 5.1655327,5.6497177 C6.13686634,5.6497177 6.27707544,6.90357201 6.27707544,6.90357201 L6.28421252,10.1399209 C6.28421252,10.1399209 6.27580918,10.2298892 6.27730567,10.3797223 C6.28006841,10.6489429 6.31517824,11.1120115 6.49015183,11.5977717 C7.16713845,13.2533474 7.03993726,15.1549961 7.03993726,15.1549961 C7.03993726,15.1549961 7.08621317,16.1754346 6.20317212,16.7003065 C5.32024619,17.2250644 5.42223737,17.9905358 5.42223737,17.9905358 L2.42823207,17.9905358 L0.441360934,12.9827585 C0.441360934,12.9827585 0.066203747,12.5453462 0.286877674,11.8201268" id="Fill-64" fill="#FFFFFF" fill-rule="nonzero"></path>
                        </g>
                    </g>
                </g>
            </g>
        </g>
    </g>
</svg>