
<svg width="26px" height="28px" viewBox="0 0 26 28" version="1.1" xmlns="http://www.w3.org/2000/svg" xmlns:xlink="http://www.w3.org/1999/xlink">
    <g id="Page-1" stroke="none" stroke-width="1" fill="none" fill-rule="evenodd">
        <g id="reference" transform="translate(-100.000000, -346.000000)">
            <g id="when-first-goal" transform="translate(100.000000, 346.000000)">
                <path d="M12.0644085,25.5481592 C6.41845616,25.5481592 2.12901327,21.2587874 2.12901327,16.3224351 C2.12901327,10.6764117 6.41845616,6.38703981 12.0644085,6.38703981 C17.0010071,6.38703981 21.2901327,10.6764117 21.2901327,16.3224351 C21.2901327,21.2587874 17.0010071,25.5481592 12.0644085,25.5481592 L12.0644085,25.5481592 Z M21.2928564,9.28832697 C22.6243364,11.2494218 23.419146,13.6662025 23.419146,16.3224351 C23.419146,22.4343637 18.1765828,27.6771725 12.0644085,27.6771725 C5.24256314,27.6771725 0,22.4343637 0,16.3224351 C0,9.9819317 4.52875031,5.00580234 10.6450664,4.33506087 L10.6450664,2.83868436 C9.73683936,2.76544476 9.22572417,2.25904269 9.22572417,1.41934218 C9.22572417,0.506715826 9.73683936,0 10.6450664,0 L13.4837507,0 C14.3922944,0 14.9030929,0.506715826 14.9030929,1.41934218 C14.9030929,2.25904269 14.3922944,2.76544476 13.4837507,2.83868436 L13.4837507,4.35291798 C15.7127101,4.65245766 17.7714622,5.64765489 19.42999,7.14583276 L20.7863843,5.92452988 C20.2330895,5.20057884 20.2674167,4.48189711 20.8914358,3.92002779 C21.5696494,3.30936157 22.2882154,3.35013511 22.8959379,4.0250793 L24.7953885,6.13463289 C25.4033229,6.80981241 25.3685505,7.52846875 24.690337,8.13913498 C24.0663179,8.70100429 23.3481969,8.66025615 22.6858349,8.03408348 L21.2928564,9.28832697 Z" id="Fill-364" fill="#FFFFFF"></path>
                <g id="goal-icon-copy-4" transform="translate(1.596760, 5.853707)">
                    <ellipse id="Oval-340" fill="#FFFFFF" cx="10.1635038" cy="10.1016569" rx="10.1635038" ry="10.1016569"></ellipse>
                    <path d="M17.3917676,16.6896941 L17.0864702,15.2181789 C18.1842418,13.7877252 18.8364682,12.0070842 18.8364682,10.0786509 C18.8364682,9.99084921 18.8348443,9.90333876 18.8321869,9.81611952 L19.9447215,8.78404952 C20.0021493,9.207769 20.0324133,9.63978815 20.0324133,10.0786509 C20.0324133,12.6302867 19.0291245,14.9546283 17.3917676,16.6896941 L17.3917676,16.6896941 Z M6.18648059,18.8755628 L7.49427689,18.1755809 C8.32053965,18.4141237 9.20087759,18.5435388 10.113837,18.5435388 C11.0544217,18.5435388 11.9598869,18.4063005 12.8077504,18.1537023 L14.1405271,18.8364465 C12.9114924,19.3381952 11.5481515,19.6177106 10.113837,19.6177106 C8.71787462,19.6177106 7.38950624,19.3523831 6.18648059,18.8755628 L6.18648059,18.8755628 Z M0.589188628,10.2287519 C0.589188628,9.83904836 0.612695809,9.45488697 0.657243368,9.07685117 L1.76614384,10.1031775 C1.76570853,10.1450357 1.76454768,10.1868938 1.76454768,10.2287519 C1.76454768,12.1899585 2.42565087,13.998609 3.53513177,15.4424957 L3.30891143,16.9824957 C1.62626161,15.2316007 0.589188628,12.849771 0.589188628,10.2287519 L0.589188628,10.2287519 Z M8.24864079,0.585603301 L7.63271985,1.96664137 C5.86824102,2.52730987 4.3501013,3.64252253 3.28555924,5.10594751 L1.76756588,5.27042971 C3.1372874,2.90104026 5.48021669,1.15764557 8.24864079,0.585603301 L8.24864079,0.585603301 Z M16.8747254,14.5171056 L14.0974937,14.9328842 L12.0783669,12.1832419 L12.9485021,9.50741068 L16.2518888,8.19844622 L18.2648475,10.120831 C18.2470603,11.7498346 17.7363974,13.2626037 16.8747254,14.5171056 L16.8747254,14.5171056 Z M4.04295481,8.19844622 L7.37205901,9.41228278 L8.24864079,12.0863308 L6.23881455,14.9328842 L3.57772662,14.5864419 C2.65506977,13.323359 2.09798031,11.7819769 2.0621602,10.1153316 L4.04295481,8.19844622 L4.04295481,8.19844622 Z M16.4972816,5.25423676 L16.0746892,8.02722326 L12.6824085,9.36965282 L10.310801,7.65050452 L10.323822,3.93896874 L12.7885005,2.63521486 C14.2597317,3.14656036 15.5411219,4.06473848 16.4972816,5.25423676 L16.4972816,5.25423676 Z M7.51272129,2.63521486 L10.0162067,3.86741321 L10.003287,7.4288621 L7.65513161,9.07685117 L4.27765793,7.87684398 L3.82972608,5.22043478 C4.77022147,4.05134246 6.04428,3.14488465 7.51272129,2.63521486 L7.51272129,2.63521486 Z M10.3146595,18.1537023 C9.59029955,18.1537023 8.88760659,18.0616718 8.21785932,17.8900161 L6.77566922,15.4395228 L8.82690935,12.590471 L11.7565528,12.590471 L13.8459328,15.3585994 L12.566245,17.8490495 C11.8504925,18.0473912 11.0951161,18.1537023 10.3146595,18.1537023 L10.3146595,18.1537023 Z M18.5594418,5.27042971 L17.0365767,5.11860456 C15.9680664,3.66203671 14.4639496,2.5547114 12.7224024,1.99791986 L12.0783669,0.585603301 C14.8315933,1.14731165 17.1698658,2.89009747 18.5594418,5.27042971 L18.5594418,5.27042971 Z M10.1635038,0 C4.55939407,0 0,4.53153713 0,10.1015847 C0,15.6717768 4.55939407,20.2033139 10.1635038,20.2033139 C15.7676136,20.2033139 20.3270077,15.6717768 20.3270077,10.1015847 C20.3270077,4.53153713 15.7676136,0 10.1635038,0 L10.1635038,0 Z" id="Fill-36" fill="#242F29"></path>
                </g>
            </g>
        </g>
    </g>
</svg>