<svg width="60px" height="50px" viewBox="0 0 60 50" version="1.1" xmlns="http://www.w3.org/2000/svg" xmlns:xlink="http://www.w3.org/1999/xlink">
    <g id="Page-1" stroke="none" stroke-width="1" fill="none" fill-rule="evenodd">
        <g id="news" transform="translate(-2.000000, -7.000000)" fill="#FFFFFF" fill-rule="nonzero">
            <g transform="translate(2.000000, 7.000000)">
                <polyline id="Fill-365" points="25 43.1818182 53.2290729 27.3564349 59.0909091 30.6442333 59.0909091 19.3557667 53.2290729 22.6439363 25 6.81818182 25 43.1818182"></polyline>
                <polygon id="Fill-366" points="0 25 9.09090909 25 9.09090909 27.2727273 0 27.2727273"></polygon>
                <polyline id="Fill-367" points="10.7464598 34.0909091 11.3636364 35.7029307 2.8894991 38.6363636 2.27272727 37.024342 10.7464598 34.0909091"></polyline>
                <polyline id="Fill-368" points="16.8732161 43.1818182 18.1818182 44.494175 10.3972314 50 9.09090909 48.6876432 16.8732161 43.1818182"></polyline>
                <polyline id="Fill-369" points="18.1818182 5.50582501 16.8732161 6.81818182 9.09090909 1.31235681 10.3972314 0 18.1818182 5.50582501"></polyline>
                <polyline id="Fill-370" points="11.3636364 14.2970693 10.7464598 15.9090909 2.27272727 12.975658 2.8894991 11.3636364 11.3636364 14.2970693"></polyline>
            </g>
        </g>
    </g>
</svg>