
<svg width="39px" height="25px" viewBox="0 0 39 25" version="1.1" xmlns="http://www.w3.org/2000/svg" xmlns:xlink="http://www.w3.org/1999/xlink">
    <g id="tablet_vertical" stroke="none" stroke-width="1" fill="none" fill-rule="evenodd">
        <g id="00_main_not_signed_in" transform="translate(-560.000000, -63.000000)">
            <g id="Group-15" transform="translate(20.000000, 62.000000)">
                <g id="standings-icon" transform="translate(540.376100, 1.043130)">
                    <rect id="Rectangle-560" fill="#FFFFFF" fill-rule="nonzero" x="0" y="0" width="7.21008843" height="7.21008843"></rect>
                    <polygon id="Rectangle-560-Copy" fill="#FFFFFF" fill-rule="nonzero" points="8.5210136 0 38.5933431 0 38.5933431 7.21008843 8.5210136 7.21008843"></polygon>
                    <path d="M3.44183403,5.78707916 L3.44183403,3.13245569 L2.87551436,3.13245569 C2.81652273,3.13245569 2.76932942,3.07936322 2.76932942,3.02037159 L2.76932942,2.64872431 C2.76932942,2.62512765 2.78702691,2.57793435 2.8047244,2.56023686 L3.66600224,1.88773224 L4.20872526,1.88773224 C4.26771689,1.88773224 4.3149102,1.94082471 4.3149102,1.99981635 L4.3149102,5.78707916 C4.3149102,5.8460708 4.26771689,5.89916326 4.20872526,5.89916326 L3.55391814,5.89916326 C3.48902734,5.89916326 3.44183403,5.8460708 3.44183403,5.78707916 Z" id="1" fill="#00004B"></path>
                    <polygon id="Rectangle-560-Copy-3" fill="#FFFFFF" fill-rule="nonzero" points="0 8.5210136 7.21008843 8.5210136 7.21008843 15.731102 0 15.731102"></polygon>
                    <polygon id="Rectangle-560-Copy-2" fill="#FFFFFF" fill-rule="nonzero" points="8.5210136 8.5210136 38.5933431 8.5210136 38.5933431 15.731102 8.5210136 15.731102"></polygon>
                    <path d="M2.55237131,14.3080928 L2.55237131,14.1901095 C2.89452278,13.7417731 3.76759894,12.5560413 4.11564957,12.0251166 C4.19233869,11.9071333 4.26902782,11.7419567 4.26902782,11.5767802 C4.26902782,11.352612 4.08025459,11.1520404 3.74990145,11.1520404 C3.50803575,11.1520404 3.28976671,11.3231162 3.17768261,11.4469986 C3.13048931,11.4941919 3.05969935,11.4941919 3.01250604,11.4469986 L2.65265708,11.0812505 C2.61136294,11.0458555 2.60546378,10.9750655 2.64675792,10.9278722 C2.64675792,10.9278722 3.12459014,10.3497542 3.82659057,10.3497542 C4.67017092,10.3497542 5.16570063,10.8865781 5.16570063,11.5413852 C5.16570063,11.8540408 5.07721318,12.0310157 4.93563326,12.3082764 C4.74686004,12.6445287 4.26312865,13.2757392 3.98586798,13.665084 L5.02412071,13.665084 C5.08311235,13.665084 5.13620482,13.7181764 5.13620482,13.7771681 L5.13620482,14.3080928 C5.13620482,14.3670844 5.08311235,14.4201769 5.02412071,14.4201769 L2.66445541,14.4201769 C2.59956461,14.4201769 2.55237131,14.3670844 2.55237131,14.3080928 Z" id="2" fill="#00004B"></path>
                    <polygon id="Rectangle-560-Copy-5" fill="#FFFFFF" fill-rule="nonzero" points="0 17.0420272 7.21008843 17.0420272 7.21008843 24.2521156 0 24.2521156"></polygon>
                    <polygon id="Rectangle-560-Copy-4" fill="#FFFFFF" fill-rule="nonzero" points="8.5210136 17.0420272 38.5933431 17.0420272 38.5933431 24.2521156 8.5210136 24.2521156"></polygon>
                    <path d="M2.5848167,22.4751566 C2.54942172,22.4338624 2.55532089,22.3689716 2.59071587,22.3276775 L2.96236315,21.9560302 C3.0036573,21.9147361 3.06264893,21.9088369 3.10984223,21.9442319 C3.10984223,21.9442319 3.47559036,22.2155934 3.75875019,22.2155934 C4.01241421,22.2155934 4.2719774,22.0032235 4.2719774,21.7436603 C4.2719774,21.4840971 4.00651505,21.2658281 3.56997697,21.2658281 L3.23962383,21.2658281 C3.18063219,21.2658281 3.12753972,21.2127356 3.12753972,21.153744 L3.12753972,20.6641135 C3.12753972,20.5992227 3.18063219,20.5520294 3.23962383,20.5520294 L3.56997697,20.5520294 C3.9829184,20.5520294 4.20118744,20.3514578 4.20118744,20.0977938 C4.20118744,19.8441298 3.9829184,19.6553565 3.72925438,19.6553565 C3.46969119,19.6553565 3.30451462,19.7910373 3.21602717,19.8913231 C3.17473303,19.9385164 3.10394307,19.9385164 3.05674976,19.8972222 L2.69690081,19.5432724 C2.6497075,19.5019783 2.65560666,19.4311883 2.69690081,19.3898942 C2.69690081,19.3898942 3.18063219,18.8707678 3.82364099,18.8707678 C4.50794393,18.8707678 5.09786025,19.2896084 5.09786025,19.9503147 C5.09786025,20.4045503 4.75570879,20.7408026 4.49024644,20.864685 L4.49024644,20.8823825 C4.76750711,21.0003658 5.20404519,21.3661139 5.20404519,21.8734419 C5.20404519,22.5164507 4.64362468,23.0001821 3.82954015,23.0001821 C3.08624558,23.0001821 2.70869913,22.634434 2.5848167,22.4751566 Z" id="3" fill="#00004B"></path>
                </g>
            </g>
        </g>
    </g>
</svg>