<?xml version="1.0" encoding="UTF-8"?>
<svg width="128px" height="128px" viewBox="0 0 128 128" version="1.1" xmlns="http://www.w3.org/2000/svg" xmlns:xlink="http://www.w3.org/1999/xlink">
    <!-- Generator: Sketch 64 (93537) - https://sketch.com -->
    <title>toppicks</title>
    <desc>Created with Sketch.</desc>
    <g id="toppicks" stroke="none" stroke-width="1" fill="none" fill-rule="evenodd">
        <g id="Group">
            <path d="M64,95.1137034 L42.6818871,106.296823 C40.2365088,107.579627 37.2142199,106.637175 35.931416,104.191796 C35.4210224,103.218845 35.2453079,102.104869 35.431432,101.022052 L39.5,77.3522839 L39.5,77.3522839 L22.2753301,60.5990463 C20.2958072,58.6737021 20.2518866,55.5081819 22.1772308,53.528659 C22.9455883,52.73868 23.953408,52.2246739 25.0440203,52.0665447 L48.8581673,48.6137034 L48.8581673,48.6137034 L59.5182425,27.0612014 C60.7425034,24.585995 63.7415141,23.5719034 66.2167205,24.7961643 C67.1996962,25.2823536 67.9955683,26.0782257 68.4817575,27.0612014 L79.1418327,48.6137034 L79.1418327,48.6137034 L102.95598,52.0665447 C105.688827,52.4627835 107.583023,54.9994092 107.186784,57.7322568 C107.028655,58.8228691 106.514649,59.8306887 105.72467,60.5990463 L88.5,77.3522839 L88.5,77.3522839 L92.568568,101.022052 C93.0363654,103.743564 91.2093688,106.32901 88.487857,106.796807 C87.4050399,106.982931 86.2910638,106.807217 85.3181129,106.296823 L64,95.1137034 L64,95.1137034 Z" id="Star" fill="#fff"></path>
            <rect id="Rectangle" x="0" y="0" width="128" height="128"></rect>
        </g>
    </g>
</svg>