
<svg width="25px" height="25px" viewBox="0 0 25 25" version="1.1" xmlns="http://www.w3.org/2000/svg" xmlns:xlink="http://www.w3.org/1999/xlink">
    <g id="Page-1" stroke="none" stroke-width="1" fill="none" fill-rule="evenodd">
        <g id="06_contest_gameplay" transform="translate(-70.000000, -479.000000)">
            <g id="Group-15" transform="translate(0.000000, 48.000000)">
                <g id="Group-13">
                    <g id="Group-7" transform="translate(20.000000, 414.000000)">
                        <g id="Group-10">
                            <g id="goal-icon-copy-2" transform="translate(50.000000, 17.000000)">
                                <circle id="Oval-340" fill="#FFFFFF" cx="12.0449905" cy="12.0449905" r="12.0449905"></circle>
                                <path d="M20.6113639,19.9004191 L20.2495492,18.1458172 C21.5505424,16.4401761 22.3235101,14.3169794 22.3235101,12.0175586 C22.3235101,11.9128658 22.3215855,11.8085203 22.3184363,11.704522 L23.6369253,10.4739048 C23.7049843,10.9791384 23.7408508,11.4942684 23.7408508,12.0175586 C23.7408508,15.0600722 22.5518312,17.8315653 20.6113639,19.9004191 L20.6113639,19.9004191 Z M7.33173334,22.5068001 L8.88163131,21.6721574 C9.86085337,21.9565905 10.9041611,22.1109022 11.9861292,22.1109022 C13.1008367,22.1109022 14.1739234,21.9472622 15.1787449,21.6460699 L16.7582476,22.4601588 C15.3016918,23.0584327 13.6859667,23.3917207 11.9861292,23.3917207 C10.3317437,23.3917207 8.75746533,23.0753501 7.33173334,22.5068001 L7.33173334,22.5068001 Z M0.698260318,12.1965357 C0.698260318,11.7318619 0.726119192,11.2737964 0.778913478,10.8230349 L2.09309566,12.0468036 C2.09257976,12.0967143 2.09120401,12.146625 2.09120401,12.1965357 C2.09120401,14.5350347 2.87469185,16.6916292 4.18956191,18.4132875 L3.92146324,20.2495492 C1.92731817,18.1618211 0.698260318,15.3217804 0.698260318,12.1965357 L0.698260318,12.1965357 Z M9.77564445,0.698260318 L9.04570309,2.34497931 C6.95458067,3.01350793 5.15540011,4.34326264 3.89378805,6.08821795 L2.09478095,6.28434286 C3.71806785,3.45913571 6.49472455,1.38035076 9.77564445,0.698260318 L9.77564445,0.698260318 Z M19.9986059,17.309873 L16.7072478,17.8056381 L14.3143365,14.5270259 L15.3455528,11.3364245 L19.2604685,9.77564445 L21.6460699,12.0678532 C21.6249899,14.0102408 21.0197921,15.8140329 19.9986059,17.309873 L19.9986059,17.309873 Z M4.79139409,9.77564445 L8.73678823,11.2229961 L9.77564445,14.4114713 L7.39375546,17.8056381 L4.240042,17.392548 C3.14658121,15.8864761 2.48636232,14.0485666 2.44391111,12.0612959 L4.79139409,9.77564445 L4.79139409,9.77564445 Z M19.5512889,6.26503475 L19.0504654,9.57148202 L15.0301995,11.1721651 L12.2195556,9.12229099 L12.2349871,4.6967385 L15.1559314,3.14217143 C16.8995197,3.75188841 18.4181231,4.84670352 19.5512889,6.26503475 L19.5512889,6.26503475 Z M8.90349017,3.14217143 L11.8704254,4.61141727 L11.855114,8.85800951 L9.07226376,10.8230349 L5.06954589,9.39217312 L4.53869207,6.22473003 C5.65329371,4.83073041 7.16320832,3.74989033 8.90349017,3.14217143 L8.90349017,3.14217143 Z M12.2241284,21.6460699 C11.3656736,21.6460699 10.5328968,21.5363347 9.73916467,21.3316563 L8.02999366,18.4097427 L10.4609632,15.0125968 L13.9329476,15.0125968 L16.4091175,18.3132515 L14.8925316,21.2828087 C14.0442777,21.5193068 13.1490646,21.6460699 12.2241284,21.6460699 L12.2241284,21.6460699 Z M21.9952,6.28434286 L20.1904193,6.10330994 C18.9241044,4.36653092 17.1415428,3.0461809 15.0775972,2.38227509 L14.3143365,0.698260318 C17.5772454,1.36802883 20.3483832,3.44608778 21.9952,6.28434286 L21.9952,6.28434286 Z M12.0449905,0 C5.40343755,0 0,5.40330383 0,12.0449043 C0,18.6866771 5.40343755,24.089981 12.0449905,24.089981 C18.6865434,24.089981 24.089981,18.6866771 24.089981,12.0449043 C24.089981,5.40330383 18.6865434,0 12.0449905,0 L12.0449905,0 Z" id="Fill-36" fill="#303030"></path>
                            </g>
                        </g>
                    </g>
                </g>
            </g>
        </g>
    </g>
</svg>