<svg width="57px" height="25px" viewBox="0 0 57 25" version="1.1" xmlns="http://www.w3.org/2000/svg" xmlns:xlink="http://www.w3.org/1999/xlink">
    <g id="tablet_vertical" stroke="none" stroke-width="1" fill="none" fill-rule="evenodd">
        <g id="00_main_not_signed_in" transform="translate(-20.000000, -64.000000)" fill="#FFC531">
            <g id="Group-15" transform="translate(20.000000, 62.000000)">
                <g id="Matches-icon" transform="translate(0.000000, 2.000000)">
                    <path d="M26.830621,22.7707557 L2.35376518,8.51270396 L31.5655353,0.472534384 L54.9872784,5.89453877 L26.830621,22.7707557 L26.830621,22.7707557 Z M31.4376148,0.100492717 L0.103336789,8.51270396 L26.8843847,24.9923694 L56.9978557,5.89453877 L31.4376148,0.100492717 L31.4376148,0.100492717 Z" id="Fill-349"></path>
                    <path d="M33.5496943,5.84806246 C35.7234167,6.49711216 36.3236236,7.61300593 34.8052623,8.42483831 L44.1330342,11.4844128 L53.6862893,5.94286487 L46.2335268,4.1897139 L43.0336591,5.61729951 L33.1779831,3.03959876 L36.59615,1.92254886 L31.5451422,0.734512761 L20.6468674,3.78067617 L26.6287754,5.7428549 C28.567745,5.20248115 31.4974037,5.23554638 33.5496943,5.84806246" id="Fill-350"></path>
                    <polyline id="Fill-351" points="45.4340233 4.00149642 37.2378385 2.07353905 34.3403916 3.03959876 42.6962454 5.19068865 45.4340233 4.00149642"></polyline>
                    <path d="M32.9545857,6.07258232 C31.2895328,5.56642992 28.904,5.53267102 27.3098596,5.96621864 L33.9645091,8.14898641 C35.1591295,7.49739323 34.6995888,6.60301339 32.9545857,6.07258232" id="Fill-352"></path>
                    <path d="M15.5342167,8.80497286 L25.6781774,13.3603445 L18.4506662,16.5850139 L27.0431267,21.3977393 L43.5196181,11.8402687 L34.1538408,8.70554594 C32.0519579,9.44176761 28.5434123,9.39436641 26.3314528,8.57097276 C24.2583056,7.7993736 24.2270207,6.66613792 25.9659986,5.96506251 L19.9889572,3.96450036 L3.93191545,8.45258536 L8.60402818,11.0695944 L15.5342167,8.80497286" id="Fill-353"></path>
                    <path d="M27.0676912,8.29327106 C28.8365636,8.93723379 31.5991376,8.98255397 33.311002,8.42345096 L26.6473146,6.19305076 C25.2983553,6.77388896 25.3875752,7.6819111 27.0676912,8.29327106" id="Fill-354"></path>
                    <polyline id="Fill-355" points="9.22022518 11.4145827 17.5827995 16.0987469 23.8875214 13.3603445 15.2901944 9.39089802 9.22022518 11.4145827"></polyline>
                </g>
            </g>
        </g>
    </g>
</svg>