
<svg width="18px" height="20px" viewBox="0 0 18 20" version="1.1" xmlns="http://www.w3.org/2000/svg" xmlns:xlink="http://www.w3.org/1999/xlink">
    <g id="Page-1" stroke="none" stroke-width="1" fill="none" fill-rule="evenodd" opacity="0.279352679">
        <g id="08_contest_gameplay_play_card_pt1" transform="translate(-344.000000, -405.000000)">
            <g id="Group-74" transform="translate(0.000000, 186.000000)">
                <g transform="translate(0.000000, 94.000000)" id="Group-29-Copy-2">
                    <g transform="translate(0.000000, 78.000000)">
                        <g id="Group-10" transform="translate(296.000000, 0.000000)">
                            <g id="timer-2-copy-14" transform="translate(48.506869, 47.500000)">
                                <circle id="Oval-2" fill="#FFFFFF" cx="8.21054528" cy="11.1083848" r="1.44891975"></circle>
                                <path d="M8.21054528,18.3189301 C12.1928195,18.3189301 15.4210906,15.090659 15.4210906,11.1083848 C15.4210906,7.12611059 12.1928195,3.89783951 8.21054528,3.89783951 C4.22827108,3.89783951 1,7.12611059 1,11.1083848 C1,15.090659 4.22827108,18.3189301 8.21054528,18.3189301 Z M6.79567902,1 L9.62541154,1 L9.62541154,1.93189301 L10.5573045,1 L10.6254115,1 L10.591358,0.965946503 L10.6254115,0.931893007 L10.5573045,0.931893007 L9.62541154,0 L9.62541154,0.931893007 L6.79567902,0.931893007 L6.79567902,0 L5.86378601,0.931893007 L5.79567902,0.931893007 L5.82973252,0.965946503 L5.79567902,1 L5.86378601,1 L6.79567902,1.93189301 L6.79567902,1 Z M15.9728235,4.25016461 L16.6799303,4.9572714 L16.6799303,3.54305783 L15.9728235,4.25016461 Z M15.8415227,4.38146546 L15.1344159,5.08857224 L16.5486294,5.08857224 L15.8415227,4.38146546 Z M14.9374646,3.47740741 L14.2303578,2.77030063 L14.2303578,4.18451419 L14.9374646,3.47740741 Z M15.0687655,3.34610657 L15.7758722,2.63899979 L14.3616587,2.63899979 L15.0687655,3.34610657 Z" id="Oval-1" stroke="#FFFFFF" stroke-width="2"></path>
                            </g>
                        </g>
                    </g>
                </g>
            </g>
        </g>
    </g>
</svg>