
<svg width="39px" height="26px" viewBox="0 0 39 26" version="1.1" xmlns="http://www.w3.org/2000/svg" xmlns:xlink="http://www.w3.org/1999/xlink">
    <g id="Page-1" stroke="none" stroke-width="1" fill="none" fill-rule="evenodd">
        <g id="08_contest_gameplay_play_card_pt1" transform="translate(-20.000000, -618.000000)">
            <g id="Group-74" transform="translate(0.000000, 186.000000)">
                <g transform="translate(0.000000, 94.000000)" id="penalty-copy">
                    <g transform="translate(20.626974, 338.419529)">
                        <g id="Fill-29-+-Fill-30-+-Fill-31" fill="#FFFFFF">
                            <path d="M33.0534801,12.490867 L33.0534801,14.7660383 L30.6172363,14.7660383 L30.6172363,13.8919492 L28.47781,12.7003944 L9.11800574,12.7003944 L6.97822484,13.8919492 L6.97822484,14.7660383 L4.54304494,14.7660383 L4.54304494,12.490867 C1.79615351,13.2679526 0.137592806,14.2722027 0.137592806,15.3692233 C0.137592806,17.8341686 8.4917457,19.8320865 18.7980852,19.8320865 C29.1044247,19.8320865 37.4589322,17.8341686 37.4589322,15.3692233 C37.4589322,14.2722027 35.8000169,13.2679526 33.0534801,12.490867" id="Fill-29"></path>
                            <path d="M8.14350824,2.66565422 L9.31694792,2.66565422 L8.72508608,1.98663022 L7.46086352,1.98663022 L8.14350824,2.66565422 L8.14350824,2.66565422 Z M9.57404788,2.66565422 L10.7641547,2.66565422 L10.2634304,1.98663022 L8.98218604,1.98663022 L9.57404788,2.66565422 L9.57404788,2.66565422 Z M11.0045875,2.66565422 L12.2099431,2.66565422 L11.8003562,1.98663022 L10.5042178,1.98663022 L11.0045875,2.66565422 L11.0045875,2.66565422 Z M12.436191,2.66565422 L13.6550221,2.66565422 L13.3358636,1.98663022 L12.0269588,1.98663022 L12.436191,2.66565422 L12.436191,2.66565422 Z M13.8688584,2.66565422 L15.0986827,2.66565422 L14.8710163,1.98663022 L13.5500544,1.98663022 L13.8688584,2.66565422 L13.8688584,2.66565422 Z M15.3029442,2.66565422 L16.5409249,2.66565422 L16.4040413,1.98663022 L15.0752778,1.98663022 L15.3029442,2.66565422 L15.3029442,2.66565422 Z M16.7384485,2.66565422 L17.9813939,2.66565422 L17.9356478,1.98663022 L16.6019196,1.98663022 L16.7384485,2.66565422 L16.7384485,2.66565422 Z M18.175726,2.66565422 L19.4200898,2.66565422 L19.4658358,1.98663022 L18.1303345,1.98663022 L18.175726,2.66565422 L18.175726,2.66565422 Z M19.6147765,2.66565422 L20.8573672,2.66565422 L20.9938962,1.98663022 L19.6598133,1.98663022 L19.6147765,2.66565422 L19.6147765,2.66565422 Z M21.0548909,2.66565422 L22.2932262,2.66565422 L22.5201834,1.98663022 L21.1917745,1.98663022 L21.0548909,2.66565422 L21.0548909,2.66565422 Z M22.4974876,2.66565422 L23.727312,2.66565422 L24.0454067,1.98663022 L22.7247995,1.98663022 L22.4974876,2.66565422 L22.4974876,2.66565422 Z M23.9407936,2.66565422 L25.1596247,2.66565422 L25.5695662,1.98663022 L24.2595976,1.98663022 L23.9407936,2.66565422 L23.9407936,2.66565422 Z M25.3855181,2.66565422 L26.5912282,2.66565422 L27.0919526,1.98663022 L25.7954595,1.98663022 L25.3855181,2.66565422 L25.3855181,2.66565422 Z M26.831661,2.66565422 L28.0217679,2.66565422 L28.6139843,1.98663022 L27.3320307,1.98663022 L26.831661,2.66565422 L26.831661,2.66565422 Z M28.2785132,2.66565422 L29.4515983,2.66565422 L30.1349522,1.98663022 L28.8703751,1.98663022 L28.2785132,2.66565422 L28.2785132,2.66565422 Z M8.91658122,3.43427412 L9.98718092,3.43427412 L9.4850381,2.85860286 L8.33748573,2.85860286 L8.91658122,3.43427412 L8.91658122,3.43427412 Z M10.2435716,3.43427412 L11.3308385,3.43427412 L10.906003,2.85860286 L9.74178344,2.85860286 L10.2435716,3.43427412 L10.2435716,3.43427412 Z M11.5712713,3.43427412 L12.6737868,3.43427412 L12.3266132,2.85860286 L11.147145,2.85860286 L11.5712713,3.43427412 L11.5712713,3.43427412 Z M12.8996802,3.43427412 L14.0156713,3.43427412 L13.7454504,2.85860286 L12.5525066,2.85860286 L12.8996802,3.43427412 L12.8996802,3.43427412 Z M14.2295076,3.43427412 L15.3561373,3.43427412 L15.1632237,2.85860286 L13.9592866,2.85860286 L14.2295076,3.43427412 L14.2295076,3.43427412 Z M15.5603988,3.43427412 L16.6951848,3.43427412 L16.5795785,2.85860286 L15.3674852,2.85860286 L15.5603988,3.43427412 L15.5603988,3.43427412 Z M16.8930631,3.43427412 L18.0328139,3.43427412 L17.9938056,2.85860286 L16.7774568,2.85860286 L16.8930631,3.43427412 L16.8930631,3.43427412 Z M18.227146,3.43427412 L19.3686698,3.43427412 L19.4076781,2.85860286 L18.1888469,2.85860286 L18.227146,3.43427412 L18.227146,3.43427412 Z M19.5626473,3.43427412 L20.7027526,3.43427412 L20.8187136,2.85860286 L19.6016555,2.85860286 L19.5626473,3.43427412 L19.5626473,3.43427412 Z M20.9006309,3.43427412 L22.035417,3.43427412 L22.227976,2.85860286 L21.0165919,2.85860286 L20.9006309,3.43427412 L20.9006309,3.43427412 Z M22.2393238,3.43427412 L23.3663082,3.43427412 L23.6361745,2.85860286 L22.4322374,2.85860286 L22.2393238,3.43427412 L22.2393238,3.43427412 Z M23.5801444,3.43427412 L24.6961356,3.43427412 L25.0433092,2.85860286 L23.8503654,2.85860286 L23.5801444,3.43427412 L23.5801444,3.43427412 Z M24.9227382,3.43427412 L26.0245445,3.43427412 L26.4486707,2.85860286 L25.2692025,2.85860286 L24.9227382,3.43427412 L24.9227382,3.43427412 Z M26.2649773,3.43427412 L27.3522441,3.43427412 L27.8536777,2.85860286 L26.6894582,2.85860286 L26.2649773,3.43427412 L26.2649773,3.43427412 Z M27.6089895,3.43427412 L28.6792345,3.43427412 L29.25833,2.85860286 L28.1107777,2.85860286 L27.6089895,3.43427412 L27.6089895,3.43427412 Z M29.5757155,2.81556861 L29.5757155,3.95844538 L30.2186427,3.4847159 L30.2186427,2.17534598 L29.5757155,2.81556861 L29.5757155,2.81556861 Z M7.4175998,3.51505152 L8.06123625,3.98878099 L8.06123625,2.85648642 L7.4175998,2.21591105 L7.4175998,3.51505152 L7.4175998,3.51505152 Z M8.25485912,4.13164059 L8.77934304,4.51753787 L8.77934304,3.5707844 L8.25485912,3.04943506 L8.25485912,4.13164059 L8.25485912,4.13164059 Z M28.8164727,3.5707844 L28.8164727,4.51753787 L29.381738,4.10130497 L29.381738,3.00816451 L28.8164727,3.5707844 L28.8164727,3.5707844 Z M8.9729659,4.6127776 L10.1024326,4.6127776 L10.1024326,3.62722276 L8.9729659,3.62722276 L8.9729659,4.6127776 Z M10.2960555,4.6127776 L11.4251676,4.6127776 L11.4251676,3.62722276 L10.2960555,3.62722276 L10.2960555,4.6127776 Z M11.6187905,4.6127776 L12.7482572,4.6127776 L12.7482572,3.62722276 L11.6187905,3.62722276 L11.6187905,4.6127776 Z M12.94188,4.6127776 L14.0706375,4.6127776 L14.0706375,3.62722276 L12.94188,3.62722276 L12.94188,4.6127776 Z M14.264615,4.6127776 L15.3937271,4.6127776 L15.3937271,3.62722276 L14.264615,3.62722276 L14.264615,4.6127776 Z M15.5877046,4.6127776 L16.7164621,4.6127776 L16.7164621,3.62722276 L15.5877046,3.62722276 L15.5877046,4.6127776 Z M16.9104396,4.6127776 L18.0395517,4.6127776 L18.0395517,3.62722276 L16.9104396,3.62722276 L16.9104396,4.6127776 Z M18.2335291,4.6127776 L19.3622866,4.6127776 L19.3622866,3.62722276 L18.2335291,3.62722276 L18.2335291,4.6127776 Z M19.5562641,4.6127776 L20.6857308,4.6127776 L20.6857308,3.62722276 L19.5562641,3.62722276 L19.5562641,4.6127776 Z M20.8786444,4.6127776 L22.0084658,4.6127776 L22.0084658,3.62722276 L20.8786444,3.62722276 L20.8786444,4.6127776 Z M22.201734,4.6127776 L23.3312008,4.6127776 L23.3312008,3.62722276 L22.201734,3.62722276 L22.201734,4.6127776 Z M23.5248236,4.6127776 L24.6535811,4.6127776 L24.6535811,3.62722276 L23.5248236,3.62722276 L23.5248236,4.6127776 Z M24.8479132,4.6127776 L25.9766707,4.6127776 L25.9766707,3.62722276 L24.8479132,3.62722276 L24.8479132,4.6127776 Z M26.1706482,4.6127776 L27.2994056,4.6127776 L27.2994056,3.62722276 L26.1706482,3.62722276 L26.1706482,4.6127776 Z M27.4937378,4.6127776 L28.6224952,4.6127776 L28.6224952,3.62722276 L27.4937378,3.62722276 L27.4937378,4.6127776 Z M29.5757155,4.19866114 L29.5757155,5.35882215 L30.2186427,5.04206186 L30.2186427,3.72422619 L29.5757155,4.19866114 L29.5757155,4.19866114 Z M7.4175998,5.06216803 L8.06123625,5.37928105 L8.06123625,4.22899676 L7.4175998,3.75491455 L7.4175998,5.06216803 L7.4175998,5.06216803 Z M28.8164727,4.75775363 L28.8164727,5.73237353 L29.381738,5.45441462 L29.381738,4.34152074 L28.8164727,4.75775363 L28.8164727,4.75775363 Z M8.25485912,5.47452078 L8.77934304,5.73237353 L8.77934304,4.75810637 L8.25485912,4.37185635 L8.25485912,5.47452078 L8.25485912,5.47452078 Z M8.9729659,5.79128107 L10.1024326,5.79128107 L10.1024326,4.80572623 L8.9729659,4.80572623 L8.9729659,5.79128107 Z M10.2960555,5.79128107 L11.4251676,5.79128107 L11.4251676,4.80572623 L10.2960555,4.80572623 L10.2960555,5.79128107 Z M11.6187905,5.79128107 L12.7482572,5.79128107 L12.7482572,4.80572623 L11.6187905,4.80572623 L11.6187905,5.79128107 Z M12.94188,5.79128107 L14.0706375,5.79128107 L14.0706375,4.80572623 L12.94188,4.80572623 L12.94188,5.79128107 Z M14.264615,5.79128107 L15.3937271,5.79128107 L15.3937271,4.80572623 L14.264615,4.80572623 L14.264615,5.79128107 Z M15.5877046,5.79128107 L16.7164621,5.79128107 L16.7164621,4.80572623 L15.5877046,4.80572623 L15.5877046,5.79128107 Z M16.9104396,5.79128107 L18.0395517,5.79128107 L18.0395517,4.80572623 L16.9104396,4.80572623 L16.9104396,5.79128107 Z M18.2335291,5.79128107 L19.3622866,5.79128107 L19.3622866,4.80572623 L18.2335291,4.80572623 L18.2335291,5.79128107 Z M19.5562641,5.79128107 L20.6857308,5.79128107 L20.6857308,4.80572623 L19.5562641,4.80572623 L19.5562641,5.79128107 Z M20.8786444,5.79128107 L22.0084658,5.79128107 L22.0084658,4.80572623 L20.8786444,4.80572623 L20.8786444,5.79128107 Z M22.201734,5.79128107 L23.3312008,5.79128107 L23.3312008,4.80572623 L22.201734,4.80572623 L22.201734,5.79128107 Z M23.5248236,5.79128107 L24.6535811,5.79128107 L24.6535811,4.80572623 L23.5248236,4.80572623 L23.5248236,5.79128107 Z M24.8479132,5.79128107 L25.9766707,5.79128107 L25.9766707,4.80572623 L24.8479132,4.80572623 L24.8479132,5.79128107 Z M26.1706482,5.79128107 L27.2994056,5.79128107 L27.2994056,4.80572623 L26.1706482,4.80572623 L26.1706482,5.79128107 Z M27.4937378,5.79128107 L28.6224952,5.79128107 L28.6224952,4.80572623 L27.4937378,4.80572623 L27.4937378,5.79128107 Z M29.5757155,5.57399339 L29.5757155,6.74332563 L30.2186427,6.57577426 L30.2186427,5.25758584 L29.5757155,5.57399339 L29.5757155,5.57399339 Z M7.4175998,6.58670919 L8.06123625,6.75426057 L8.06123625,5.5944523 L7.4175998,5.27769201 L7.4175998,6.58670919 L7.4175998,6.58670919 Z M28.8164727,5.94789752 L28.8164727,6.94121263 L29.381738,6.79376742 L29.381738,5.66923312 L28.8164727,5.94789752 L28.8164727,5.94789752 Z M8.25485912,6.80470235 L8.77934304,6.94121263 L8.77934304,5.94789752 L8.25485912,5.68969203 L8.25485912,6.80470235 L8.25485912,6.80470235 Z M8.9729659,6.96978455 L10.1024326,6.96978455 L10.1024326,5.98387697 L8.9729659,5.98387697 L8.9729659,6.96978455 Z M10.2960555,6.96978455 L11.4251676,6.96978455 L11.4251676,5.98387697 L10.2960555,5.98387697 L10.2960555,6.96978455 Z M11.6187905,6.96978455 L12.7482572,6.96978455 L12.7482572,5.98387697 L11.6187905,5.98387697 L11.6187905,6.96978455 Z M12.94188,6.96978455 L14.0706375,6.96978455 L14.0706375,5.98387697 L12.94188,5.98387697 L12.94188,6.96978455 Z M14.264615,6.96978455 L15.3937271,6.96978455 L15.3937271,5.98387697 L14.264615,5.98387697 L14.264615,6.96978455 Z M15.5877046,6.96978455 L16.7164621,6.96978455 L16.7164621,5.98387697 L15.5877046,5.98387697 L15.5877046,6.96978455 Z M16.9104396,6.96978455 L18.0395517,6.96978455 L18.0395517,5.98387697 L16.9104396,5.98387697 L16.9104396,6.96978455 Z M18.2335291,6.96978455 L19.3622866,6.96978455 L19.3622866,5.98387697 L18.2335291,5.98387697 L18.2335291,6.96978455 Z M19.5562641,6.96978455 L20.6857308,6.96978455 L20.6857308,5.98387697 L19.5562641,5.98387697 L19.5562641,6.96978455 Z M20.8786444,6.96978455 L22.0084658,6.96978455 L22.0084658,5.98387697 L20.8786444,5.98387697 L20.8786444,6.96978455 Z M22.201734,6.96978455 L23.3312008,6.96978455 L23.3312008,5.98387697 L22.201734,5.98387697 L22.201734,6.96978455 Z M23.5248236,6.96978455 L24.6535811,6.96978455 L24.6535811,5.98387697 L23.5248236,5.98387697 L23.5248236,6.96978455 Z M24.8479132,6.96978455 L25.9766707,6.96978455 L25.9766707,5.98387697 L24.8479132,5.98387697 L24.8479132,6.96978455 Z M26.1706482,6.96978455 L27.2994056,6.96978455 L27.2994056,5.98387697 L26.1706482,5.98387697 L26.1706482,6.96978455 Z M27.4937378,6.96978455 L28.6224952,6.96978455 L28.6224952,5.98387697 L27.4937378,5.98387697 L27.4937378,6.96978455 Z M29.5757155,6.94297633 L29.5757155,8.11371953 L30.2186427,8.08726405 L30.2186427,6.77507221 L29.5757155,6.94297633 L29.5757155,6.94297633 Z M7.4175998,8.08902775 L8.06123625,8.11513049 L8.06123625,6.95355852 L7.4175998,6.78600714 L7.4175998,8.08902775 L7.4175998,8.08902775 Z M28.8164727,7.14051058 L28.8164727,8.14405515 L29.381738,8.12183254 L29.381738,6.99341811 L28.8164727,7.14051058 L28.8164727,7.14051058 Z M8.25485912,8.12289076 L8.77934304,8.14440789 L8.77934304,7.14086332 L8.25485912,7.00435304 L8.25485912,8.12289076 L8.25485912,8.12289076 Z M8.9729659,8.14793528 L10.1024326,8.14793528 L10.1024326,7.16238045 L8.9729659,7.16238045 L8.9729659,8.14793528 Z M10.2960555,8.14793528 L11.4251676,8.14793528 L11.4251676,7.16238045 L10.2960555,7.16238045 L10.2960555,8.14793528 Z M11.6187905,8.14793528 L12.7482572,8.14793528 L12.7482572,7.16238045 L11.6187905,7.16238045 L11.6187905,8.14793528 Z M12.94188,8.14793528 L14.0706375,8.14793528 L14.0706375,7.16238045 L12.94188,7.16238045 L12.94188,8.14793528 Z M14.264615,8.14793528 L15.3937271,8.14793528 L15.3937271,7.16238045 L14.264615,7.16238045 L14.264615,8.14793528 Z M15.5877046,8.14793528 L16.7164621,8.14793528 L16.7164621,7.16238045 L15.5877046,7.16238045 L15.5877046,8.14793528 Z M16.9104396,8.14793528 L18.0395517,8.14793528 L18.0395517,7.16238045 L16.9104396,7.16238045 L16.9104396,8.14793528 Z M18.2335291,8.14793528 L19.3622866,8.14793528 L19.3622866,7.16238045 L18.2335291,7.16238045 L18.2335291,8.14793528 Z M19.5562641,8.14793528 L20.6857308,8.14793528 L20.6857308,7.16238045 L19.5562641,7.16238045 L19.5562641,8.14793528 Z M20.8786444,8.14793528 L22.0084658,8.14793528 L22.0084658,7.16238045 L20.8786444,7.16238045 L20.8786444,8.14793528 Z M22.201734,8.14793528 L23.3312008,8.14793528 L23.3312008,7.16238045 L22.201734,7.16238045 L22.201734,8.14793528 Z M23.5248236,8.14793528 L24.6535811,8.14793528 L24.6535811,7.16238045 L23.5248236,7.16238045 L23.5248236,8.14793528 Z M24.8479132,8.14793528 L25.9766707,8.14793528 L25.9766707,7.16238045 L24.8479132,7.16238045 L24.8479132,8.14793528 Z M26.1706482,8.14793528 L27.2994056,8.14793528 L27.2994056,7.16238045 L26.1706482,7.16238045 L26.1706482,8.14793528 Z M27.4937378,8.14793528 L28.6224952,8.14793528 L28.6224952,7.16238045 L27.4937378,7.16238045 L27.4937378,8.14793528 Z M8.9729659,9.3267915 L10.1024326,9.3267915 L10.1024326,8.34123666 L8.9729659,8.34123666 L8.9729659,9.3267915 Z M10.2960555,9.3267915 L11.4251676,9.3267915 L11.4251676,8.34123666 L10.2960555,8.34123666 L10.2960555,9.3267915 Z M11.6187905,9.3267915 L12.7482572,9.3267915 L12.7482572,8.34123666 L11.6187905,8.34123666 L11.6187905,9.3267915 Z M12.94188,9.3267915 L14.0706375,9.3267915 L14.0706375,8.34123666 L12.94188,8.34123666 L12.94188,9.3267915 Z M14.264615,9.3267915 L15.3937271,9.3267915 L15.3937271,8.34123666 L14.264615,8.34123666 L14.264615,9.3267915 Z M15.5877046,9.3267915 L16.7164621,9.3267915 L16.7164621,8.34123666 L15.5877046,8.34123666 L15.5877046,9.3267915 Z M16.9104396,9.3267915 L18.0395517,9.3267915 L18.0395517,8.34123666 L16.9104396,8.34123666 L16.9104396,9.3267915 Z M18.2335291,9.3267915 L19.3622866,9.3267915 L19.3622866,8.34123666 L18.2335291,8.34123666 L18.2335291,9.3267915 Z M19.5562641,9.3267915 L20.6857308,9.3267915 L20.6857308,8.34123666 L19.5562641,8.34123666 L19.5562641,9.3267915 Z M20.8786444,9.3267915 L22.0084658,9.3267915 L22.0084658,8.34123666 L20.8786444,8.34123666 L20.8786444,9.3267915 Z M22.201734,9.3267915 L23.3312008,9.3267915 L23.3312008,8.34123666 L22.201734,8.34123666 L22.201734,9.3267915 Z M23.5248236,9.3267915 L24.6535811,9.3267915 L24.6535811,8.34123666 L23.5248236,8.34123666 L23.5248236,9.3267915 Z M24.8479132,9.3267915 L25.9766707,9.3267915 L25.9766707,8.34123666 L24.8479132,8.34123666 L24.8479132,9.3267915 Z M26.1706482,9.3267915 L27.2994056,9.3267915 L27.2994056,8.34123666 L26.1706482,8.34123666 L26.1706482,9.3267915 Z M27.4937378,9.3267915 L28.6224952,9.3267915 L28.6224952,8.34123666 L27.4937378,8.34123666 L27.4937378,9.3267915 Z M8.25485912,9.43014424 L8.77934304,9.34160657 L8.77934304,8.33735652 L8.25485912,8.3158394 L8.25485912,9.43014424 L8.25485912,9.43014424 Z M28.8164727,8.33735652 L28.8164727,9.34160657 L29.381738,9.4368463 L29.381738,8.3140757 L28.8164727,8.33735652 L28.8164727,8.33735652 Z M7.4175998,9.57124014 L8.06123625,9.46294904 L8.06123625,8.30807913 L7.4175998,8.28197638 L7.4175998,9.57124014 L7.4175998,9.57124014 Z M29.5757155,8.30666817 L29.5757155,9.46965109 L30.2186427,9.57794219 L30.2186427,8.28056543 L29.5757155,8.30666817 L29.5757155,8.30666817 Z M8.9729659,10.5049422 L10.1024326,10.5049422 L10.1024326,9.5193874 L8.9729659,9.5193874 L8.9729659,10.5049422 Z M10.2960555,10.5049422 L11.4251676,10.5049422 L11.4251676,9.5193874 L10.2960555,9.5193874 L10.2960555,10.5049422 Z M11.6187905,10.5049422 L12.7482572,10.5049422 L12.7482572,9.5193874 L11.6187905,9.5193874 L11.6187905,10.5049422 Z M12.94188,10.5049422 L14.0706375,10.5049422 L14.0706375,9.5193874 L12.94188,9.5193874 L12.94188,10.5049422 Z M14.264615,10.5049422 L15.3937271,10.5049422 L15.3937271,9.5193874 L14.264615,9.5193874 L14.264615,10.5049422 Z M15.5877046,10.5049422 L16.7164621,10.5049422 L16.7164621,9.5193874 L15.5877046,9.5193874 L15.5877046,10.5049422 Z M16.9104396,10.5049422 L18.0395517,10.5049422 L18.0395517,9.5193874 L16.9104396,9.5193874 L16.9104396,10.5049422 Z M18.2335291,10.5049422 L19.3622866,10.5049422 L19.3622866,9.5193874 L18.2335291,9.5193874 L18.2335291,10.5049422 Z M19.5562641,10.5049422 L20.6857308,10.5049422 L20.6857308,9.5193874 L19.5562641,9.5193874 L19.5562641,10.5049422 Z M20.8786444,10.5049422 L22.0084658,10.5049422 L22.0084658,9.5193874 L20.8786444,9.5193874 L20.8786444,10.5049422 Z M22.201734,10.5049422 L23.3312008,10.5049422 L23.3312008,9.5193874 L22.201734,9.5193874 L22.201734,10.5049422 Z M23.5248236,10.5049422 L24.6535811,10.5049422 L24.6535811,9.5193874 L23.5248236,9.5193874 L23.5248236,10.5049422 Z M24.8479132,10.5049422 L25.9766707,10.5049422 L25.9766707,9.5193874 L24.8479132,9.5193874 L24.8479132,10.5049422 Z M26.1706482,10.5049422 L27.2994056,10.5049422 L27.2994056,9.5193874 L26.1706482,9.5193874 L26.1706482,10.5049422 Z M27.4937378,10.5049422 L28.6224952,10.5049422 L28.6224952,9.5193874 L27.4937378,9.5193874 L27.4937378,10.5049422 Z M8.25485912,9.62556206 L8.25485912,10.7268155 L8.77934304,10.5342196 L8.77934304,9.53737712 L8.25485912,9.62556206 L8.25485912,9.62556206 Z M28.8164727,10.5342196 L29.381738,10.7423361 L29.381738,9.63261685 L28.8164727,9.53737712 L28.8164727,10.5342196 L28.8164727,10.5342196 Z M7.4175998,9.76665796 L7.4175998,11.0347573 L8.06123625,10.7984217 L8.06123625,9.65836686 L7.4175998,9.76665796 L7.4175998,9.76665796 Z M29.5757155,10.8132368 L30.2186427,11.0499251 L30.2186427,9.77371275 L29.5757155,9.66542165 L29.5757155,10.8132368 L29.5757155,10.8132368 Z M8.9729659,11.6834457 L10.1024326,11.6834457 L10.1024326,10.6978909 L8.9729659,10.6978909 L8.9729659,11.6834457 Z M10.2960555,11.6834457 L11.4251676,11.6834457 L11.4251676,10.6978909 L10.2960555,10.6978909 L10.2960555,11.6834457 Z M11.6187905,11.6834457 L12.7482572,11.6834457 L12.7482572,10.6978909 L11.6187905,10.6978909 L11.6187905,11.6834457 Z M12.94188,11.6834457 L14.0706375,11.6834457 L14.0706375,10.6978909 L12.94188,10.6978909 L12.94188,11.6834457 Z M14.264615,11.6834457 L15.3937271,11.6834457 L15.3937271,10.6978909 L14.264615,10.6978909 L14.264615,11.6834457 Z M15.5877046,11.6834457 L16.7164621,11.6834457 L16.7164621,10.6978909 L15.5877046,10.6978909 L15.5877046,11.6834457 Z M16.9104396,11.6834457 L18.0395517,11.6834457 L18.0395517,10.6978909 L16.9104396,10.6978909 L16.9104396,11.6834457 Z M18.2335291,11.6834457 L19.3622866,11.6834457 L19.3622866,10.6978909 L18.2335291,10.6978909 L18.2335291,11.6834457 Z M19.5562641,11.6834457 L20.6857308,11.6834457 L20.6857308,10.6978909 L19.5562641,10.6978909 L19.5562641,11.6834457 Z M20.8786444,11.6834457 L22.0084658,11.6834457 L22.0084658,10.6978909 L20.8786444,10.6978909 L20.8786444,11.6834457 Z M22.201734,11.6834457 L23.3312008,11.6834457 L23.3312008,10.6978909 L22.201734,10.6978909 L22.201734,11.6834457 Z M23.5248236,11.6834457 L24.6535811,11.6834457 L24.6535811,10.6978909 L23.5248236,10.6978909 L23.5248236,11.6834457 Z M24.8479132,11.6834457 L25.9766707,11.6834457 L25.9766707,10.6978909 L24.8479132,10.6978909 L24.8479132,11.6834457 Z M26.1706482,11.6834457 L27.2994056,11.6834457 L27.2994056,10.6978909 L26.1706482,10.6978909 L26.1706482,11.6834457 Z M27.4937378,11.6834457 L28.6224952,11.6834457 L28.6224952,10.6978909 L27.4937378,10.6978909 L27.4937378,11.6834457 Z M8.25485912,10.9328155 L8.25485912,12.0157265 L8.77934304,11.7240108 L8.77934304,10.7402196 L8.25485912,10.9328155 L8.25485912,10.9328155 Z M28.8164727,11.7240108 L29.381738,12.0386546 L29.381738,10.9479833 L28.8164727,10.7398669 L28.8164727,11.7240108 L28.8164727,11.7240108 Z M7.4175998,11.2404046 L7.4175998,12.4816957 L8.06123625,12.1233122 L8.06123625,11.004069 L7.4175998,11.2404046 L7.4175998,11.2404046 Z M29.5757155,12.146593 L30.2186427,12.5049766 L30.2186427,11.2555724 L29.5757155,11.0192368 L29.5757155,12.146593 L29.5757155,12.146593 Z M28.6941286,11.8763943 L8.90168716,11.8763943 L6.74240212,13.0788841 L6.74240212,12.858069 L7.22362232,12.5899868 L7.22362232,11.311658 L6.74240212,11.4883806 L6.74240212,11.2830861 L7.22362232,11.1060108 L7.22362232,9.79946275 L6.74240212,9.88059289 L6.74240212,9.68482234 L7.22362232,9.60404493 L7.22362232,8.27456885 L6.74240212,8.25481542 L6.74240212,8.06186679 L7.22362232,8.08126747 L7.22362232,6.73521262 L6.74240212,6.60999001 L6.74240212,6.41069206 L7.22362232,6.53626741 L7.22362232,5.18209954 L6.74240212,4.94541117 L6.74240212,4.73023993 L7.22362232,4.9669283 L7.22362232,3.61205495 L6.74240212,3.25790425 L6.74240212,3.01733575 L7.22362232,3.37183919 L7.22362232,2.02331516 L6.74240212,1.54464733 L6.74240212,1.40848979 L6.87999492,1.40848979 L7.40341498,1.92948638 L7.40341498,1.79368158 L8.55735052,1.79368158 L8.2218794,1.40848979 L8.47862474,1.40848979 L8.81374124,1.79368158 L10.1212275,1.79368158 L9.83717639,1.40848979 L10.0779638,1.40848979 L10.3616603,1.79368158 L11.683686,1.79368158 L11.4514095,1.40848979 L11.6776575,1.40848979 L11.909934,1.79368158 L13.2457899,1.79368158 L13.0649334,1.40848979 L13.2791243,1.40848979 L13.4596262,1.79368158 L14.80683,1.79368158 L14.6773934,1.40848979 L14.8816549,1.40848979 L15.0110914,1.79368158 L16.3653876,1.79368158 L16.2880803,1.40848979 L16.4859587,1.40848979 L16.563266,1.79368158 L17.9232361,1.79368158 L17.8969942,1.40848979 L18.0916809,1.40848979 L18.1172136,1.79368158 L19.4782476,1.79368158 L19.5041349,1.40848979 L19.6988216,1.40848979 L19.6732889,1.79368158 L21.0329044,1.79368158 L21.1102117,1.40848979 L21.30809,1.40848979 L21.2304281,1.79368158 L22.5850789,1.79368158 L22.7141609,1.40848979 L22.918777,1.40848979 L22.789695,1.79368158 L24.1361896,1.79368158 L24.3166915,1.40848979 L24.5305277,1.40848979 L24.3500258,1.79368158 L25.6855271,1.79368158 L25.9178037,1.40848979 L26.143697,1.40848979 L25.9114205,1.79368158 L27.2338008,1.79368158 L27.5182066,1.40848979 L27.7586394,1.40848979 L27.4749429,1.79368158 L28.7817199,1.79368158 L29.1175456,1.40848979 L29.374291,1.40848979 L29.0384652,1.79368158 L30.1920462,1.79368158 L30.1920462,1.9100857 L30.3338944,1.78874323 L30.7154662,1.40848979 L30.8527044,1.40848979 L30.8527044,1.54500007 L30.4133294,1.98239735 L30.4133294,3.34150357 L30.8527044,3.01768849 L30.8527044,3.25790425 L30.4133294,3.58171933 L30.4133294,4.94646939 L30.8527044,4.73023993 L30.8527044,4.94576391 L30.4133294,5.16199337 L30.4133294,6.52533247 L30.8527044,6.41069206 L30.8527044,6.60999001 L30.4133294,6.72463043 L30.4133294,8.07950377 L30.8527044,8.06151405 L30.8527044,8.25481542 L30.4133294,8.27280515 L30.4133294,9.61074699 L30.8527044,9.68482234 L30.8527044,9.88059289 L30.4133294,9.80651755 L30.4133294,11.1211786 L30.8527044,11.2827334 L30.8527044,11.4883806 L30.4133294,11.3271786 L30.4133294,12.6129149 L30.8527044,12.8577163 L30.8527044,13.0788841 L28.6941286,11.8763943 L28.6941286,11.8763943 Z" id="Fill-30"></path>
                            <polyline id="Fill-31" points="31.4456301 0.0437397279 5.37108412 0.0437397279 5.37108412 13.9420383 6.15018566 13.9420383 6.15018566 0.819061679 31.4456301 0.819061679 31.4456301 13.9420383 32.2250863 13.9420383 32.2250863 0.0437397279 31.4456301 0.0437397279"></polyline>
                        </g>
                        <g id="goal-icon-copy-5" transform="translate(14.861079, 16.609441)">
                            <circle id="Oval-340" fill="#FFFFFF" cx="4.37090549" cy="4.37090549" r="4.37090549"></circle>
                            <path d="M7.47948483,7.22149603 L7.34818894,6.58478328 C7.82029543,5.96583751 8.10079119,5.19536847 8.10079119,4.36095095 C8.10079119,4.32295987 8.10009281,4.28509481 8.09895,4.24735575 L8.57740542,3.80078738 C8.60210276,3.98412739 8.61511807,4.17105859 8.61511807,4.36095095 C8.61511807,5.46502319 8.18364473,6.47074706 7.47948483,7.22149603 L7.47948483,7.22149603 Z M2.66055117,8.16730377 L3.22298063,7.86442727 C3.5783223,7.96764281 3.95691949,8.02363968 4.34954581,8.02363968 C4.75405266,8.02363968 5.14345607,7.96425775 5.50808731,7.85496059 L6.08125981,8.15037849 C5.5527025,8.3674811 4.96638558,8.48842515 4.34954581,8.48842515 C3.74919975,8.48842515 3.17792308,8.3736201 2.66055117,8.16730377 L2.66055117,8.16730377 Z M0.253385825,4.42589846 C0.253385825,4.25727687 0.263495298,4.09105334 0.282653374,3.92748029 L0.759545916,4.37156344 C0.759358703,4.38967511 0.75885947,4.40778679 0.75885947,4.42589846 C0.75885947,5.27449673 1.04317279,6.0570852 1.52031495,6.68184335 L1.42302688,7.34818894 C0.699388312,6.5905908 0.253385825,5.55999228 0.253385825,4.42589846 L0.253385825,4.42589846 Z M3.54740156,0.253385825 L3.28251926,0.850949858 C2.5236894,1.0935466 1.87079987,1.57609012 1.41298406,2.20930231 L0.760157476,2.28047243 C1.34921843,1.25525672 2.35681608,0.500903901 3.54740156,0.253385825 L3.54740156,0.253385825 Z M7.2571262,6.28143451 L6.06275292,6.46133855 L5.19440942,5.2715905 L5.56861883,4.11377992 L6.98926975,3.54740156 L7.85496059,4.37920195 C7.84731107,5.08405868 7.62769592,5.73862165 7.2571262,6.28143451 L7.2571262,6.28143451 Z M1.73870878,3.54740156 L3.17041974,4.07261885 L3.54740156,5.22965786 L2.68305785,6.46133855 L1.53863325,6.31143575 C1.14183644,5.76490996 0.902255149,5.09796639 0.886850389,4.37682242 L1.73870878,3.54740156 L1.73870878,3.54740156 Z M7.09480311,2.27346587 L6.91306348,3.47331476 L5.45418292,4.05417321 L4.43425195,3.3103116 L4.43985177,1.70436001 L5.49980873,1.14023621 C6.13252484,1.36149129 6.6835981,1.75877956 7.09480311,2.27346587 L7.09480311,2.27346587 Z M3.23091281,1.14023621 L4.30755903,1.6733985 L4.3020028,3.21440871 L3.29215764,3.92748029 L1.83964495,3.40824686 L1.64700787,2.25884003 C2.0514763,1.75298321 2.59939654,1.36076623 3.23091281,1.14023621 L3.23091281,1.14023621 Z M4.43591133,7.85496059 C4.12439388,7.85496059 3.8221945,7.81513972 3.53416371,7.74086568 L2.91393699,6.680557 L3.79609111,5.44779525 L5.05601041,5.44779525 L5.9545669,6.6455421 L5.40422578,7.72313978 C5.09641003,7.80896062 4.77155368,7.85496059 4.43591133,7.85496059 L4.43591133,7.85496059 Z M7.9816535,2.28047243 L7.32673177,2.21477891 C6.86720941,1.58453375 6.22035058,1.10540302 5.47138267,0.86448381 L5.19440942,0.253385825 C6.37845903,0.496432497 7.38405396,1.25052187 7.9816535,2.28047243 L7.9816535,2.28047243 Z M4.37090549,0 C1.9608081,0 0,1.96075957 0,4.37087421 C0,6.78105141 1.9608081,8.74181098 4.37090549,8.74181098 C6.78100288,8.74181098 8.74181098,6.78105141 8.74181098,4.37087421 C8.74181098,1.96075957 6.78100288,0 4.37090549,0 L4.37090549,0 Z" id="Fill-36" fill="#242F29"></path>
                        </g>
                    </g>
                </g>
            </g>
        </g>
    </g>
</svg>