
<svg width="18px" height="18px" viewBox="0 0 18 18" version="1.1" xmlns="http://www.w3.org/2000/svg" xmlns:xlink="http://www.w3.org/1999/xlink">
    <defs>
        <polygon id="path-1" points="0 0 17.7858103 0 17.7858103 17.7858385 0 17.7858385"></polygon>
    </defs>
    <g id="Page-1" stroke="none" stroke-width="1" fill="none" fill-rule="evenodd">
        <g id="00_menu_notsignedin" transform="translate(-19.000000, -333.000000)">
            <g id="Group-4" transform="translate(0.000000, 48.000000)">
                <g id="Group-3" transform="translate(19.000000, 285.000000)">
                    <mask id="mask-2" fill="white">
                        <use xlink:href="#path-1"></use>
                    </mask>
                    <g id="Clip-2"></g>
                    <path d="M16.0530474,10.7244679 C16.0415945,10.7663366 16.030611,10.8084869 16.018501,10.850074 L15.7712316,10.7123579 C15.8097208,10.4969125 15.8529037,10.1709751 15.8554384,9.78429991 C15.8573159,9.45498295 15.8293409,9.12566598 15.7715133,8.80554887 C15.7520809,8.69824861 15.7287997,8.59263813 15.702796,8.48852966 C15.5879857,8.1130257 15.4321516,7.76155401 15.2362324,7.44106139 C15.2882397,7.3213695 15.3578957,7.13624605 15.4152539,6.89855205 C15.4795589,6.63081774 15.5425497,6.22677549 15.511289,5.73824485 C15.5727778,5.85868774 15.6306993,5.98100815 15.6855229,6.1047367 C15.6934084,6.00372614 15.6983839,5.8983034 15.6981961,5.78752974 C15.9255638,6.31248426 16.0925691,6.86419344 16.1952695,7.43139216 C16.2695254,7.84069146 16.30839,8.25590496 16.3134593,8.6713062 C16.3577688,9.37509448 16.3036024,10.0843276 16.1497396,10.7706549 L16.0530474,10.7244679 Z M13.7366574,14.7936165 C13.7524285,14.7202993 13.7660405,14.6386272 13.776273,14.5504777 C13.6103942,14.7012425 13.4382256,14.8457177 13.2582653,14.9820256 C13.3332722,14.7170137 13.3896917,14.3452648 13.3316763,13.8906234 C13.5074122,13.7744988 13.7693262,13.5859958 14.0640968,13.3236124 C14.4626942,12.9683857 15.0214441,12.383726 15.4428534,11.6022084 L15.5203011,11.6452975 C15.5843245,11.5288913 15.6460949,11.4083545 15.7039226,11.2827484 L15.9748487,11.4119218 C15.5534393,12.7276876 14.7814971,13.8930641 13.7366574,14.7936165 Z M13.1004598,13.2399689 C12.9872453,13.3181676 12.9020998,13.3706443 12.863329,13.3938316 C12.8004321,13.3934561 12.737723,13.3924235 12.6761403,13.3906399 C11.7391641,13.3634158 11.1490596,13.1816719 10.8189917,13.0340989 C10.6097421,12.940129 10.4739035,12.8493509 10.3936396,12.7857969 C10.386505,12.7080675 10.3711093,12.6039591 10.3455751,12.4615492 C10.2915025,12.1652766 10.1920878,11.7063169 10.0581268,11.1346121 C9.95824273,10.7066315 9.8391141,10.2143458 9.70393268,9.6709916 L11.2885594,7.99286444 L12.0355306,7.09465899 L12.0449182,7.09428349 C12.6157781,7.07485116 13.7966441,7.42388208 14.642279,7.73113819 C14.8687079,8.0888057 15.0357133,8.48233384 15.1393524,8.90139625 C15.2069431,9.17645289 15.2498444,9.46324404 15.2663666,9.75397797 C15.2964069,10.278557 15.2336039,10.6707709 15.2186776,10.7538511 C14.8422349,11.6778725 14.2218085,12.3634488 13.9724738,12.6155997 C13.6409977,12.951488 13.3268887,13.1753822 13.2424003,13.2334915 C13.1947113,13.2362139 13.1474917,13.2379975 13.1004598,13.2399689 Z M7.37233477,14.3278977 C7.20636203,14.270915 7.02527525,14.1830471 6.83395599,14.069551 C6.67474231,13.9936992 6.50529615,13.8925009 6.32758891,13.7648295 C5.91950999,13.4707161 5.28199816,12.9024847 4.55643065,11.8627143 C4.75300697,10.9839412 5.54306728,9.58556445 5.81098935,9.12726188 C6.47272119,9.23888042 8.34564101,9.58856848 9.06792286,9.82476046 C9.07205341,9.84118876 9.07627783,9.85818032 9.08040837,9.87479637 C9.13419931,9.88681249 9.18423521,9.89882862 9.22967119,9.91056312 C9.53073148,10.8565514 9.89487644,12.0589151 10.0378496,12.6364402 C10.0572819,12.7157654 10.0726776,12.7830745 10.0831917,12.8366777 C9.44680635,13.5653431 7.75215702,14.1935612 7.37233477,14.3278977 Z M4.9510853,5.66107878 C5.55996496,4.75968155 6.53758949,3.69634824 7.24625932,3.38730849 C7.46423937,3.37012918 7.6932029,3.36477825 7.92732961,3.37153732 C8.83323289,3.3978226 9.73115672,3.60040698 10.3899784,3.92671991 C10.3949538,3.92953619 10.4087536,3.94014418 10.4131658,3.94455635 C10.9857154,4.66636882 11.4125695,6.25794231 11.5399592,6.77322761 L10.7984328,7.55812474 L9.37330145,9.27164314 C8.54766214,9.06314458 6.59344571,8.82789135 5.92720782,8.76039452 C5.6352535,8.29345535 5.27589622,7.36980951 4.85880521,6.01452188 C4.89926576,5.94571078 4.94216708,5.87567929 4.98619492,5.80517842 C4.97446042,5.75730167 4.9628198,5.71017593 4.9510853,5.66107878 Z M6.60705772,1.88632532 C6.87544917,1.80596748 7.15031806,1.74016041 7.42518696,1.69050001 C7.67076654,1.64590892 7.92057054,1.61333395 8.16755827,1.59343224 C8.4324763,1.57212239 8.70180651,1.56526944 8.96860207,1.57306115 C10.2596785,1.61042379 11.5185555,1.98236046 12.6216923,2.65056974 C12.5739094,2.65132074 12.5250939,2.65347989 12.4752457,2.65761043 C12.1605734,2.68286308 11.790702,2.77824108 11.3755824,2.94111592 C11.0422288,3.07244842 10.7552499,3.21823783 10.6012932,3.30066095 C10.5538859,3.27803684 10.5069479,3.25672699 10.4601038,3.23560489 C10.4183289,3.26038815 10.3802153,3.28348164 10.3489546,3.3028201 C9.34598354,2.89793296 8.47209197,2.82255055 7.91390535,2.83099938 C7.87691821,2.83156264 7.83993107,2.8325014 7.80322556,2.83362791 C7.61575521,2.84010535 7.43232153,2.85615815 7.2580877,2.88103529 C7.1943459,2.89042288 7.13173062,2.90065537 7.07193161,2.91220211 C6.83714777,2.58448104 6.56913182,2.3262282 6.27361022,2.14288839 C6.42681583,2.08628117 6.58246221,2.03511876 6.73942287,1.98855627 C6.69595828,1.9528834 6.65202432,1.91833703 6.60705772,1.88632532 Z M14.3076111,4.4987063 C14.6131775,4.88650801 14.7649749,5.21329032 14.7888194,5.26661188 C14.7893827,5.26905266 14.7900398,5.27215057 14.7906031,5.27468522 C14.8606346,5.41568695 14.8983727,5.51294248 14.9086052,5.54026039 C14.9106705,5.55255814 14.9130174,5.56964357 14.9156459,5.58729226 C14.9993833,6.20593502 14.9042869,6.70385325 14.8099415,7.01261138 C14.7776482,7.1172831 14.7395345,7.21913855 14.6963516,7.31620632 C14.046542,7.03823952 12.9052916,6.59307959 12.1569122,6.54172942 C12.1491205,6.51037484 12.1402962,6.47582848 12.1312841,6.44034336 C12.1229291,6.44024948 12.1140109,6.43949847 12.1057498,6.43949847 C11.9240059,5.86713658 11.4671115,4.5530605 10.8751295,3.75079631 C11.2060424,3.5596648 11.7850695,3.26066978 12.2750082,3.18998116 C12.4002388,3.17205085 12.5127022,3.17064271 12.6040436,3.18613225 C12.6134312,3.18772814 12.6539856,3.20068302 12.6766097,3.21091551 C13.4706128,3.57130542 14.0017631,4.11005972 14.3076111,4.4987063 Z M8.89293802,-1.87751975e-05 C3.98144023,-1.87751975e-05 -2.81627963e-05,3.98154349 -2.81627963e-05,8.89285353 C-2.81627963e-05,13.8043513 3.98144023,17.7859136 8.89293802,17.7859136 C13.8043419,17.7859136 17.7858103,13.8043513 17.7858103,8.89285353 C17.7858103,3.98154349 13.8043419,-1.87751975e-05 8.89293802,-1.87751975e-05 Z" id="Fill-1" fill="#FEFEFE" mask="url(#mask-2)"></path>
                </g>
            </g>
        </g>
    </g>
</svg>