
<svg width="22px" height="20px" viewBox="0 0 22 20" version="1.1" xmlns="http://www.w3.org/2000/svg" xmlns:xlink="http://www.w3.org/1999/xlink">
    <g id="Page-1" stroke="none" stroke-width="1" fill="none" fill-rule="evenodd">
        <g id="01_2_contest_info" transform="translate(-317.000000, -642.000000)" fill="#FFC531">
            <g id="Group-23-Copy" transform="translate(0.000000, 635.000000)">
                <g id="prizes-icon-copy-11" transform="translate(317.000000, 7.000000)">
                    <path d="M19.6609968,7.63959682 C18.7621117,8.73526731 17.4321508,9.42718036 15.6993585,9.70885365 C17.0591073,7.66691527 17.649155,4.8225553 17.9044359,2.73987076 L20.9904947,2.73987076 C21.0590223,3.61575891 21.077852,5.91266949 19.6609968,7.63959682 L19.6609968,7.63959682 Z M2.22148479,7.63959682 C0.804475246,5.91266949 0.823459253,3.61575891 0.891832549,2.73987076 L3.97804569,2.73987076 C4.23332657,4.8225553 4.82321988,7.66691527 6.18312306,9.70885365 C4.45033076,9.42718036 3.12036983,8.73526731 2.22148479,7.63959682 L2.22148479,7.63959682 Z M21.7418292,1.87710163 L17.9967321,1.87710163 C18.0996779,0.749328105 18.0998322,0 18.0998322,0 L3.78249498,0 C3.78249498,0 3.78280366,0.749328105 3.88574946,1.87710163 L0.140652346,1.87710163 L0.0801504677,2.23687173 C0.0565362143,2.37732251 -0.47517034,5.70662356 1.54948179,8.18087255 C2.74099836,9.63677616 4.5542026,10.4711464 6.94202034,10.6691666 C7.76219121,11.5354856 8.79473601,12.1327873 10.0961438,12.2619712 L10.0961438,17.4875593 L7.53376575,17.7167565 C7.53376575,17.7167565 6.04514174,17.9376192 5.75451664,19.9976155 L16.1278106,19.9976155 C15.8373398,17.9376192 14.3487158,17.7167565 14.3487158,17.7167565 L11.7863378,17.4875593 L11.7863378,12.2619712 C13.0877455,12.1327873 14.1202903,11.5354856 14.9404612,10.6691666 C17.3282789,10.4711464 19.1414832,9.63677616 20.3329998,8.18087255 C22.3576519,5.70662356 21.8259453,2.37732251 21.8023311,2.23687173 L21.7418292,1.87710163 Z" id="Fill-28"></path>
                </g>
            </g>
        </g>
    </g>
</svg>