<?xml version="1.0" encoding="UTF-8"?>
<svg width="128px" height="128px" viewBox="0 0 128 128" version="1.1" xmlns="http://www.w3.org/2000/svg" xmlns:xlink="http://www.w3.org/1999/xlink">
    <!-- Generator: Sketch 64 (93537) - https://sketch.com -->
    <title>about</title>
    <desc>Created with Sketch.</desc>
    <g id="about" stroke="none" stroke-width="1" fill="none" fill-rule="evenodd">
        <g id="Group" transform="translate(14.000000, 14.000000)" fill="#fff" fill-rule="nonzero">
            <path d="M50,0.422535211 C22.6191223,0.422535211 0.422535211,22.6191223 0.422535211,50 C0.422535211,77.3808777 22.6191223,99.5774648 50,99.5774648 C77.3808777,99.5774648 99.5774648,77.3808777 99.5774648,50 C99.5774648,22.6191223 77.3808777,0.422535211 50,0.422535211 Z M50,9.43661972 C72.4025363,9.43661972 90.5633803,27.5974637 90.5633803,50 C90.5633803,72.4025363 72.4025363,90.5633803 50,90.5633803 C27.5974637,90.5633803 9.43661972,72.4025363 9.43661972,50 C9.43661972,27.5974637 27.5974637,9.43661972 50,9.43661972 Z" id="Oval"></path>
            <path d="M53.7382812,58.9921875 C53.7903646,57.0130208 54.0638021,55.3789062 54.5585938,54.0898438 C55.0533854,52.8007812 55.9388021,51.5442708 57.2148438,50.3203125 L57.2148438,50.3203125 L61.7070312,46.140625 C63.6080729,44.2916667 64.9882812,42.4817708 65.8476562,40.7109375 C66.7070312,38.9401042 67.1367188,36.9739583 67.1367188,34.8125 C67.1367188,29.8645833 65.5416667,26.0494792 62.3515625,23.3671875 C59.1614583,20.6848958 54.6627604,19.34375 48.8554688,19.34375 C43.0221354,19.34375 38.4908854,20.7955729 35.2617188,23.6992188 C32.0325521,26.6028646 30.3919271,30.6588542 30.3398438,35.8671875 L30.3398438,35.8671875 L43.5429688,35.8671875 C43.5950521,33.9140625 44.1028646,32.3645833 45.0664062,31.21875 C46.0299479,30.0729167 47.2929688,29.5 48.8554688,29.5 C52.2408854,29.5 53.9335938,31.4661458 53.9335938,35.3984375 C53.9335938,37.0130208 53.4322917,38.4908854 52.4296875,39.8320312 C51.4270833,41.1731771 49.9622396,42.6510417 48.0351562,44.265625 C46.1080729,45.8802083 44.7148438,47.7877604 43.8554688,49.9882812 C42.9960938,52.1888021 42.5664062,55.1901042 42.5664062,58.9921875 L42.5664062,58.9921875 L53.7382812,58.9921875 Z M48.2695312,77.46875 C50.3528646,77.46875 52.0911458,76.8502604 53.484375,75.6132812 C54.8776042,74.3763021 55.5742188,72.7942708 55.5742188,70.8671875 C55.5742188,68.9401042 54.8776042,67.3580729 53.484375,66.1210938 C52.0911458,64.8841146 50.3528646,64.265625 48.2695312,64.265625 C46.1861979,64.265625 44.4479167,64.8841146 43.0546875,66.1210938 C41.6614583,67.3580729 40.9648438,68.9401042 40.9648438,70.8671875 C40.9648438,72.7942708 41.6614583,74.3763021 43.0546875,75.6132812 C44.4479167,76.8502604 46.1861979,77.46875 48.2695312,77.46875 Z" id="?"></path>
        </g>
    </g>
</svg>