
<svg width="18px" height="30px" viewBox="0 0 18 30" version="1.1" xmlns="http://www.w3.org/2000/svg" xmlns:xlink="http://www.w3.org/1999/xlink">
    <g id="tablet_vertical" stroke="none" stroke-width="1" fill="none" fill-rule="evenodd">
        <g id="00_main_not_signed_in" transform="translate(-378.000000, -62.000000)" fill="#000" fill-rule="nonzero">
            <g id="Group-15" transform="translate(20.000000, 62.000000)">
                <path d="M371.327204,2.82158819 L362.979572,2.82158819 L361.683456,-5.68434189e-14 L375.926919,-5.68434189e-14 L368.804036,15.5014182 L367.153388,11.9054859 L371.327204,2.82158819 Z M366.801157,16.5361573 C366.405186,16.5361573 366.018423,16.5703635 365.640869,16.6302245 L358,-5.68434189e-14 L361.257556,-5.68434189e-14 L368.428784,15.6104506 L367.961446,16.6302245 C367.583892,16.5703635 367.197129,16.5361573 366.801157,16.5361573 Z M366.614682,29.3576974 C363.481443,29.3576974 360.94216,26.818415 360.94216,23.6874775 C360.94216,20.5542379 363.481443,18.0149555 366.614682,18.0149555 C369.747922,18.0149555 372.284902,20.5542379 372.284902,23.6874775 C372.284902,26.818415 369.747922,29.3576974 366.614682,29.3576974 Z M366.614682,17.374955 C363.12691,17.374955 360.30216,20.1997052 360.30216,23.6874775 C360.30216,27.1729476 363.12691,30 366.614682,30 C370.100153,30 372.927205,27.1729476 372.927205,23.6874775 C372.927205,20.1997052 370.100153,17.374955 366.614682,17.374955 L366.614682,17.374955 Z M366.619287,18.526035 C369.471663,18.526035 371.783031,20.8397057 371.783031,23.6920818 C371.783031,26.544458 369.471663,28.8558265 366.619287,28.8558265 C363.766911,28.8558265 361.45324,26.544458 361.45324,23.6920818 C361.45324,20.8397057 363.766911,18.526035 366.619287,18.526035 Z M368.242309,24.2330894 C368.428784,23.6575494 370.134685,23.3007146 369.94821,22.7251747 C369.759433,22.1473325 368.315979,22.6353904 367.825619,22.2785556 C367.335258,21.9217208 367.376697,20.4736623 366.771229,20.4184104 C366.168063,20.3631586 366.179574,21.9217208 365.689214,22.2785556 C365.198854,22.6353904 363.783026,22.1473325 363.596551,22.7251747 C363.407774,23.3007146 364.987055,23.6575494 365.17353,24.2330894 C365.362307,24.8109315 364.319429,26.1024433 364.809789,26.4569759 C365.300149,26.8138107 366.165761,25.3841694 366.771229,25.3841694 C367.379,25.3841694 368.244612,26.8138107 368.734972,26.4569759 C369.225332,26.1024433 368.053532,24.8109315 368.242309,24.2330894 Z" id="achievements-icon"></path>
            </g>
        </g>
    </g>
</svg>