<svg xmlns="http://www.w3.org/2000/svg" viewBox="0 0 256 208.32"><defs><style>.cls-1{fill:#000;}</style></defs><title>Asset 1</title><g id="Layer_2" data-name="Layer 2"><g id="Layer_1-2" data-name="Layer 1"><path class="cls-1" d="M252.69,74.66c-.39.25-.78.49-1.19.72l-5.87,3.39,1.35.78A4.2,4.2,0,0,1,248.71,81c0,.36-.81,2-4,3.8l-127.13,73.4a28.58,28.58,0,0,1-13.91,3.41,20.53,20.53,0,0,1-9.83-2.12L9,110.53a4.3,4.3,0,0,1-1.73-1.48c0-.33.67-1.69,3.11-3.28l-6.78-3.92c-5.28,5-4.85,11.19,1.75,15l84.86,49c3.6,2.08,8.43,3.1,13.48,3.1a36.1,36.1,0,0,0,17.56-4.38L248.4,91.16C256.7,86.37,258.31,79.36,252.69,74.66Z"/><path class="cls-1" d="M253.15,95.49c-.53.35-1.08.7-1.65,1l-5.24,3,.72.42a4.2,4.2,0,0,1,1.73,1.49c0,.35-.81,2-4,3.8l-127.13,73.4a28.58,28.58,0,0,1-13.91,3.41,20.52,20.52,0,0,1-9.83-2.13L9,131a4.2,4.2,0,0,1-1.73-1.49c0-.29.57-1.46,2.54-2.88l-6.67-3.85c-4.79,4.93-4.19,10.84,2.21,14.54l84.86,49c3.6,2.08,8.43,3.1,13.48,3.1A36.11,36.11,0,0,0,121.27,185l127.13-73.4C256.46,106.92,258.21,100.17,253.15,95.49Z"/><path class="cls-1" d="M253.15,114.45c-.53.35-1.08.7-1.65,1l-5.24,3,.72.42a4.3,4.3,0,0,1,1.73,1.48c0,.36-.81,2-4,3.81l-127.13,73.4A28.7,28.7,0,0,1,103.71,201a20.52,20.52,0,0,1-9.83-2.13L9,149.91a4.2,4.2,0,0,1-1.73-1.49c0-.29.57-1.46,2.54-2.88l-6.67-3.85c-4.79,4.93-4.19,10.84,2.21,14.54l84.86,49c3.6,2.08,8.43,3.1,13.48,3.1a36.11,36.11,0,0,0,17.56-4.39l127.13-73.4C256.46,125.88,258.21,119.13,253.15,114.45Z"/><path class="cls-1" d="M152.29,7.29h0a20.52,20.52,0,0,1,9.83,2.13l84.86,49a4.2,4.2,0,0,1,1.73,1.49c0,.36-.81,2-4,3.8L117.62,137.1a28.58,28.58,0,0,1-13.91,3.41,20.53,20.53,0,0,1-9.83-2.12L9,89.39A4.2,4.2,0,0,1,7.29,87.9c0-.35.81-2,4-3.8L138.38,10.7a28.7,28.7,0,0,1,13.91-3.41m0-7.29a36.11,36.11,0,0,0-17.56,4.39L7.6,77.79c-9.19,5.3-10.18,13.32-2.23,17.92l84.86,49c3.6,2.08,8.43,3.1,13.48,3.1a36.11,36.11,0,0,0,17.56-4.39L248.4,70c9.19-5.3,10.18-13.32,2.23-17.92l-84.86-49C162.17,1,157.34,0,152.29,0Z"/><path class="cls-1" d="M160,91.35l.36-.22c4.88-3,8.47-6.62,10.44-10.62,3.33-6.75,1.65-14.11-4.62-20.15A35.18,35.18,0,0,0,158.84,55a50.48,50.48,0,0,0-8-3.52,74,74,0,0,0-35.16-2.63A58,58,0,0,0,97.36,55l-.21.11-.25.14-.25.15C91,58.68,86.92,62.79,85,67.28a16.37,16.37,0,0,0-1,3,14.74,14.74,0,0,0,.06,6.8A16.2,16.2,0,0,0,85,79.78c2,4.49,6,8.6,11.68,11.89a58.21,58.21,0,0,0,20.58,6.73c1.17.17,2.36.32,3.56.43a76.37,76.37,0,0,0,12.92.14l.38,0c1.42-.1,3.12-.28,4.8-.53a58.35,58.35,0,0,0,20.58-6.73ZM138.78,77.4l-12.4,4.49-12.8-7.39,7.78-7.16,14.3,1.8ZM115.5,65l-8.56,7.88-10.31.74L91.3,69.86a13.67,13.67,0,0,1,.58-1.58c1.54-3.57,4.67-6.86,9.06-9.54l8.44.21Zm27.35,15.77,10.46,3.54.36,4.88a49.58,49.58,0,0,1-16.51,5.23c-.91.13-1.82.24-2.74.33l-6.52-3.08,1.29-6Zm14,0-10.94-3.71-3.4-9,10.11-5.83,8.24,1.06c4.33,4.63,5.57,10.08,3.46,15.21Zm-11.1-26.18,1.83,4.75-10.1,5.84-15.59-2-6.39-6.31,3.9-4.31A62.19,62.19,0,0,1,145.78,54.58ZM107.77,77l14.35,8.28-1.28,5.94-7.62,2.11a44.88,44.88,0,0,1-11.54-4.53,26,26,0,0,1-7.86-6.66l3.67-4.4Z"/></g></g></svg>