
<svg width="18px" height="16px" viewBox="0 0 18 16" version="1.1" xmlns="http://www.w3.org/2000/svg" xmlns:xlink="http://www.w3.org/1999/xlink">
    <g id="Page-1" stroke="none" stroke-width="1" fill="none" fill-rule="evenodd">
        <g id="06_contest_gameplay" transform="translate(-87.000000, -371.000000)" fill="#FFFFFF">
            <g id="Group-15" transform="translate(0.000000, 48.000000)">
                <g id="Group-13">
                    <g id="Group-5" transform="translate(10.000000, 315.000000)">
                        <g id="shot-on-target" transform="translate(77.000000, 5.000000)">
                            <g id="Group" transform="translate(12.290950, 10.162088) scale(-1, 1) rotate(-45.000000) translate(-12.290950, -10.162088) translate(2.745496, 6.071179)">
                                <path d="M2.45431791,7.01340095 C2.7491965,7.05211302 3.08696458,7.0822224 3.4719004,7.10480444 L3.41564137,7.41880228 C3.41799441,7.42740496 3.41970571,7.43600764 3.41981266,7.44461032 C3.42088223,7.55644517 3.22344085,7.64892399 2.97872477,7.65107466 C2.7340087,7.65430067 2.53474906,7.56504785 2.5336795,7.453213 C2.53357255,7.44461032 2.53506993,7.43600764 2.53731602,7.42740496 L2.45431791,7.01340095 Z M5.07196704,7.15749586 C5.39893253,7.1617972 5.74825189,7.16287253 6.12174338,7.1617972 L6.041847,7.60591059 C6.044307,7.61451327 6.04591134,7.62311595 6.0460183,7.63171863 C6.04719482,7.74355348 5.84964648,7.8360323 5.60503737,7.8392583 C5.36032129,7.84140897 5.16106166,7.75215616 5.15988514,7.64032131 C5.15988514,7.63171863 5.16138253,7.62311595 5.16362861,7.6155886 L5.07196704,7.15749586 Z M14.3832639,7.00372294 C14.7537606,7.02522964 15.1142035,7.03598299 15.4575333,7.03275699 L15.3683317,7.52848646 C15.3707917,7.53708914 15.372396,7.54569182 15.372503,7.5542945 C15.3736795,7.66612935 15.1762381,7.75860817 14.9315221,7.76183417 C14.686806,7.76398484 14.4875463,7.67473203 14.4864768,7.56289718 C14.4863698,7.5542945 14.4878672,7.54569182 14.4901133,7.53816448 L14.3832639,7.00372294 Z M16.3082639,6.98974358 C16.7282814,6.94888085 17.1048746,6.87575806 17.4215723,6.76499855 L17.290016,7.49730174 C17.292476,7.50590442 17.2940804,7.5145071 17.2941873,7.52310979 C17.2953638,7.63494463 17.0979224,7.72742345 16.8532064,7.72957412 C16.6084903,7.73280013 16.4092307,7.64354731 16.4080541,7.53171247 C16.4080541,7.52310979 16.4095515,7.5145071 16.4117976,7.50590442 L16.3082639,6.98974358 Z M18.2931594,3.90568256 C18.4153035,4.44872677 18.4762686,4.98854499 18.4546634,5.42298036 C18.3758366,7.00909961 15.526841,7.00157227 12.6861879,6.65746504 C11.260567,6.48433609 10.2623436,6.49831545 9.49867547,6.57681491 L18.2931594,3.90568256 Z M17.3495907,1.72597834 C17.5022174,1.90125796 17.6450041,2.13030433 17.7742073,2.39053542 L8.42847047,6.74349185 C7.8947584,6.85102536 7.47741481,6.95855887 7.01493566,6.96393554 C0.844732153,7.042435 -0.293497071,6.52519883 0.0902622279,5.4455624 C0.275403629,4.92402488 2.63314888,4.27989917 5.01164367,3.36693968 L6.47587577,4.8111147 L11.3227087,2.26687188 L10.9801275,0.222659887 C11.2228114,0.150612436 11.4674206,0.0957703464 11.7071097,0.0667362991 C11.684435,0.275351306 11.662188,0.495794998 11.7476461,0.688279979 C12.340612,2.02599683 14.6849877,3.4626445 17.3495907,1.72597834 Z M10.7994783,2.00556546 L6.56165475,4.22935842 L5.49209149,3.17553003 C6.5176957,2.748622 7.59057461,2.19052309 8.59115104,1.43026119 C8.97148774,1.14099605 9.7114116,0.685053974 10.5263119,0.375357469 L10.7994783,2.00556546 Z" id="Fill-375"></path>
                            </g>
                            <path d="M2.80355219,15.8595581 L10.6534983,15.8595581 L10.6534983,16.4202685 L2.80355219,16.4202685 L2.80355219,15.8595581 Z M0,12.4952955 L7.84994613,12.4952955 L7.84994613,13.0560059 L0,13.0560059 L0,12.4952955 Z M0.560710438,7.44890155 L2.80355219,7.44890155 L2.80355219,8.00961198 L0.560710438,8.00961198 L0.560710438,7.44890155 Z" id="Rectangle-266"></path>
                        </g>
                    </g>
                </g>
            </g>
        </g>
    </g>
</svg>