<?xml version="1.0" encoding="UTF-8"?>
<svg width="20px" height="20px" viewBox="0 0 20 20" version="1.1" xmlns="http://www.w3.org/2000/svg" xmlns:xlink="http://www.w3.org/1999/xlink">
    <!-- Generator: Sketch 64 (93537) - https://sketch.com -->
    <title>JOINED_ICON</title>
    <desc>Created with Sketch.</desc>
    <g id="JOINED_ICON" stroke="none" stroke-width="1" fill="none" fill-rule="evenodd">
        <g id="Group-5" fill-rule="nonzero">
            <path d="M10,0 C4.4771525,0 0,4.4771525 0,10 C0,15.5228475 4.4771525,20 10,20 C15.5228475,20 20,15.5228475 20,10 C20,4.4771525 15.5228475,0 10,0 Z" id="Path" fill="#40FA98"></path>
            <path d="M10,0 C15.5228475,0 20,4.4771525 20,10 C20,15.5228475 15.5228475,20 10,20 C4.4771525,20 0,15.5228475 0,10 C0,4.4771525 4.4771525,0 10,0 Z M10,1 C5.02943725,1 1,5.02943725 1,10 C1,14.9705627 5.02943725,19 10,19 C14.9705627,19 19,14.9705627 19,10 C19,5.02943725 14.9705627,1 10,1 Z" id="Oval" fill="#178A42"></path>
            <path d="M14.8342822,6.369738 C14.3708737,5.876754 13.6176919,5.876754 13.1542833,6.369738 L8.87792254,10.9367307 L7.02755528,8.96060794 C6.79576934,8.71306927 6.49211179,8.58938715 6.18845424,8.58938715 C5.8829999,8.58938715 5.57934234,8.71306927 5.3475564,8.96060794 C4.88414787,9.45551085 4.88414787,10.2598807 5.3475564,10.7547836 L8.03865815,13.6287792 C8.26342028,13.8668978 8.56005401,14 8.8777592,14 C9.19546438,14 9.4938949,13.8668978 9.71865703,13.6287792 L14.8341188,8.16373925 C15.2976907,7.67075524 15.2976907,6.86464091 14.8342822,6.369738 Z" id="Path" fill="#178A42"></path>
        </g>
    </g>
</svg>