
<svg width="44px" height="30px" viewBox="0 0 44 30" version="1.1" xmlns="http://www.w3.org/2000/svg" xmlns:xlink="http://www.w3.org/1999/xlink">
    <g id="Page-1" stroke="none" stroke-width="1" fill="none" fill-rule="evenodd">
        <g id="18_messages" transform="translate(-25.000000, -154.000000)" fill="#FFFFFF" fill-rule="nonzero">
            <g id="Group-4" transform="translate(0.000000, 90.000000)">
                <g id="Group" transform="translate(0.000000, 64.000000)">
                    <g id="noun_Mail_1150803" transform="translate(25.000000, 0.000000)">
                        <path d="M39.9310345,0.0517241379 L3.51724138,0.0517241379 C1.55172414,0.0517241379 0,1.65517241 0,3.56896552 L0,26.4310345 C0,28.3965517 1.60344828,29.9482759 3.51724138,29.9482759 L39.9310345,29.9482759 C41.8965517,29.9482759 43.4482759,28.3448276 43.4482759,26.4310345 L43.4482759,3.56896552 C43.4482759,1.60344828 41.8448276,0.0517241379 39.9310345,0.0517241379 Z M2.06896552,26.4310345 L2.06896552,3.56896552 C2.06896552,3.36206897 2.12068966,3.20689655 2.17241379,3 C2.17241379,3 2.22413793,3.05172414 2.22413793,3.05172414 L13.9655172,14.7931034 L2.06896552,26.6896552 C2.06896552,26.637931 2.06896552,26.5344828 2.06896552,26.4310345 Z M24.0517241,17.3275862 C22.7586207,18.6206897 20.6896552,18.6206897 19.3965517,17.3275862 L4.18965517,2.12068966 L39.2586207,2.12068966 L24.0517241,17.3275862 Z M15.4655172,16.2931034 L18,18.8275862 C19.0344828,19.862069 20.3793103,20.3793103 21.7758621,20.3793103 C23.1724138,20.3793103 24.5172414,19.862069 25.5517241,18.8275862 L27.9310345,16.4482759 L39.4137931,27.9310345 L3.82758621,27.9310345 L15.4655172,16.2931034 Z M29.3275862,14.9482759 L41.2241379,3.05172414 C41.2241379,3.05172414 41.2758621,3 41.2758621,3 C41.3275862,3.15517241 41.3793103,3.36206897 41.3793103,3.56896552 L41.3793103,26.4310345 C41.3793103,26.5862069 41.3275862,26.7413793 41.2758621,26.8965517 L29.3275862,14.9482759 Z" id="Shape"></path>
                    </g>
                </g>
            </g>
        </g>
    </g>
</svg>