
<svg width="30px" height="22px" viewBox="0 0 30 22" version="1.1" xmlns="http://www.w3.org/2000/svg" xmlns:xlink="http://www.w3.org/1999/xlink">
    <g id="Page-1" stroke="none" stroke-width="1" fill="none" fill-rule="evenodd">
        <g id="06_contest_gameplay" transform="translate(-298.000000, -641.000000)" fill="#FFC531" fill-rule="nonzero">
            <g id="Group-9" transform="translate(0.000000, 635.000000)">
                <g id="Group-23-Copy">
                    <g id="Group-Copy-2" transform="translate(298.000000, 6.000000)">
                        <g id="Leaders-icon">
                            <path d="M0,6.90885031 C0,5.80560109 0.895628817,4.91124089 2.00033662,4.91124089 L7.16633004,4.91124089 C8.27108545,4.91124089 9.16666667,5.80900967 9.16666667,6.90885031 L9.16666667,19.6118505 C9.16666667,20.7150997 8.27103785,21.6094599 7.16633004,21.6094599 L2.00033662,21.6094599 C0.895581212,21.6094599 0,20.7116911 0,19.6118505 L0,6.90885031 Z M3.52272727,13.1212121 L4.84090909,13.1212121 L4.84090909,12.8939394 C4.84090909,12.7424235 4.85227261,12.61995 4.875,12.5265152 C4.89772739,12.4330803 4.92803011,12.3611114 4.96590909,12.3106061 C5.00378807,12.2601008 5.04545432,12.2260102 5.09090909,12.2083333 C5.13636386,12.1906565 5.18434318,12.1818182 5.23484848,12.1818182 C5.34596015,12.1818182 5.43434311,12.224747 5.5,12.3106061 C5.56565689,12.3964651 5.59848485,12.5530292 5.59848485,12.780303 C5.59848485,12.9823242 5.56944473,13.1452014 5.51136364,13.2689394 C5.45328254,13.3926774 5.35606129,13.5227266 5.21969697,13.6590909 L4.28030303,14.6136364 C3.97222068,14.9318198 3.7613642,15.2588367 3.64772727,15.594697 C3.53409034,15.9305572 3.47727273,16.2878769 3.47727273,16.6666667 L7.00757576,16.6666667 L7.00757576,15.6060606 L5.15909091,15.6060606 C5.18434356,15.5252521 5.23358549,15.4469701 5.30681818,15.3712121 C5.38005087,15.2954542 5.44696939,15.227273 5.50757576,15.1666667 L6.34090909,14.3560606 C6.5429303,14.1540394 6.70454485,13.9292942 6.82575758,13.6818182 C6.9469703,13.4343422 7.00757576,13.1287897 7.00757576,12.7651515 C7.00757576,12.5631303 6.9835861,12.3737383 6.93560606,12.1969697 C6.88762602,12.0202011 6.79924307,11.8648997 6.67045455,11.7310606 C6.54166602,11.5972216 6.36616273,11.4924246 6.14393939,11.4166667 C5.92171606,11.3409087 5.63384015,11.3030303 5.28030303,11.3030303 C4.91161432,11.3030303 4.6136375,11.3459592 4.38636364,11.4318182 C4.15908977,11.5176772 3.98232386,11.6401507 3.85606061,11.7992424 C3.72979735,11.9583341 3.64393962,12.1502514 3.59848485,12.375 C3.55303008,12.5997486 3.5277778,12.8484835 3.52272727,13.1212121 Z" id="Combined-Shape"></path>
                            <path d="M10.3448276,1.99423238 C10.3448276,0.892848251 11.2404564,2.25597319e-13 12.3451642,2.25597319e-13 L17.5111576,2.25597319e-13 C18.615913,2.25597319e-13 19.5114943,0.901019606 19.5114943,1.99423238 L19.5114943,19.6152275 C19.5114943,20.7166117 18.6158654,21.6094599 17.5111576,21.6094599 L12.3451642,21.6094599 C11.2404088,21.6094599 10.3448276,20.7084403 10.3448276,19.6152275 L10.3448276,1.99423238 Z M14.719697,12.5 L16.1287879,12.5 L16.1287879,7.13636364 L15.1136364,7.13636364 C15.0681816,7.29293008 15.0101014,7.42550451 14.9393939,7.53409091 C14.8686865,7.64267731 14.7777783,7.72853504 14.6666667,7.79166667 C14.555555,7.8547983 14.421718,7.90025239 14.2651515,7.9280303 C14.1085851,7.95580822 13.9217183,7.96969697 13.7045455,7.96969697 L13.7045455,8.84848485 L14.719697,8.84848485 L14.719697,12.5 Z" id="Combined-Shape"></path>
                            <path d="M20.6896552,9.85756787 C20.6896552,8.75322898 21.585284,7.85798542 22.6899918,7.85798542 L27.8559852,7.85798542 C28.9607406,7.85798542 29.8563218,8.76025807 29.8563218,9.85756787 L29.8563218,19.6098774 C29.8563218,20.7142163 28.960693,21.6094599 27.8559852,21.6094599 L22.6899918,21.6094599 C21.5852364,21.6094599 20.6896552,20.7071873 20.6896552,19.6098774 L20.6896552,9.85756787 Z M23.5378788,14.5909091 L24.8106061,14.5909091 C24.8106061,14.3080794 24.8396462,14.1136369 24.8977273,14.0075758 C24.9558084,13.9015146 25.0530296,13.8484848 25.1893939,13.8484848 C25.3106067,13.8484848 25.4002522,13.8876259 25.4583333,13.9659091 C25.5164144,14.0441923 25.5454545,14.1969686 25.5454545,14.4242424 C25.5454545,14.5808089 25.5328284,14.7083328 25.5075758,14.8068182 C25.4823231,14.9053035 25.4444447,14.982323 25.3939394,15.0378788 C25.3434341,15.0934346 25.2803034,15.131313 25.2045455,15.1515152 C25.1287875,15.1717173 25.0378793,15.1818182 24.9318182,15.1818182 L24.7272727,15.1818182 L24.7272727,16.0606061 L25.0833333,16.0606061 C25.2601019,16.0606061 25.3901511,16.1060602 25.4734848,16.1969697 C25.5568186,16.2878792 25.5984848,16.4646452 25.5984848,16.7272727 C25.5984848,16.8939402 25.5934344,17.0315651 25.5833333,17.1401515 C25.5732323,17.2487379 25.5542931,17.3345956 25.5265152,17.3977273 C25.4987372,17.4608589 25.4595962,17.5037878 25.4090909,17.5265152 C25.3585856,17.5492425 25.2929297,17.5606061 25.2121212,17.5606061 C25.0606053,17.5606061 24.9545458,17.4949502 24.8939394,17.3636364 C24.8636362,17.2929289 24.8396466,17.2070712 24.8219697,17.1060606 C24.8042928,17.00505 24.7954545,16.8787886 24.7954545,16.7272727 L23.4772727,16.7272727 C23.4772727,17.0505067 23.5126259,17.3219686 23.5833333,17.5416667 C23.6540408,17.7613647 23.7626255,17.936868 23.9090909,18.0681818 C24.0555563,18.1994956 24.2411605,18.2904038 24.4659091,18.3409091 C24.6906577,18.3914144 24.9545439,18.4166667 25.2575758,18.4166667 C25.8383867,18.4166667 26.2752511,18.2840922 26.5681818,18.0189394 C26.8611126,17.7537866 27.0075758,17.3181848 27.0075758,16.7121212 C27.0075758,16.4191905 26.9444451,16.1654051 26.8181818,15.9507576 C26.6919186,15.73611 26.4722238,15.5984852 26.1590909,15.5378788 L26.1590909,15.5227273 C26.3005058,15.4924241 26.4191914,15.4393943 26.5151515,15.3636364 C26.6111116,15.2878784 26.688131,15.2007581 26.7462121,15.1022727 C26.8042932,15.0037874 26.8459595,14.8977278 26.8712121,14.7840909 C26.8964648,14.670454 26.9090909,14.5606066 26.9090909,14.4545455 C26.9090909,14.2171705 26.882576,14.0063141 26.8295455,13.8219697 C26.7765149,13.6376253 26.6856067,13.4823239 26.5568182,13.3560606 C26.4280297,13.2297973 26.2550516,13.1338387 26.0378788,13.0681818 C25.820706,13.0025249 25.5479814,12.969697 25.219697,12.969697 C24.6691892,12.969697 24.2550519,13.1010088 23.9772727,13.3636364 C23.6994936,13.6212134 23.5530304,14.0303002 23.5378788,14.5909091 Z" id="Combined-Shape"></path>
                        </g>
                    </g>
                </g>
            </g>
        </g>
    </g>
</svg>