<?xml version="1.0" encoding="UTF-8"?>
<svg width="128px" height="128px" viewBox="0 0 128 128" version="1.1" xmlns="http://www.w3.org/2000/svg" xmlns:xlink="http://www.w3.org/1999/xlink">
    <!-- Generator: Sketch 64 (93537) - https://sketch.com -->
    <title>logout</title>
    <desc>Created with Sketch.</desc>
    <g id="logout" stroke="none" stroke-width="1" fill="none" fill-rule="evenodd">
        <g id="Group-2">
            <g id="Group" transform="translate(14.500000, 14.500000)" fill="#fff">
                <path d="M49.5,0 C60.3614798,0 70.702805,3.51266827 79.2072089,9.90211806 C81.1941832,11.3949532 81.5947622,14.215896 80.1019271,16.2028703 C78.609092,18.1898447 75.7881491,18.5904236 73.8011748,17.0975885 C66.8426129,11.8695464 58.3946439,9 49.5,9 C27.1324676,9 9,27.1324676 9,49.5 C9,71.8675324 27.1324676,90 49.5,90 C58.3942551,90 66.8418772,87.1307057 73.8002768,81.9030861 C75.7872924,80.4103058 78.6082242,80.8109627 80.1010044,82.7979782 C81.5937847,84.7849938 81.1931278,87.6059256 79.2061123,89.0987058 C70.7019054,95.4876402 60.3610044,99 49.5,99 C22.1619049,99 -7.81597009e-14,76.8380951 -7.81597009e-14,49.5 C-7.81597009e-14,22.1619049 22.1619049,0 49.5,0 Z" id="Path" fill-rule="nonzero"></path>
                <path d="M74.3644458,12.079831 L92.2679167,30.3581721 C97.3035916,35.4082759 89.7500794,42.9852171 84.7126239,37.9351134 L78.5838412,31.7653928 C77.1885819,30.3608135 76.0570117,30.8223253 76.0570117,32.7968155 L76.0570117,83.0556135 C76.0570117,86.0463166 73.6653408,88.4285744 70.7150653,88.4285744 C67.770793,88.4285744 65.3731189,86.0230178 65.3731189,83.0556135 L65.3731189,32.7968155 C65.3731189,30.8305207 64.241586,30.3605417 62.8457694,31.7653928 L56.715726,37.9351134 C51.6800512,42.9852171 44.1247583,35.4082759 49.1604332,30.3581721 L66.8804116,12.1050648 C68.9521542,9.97099103 72.2953641,9.96742585 74.3644458,12.079831 Z" id="Path" transform="translate(70.714286, 49.464287) rotate(-270.000000) translate(-70.714286, -49.464287) "></path>
            </g>
            <rect id="Rectangle" x="0" y="0" width="128" height="128"></rect>
        </g>
    </g>
</svg>