
<svg width="37px" height="22px" viewBox="0 0 37 22" version="1.1" xmlns="http://www.w3.org/2000/svg" xmlns:xlink="http://www.w3.org/1999/xlink">
    <g id="Page-1" stroke="none" stroke-width="1" fill="none" fill-rule="evenodd">
        <g id="reference" transform="translate(-95.000000, -436.000000)" fill="#FFFFFF">
            <g id="Group-34" transform="translate(95.000000, 436.000000)">
                <path d="M21.7288454,13.1437301 L13.9149097,10.3430049 L11.9939107,15.7038915 L4.17909705,12.9049222 L6.10009607,7.54350876 L13.9149097,10.3430049 L15.8359087,4.98299618 L23.6498444,7.78266787 L21.7288454,13.1437301 L21.7288454,13.1437301 Z M7.43900077,0.948547066 L0.11233863,21.393139 L1.06616556,21.7337915 L3.89937572,13.8285469 L20.3908186,19.739043 L24.8842706,7.19969559 L7.43900077,0.948547066 L7.43900077,0.948547066 Z" id="offside-copy-2"></path>
                <path d="M35.6036051,10.4820421 C35.770142,10.4820421 35.9002471,10.5236757 35.9939242,10.6069442 C36.0876012,10.6902127 36.134439,10.799501 36.134439,10.9348123 C36.134439,11.1117578 36.0719886,11.2470671 35.9470859,11.3407441 C35.8221831,11.4344212 35.6452402,11.481259 35.4162519,11.481259 L34.1828435,11.481259 L33.7144606,14.1666544 L34.9790945,14.1666544 C35.1456315,14.1666544 35.2731344,14.2108901 35.3616072,14.2993629 C35.45008,14.3878357 35.4943157,14.499726 35.4943157,14.6350373 C35.4943157,14.7807572 35.4318653,14.905658 35.3069625,15.0097437 C35.1820598,15.1138293 35.0051169,15.1658713 34.7761286,15.1658713 L33.4958819,15.1658713 L32.9338224,18.3977134 C32.8921882,18.5850675 32.811523,18.7333873 32.6918246,18.8426772 C32.5721261,18.9519671 32.4186021,19.0066112 32.231248,19.0066112 C32.0855282,19.0066112 31.9710357,18.9675797 31.8877672,18.8895155 C31.8044987,18.8114513 31.7628651,18.6995609 31.7628651,18.5538411 C31.7628651,18.4913897 31.7680693,18.4393477 31.7784779,18.3977134 L32.3249246,15.1658713 L29.2960484,15.1658713 L28.7339889,18.3977134 C28.7027632,18.574659 28.6220981,18.7203767 28.4919911,18.8348708 C28.361884,18.949365 28.2135643,19.0066112 28.0470273,19.0066112 C27.9013074,19.0066112 27.7842129,18.9649776 27.6957401,18.8817091 C27.6072673,18.7984406 27.5630316,18.6839482 27.5630316,18.5382283 L27.5786444,18.3977134 L28.1407039,15.1658713 L26.8292317,15.1658713 C26.6731033,15.1658713 26.5508045,15.1268398 26.4623317,15.0487756 C26.373859,14.9707114 26.3296232,14.8692294 26.3296232,14.7443267 C26.3296232,14.5569726 26.3920737,14.413857 26.5169764,14.3149757 C26.6418792,14.2160943 26.8032094,14.1666544 27.0009721,14.1666544 L28.3592826,14.1666544 L28.8120527,11.481259 L27.5161933,11.481259 C27.1414851,11.481259 26.9541338,11.3251329 26.9541338,11.0128761 C26.9541338,10.8463391 27.0165842,10.716234 27.141487,10.622557 C27.2663897,10.5288799 27.4381284,10.4820421 27.6567082,10.4820421 L29.0306314,10.4820421 L29.5926909,7.34387654 C29.6239166,7.15652243 29.7019796,7.00560056 29.8268824,6.89110638 C29.9517851,6.77661221 30.102707,6.71936598 30.2796525,6.71936598 C30.4253724,6.71936598 30.542467,6.7636017 30.6309397,6.85207447 C30.7194125,6.94054724 30.7636482,7.0576418 30.7636482,7.20336166 L30.7480355,7.32826377 L30.185976,10.4820421 L33.2304649,10.4820421 L33.7925244,7.34387654 C33.8133416,7.16693099 33.8888025,7.01861122 34.0189095,6.89891276 C34.1490165,6.77921431 34.3025405,6.71936598 34.479486,6.71936598 C34.6356145,6.71936598 34.752709,6.7609996 34.8307732,6.84426809 C34.9088374,6.92753658 34.947869,7.03682483 34.947869,7.17213613 C34.947869,7.24499606 34.9426648,7.29703809 34.9322562,7.32826377 L34.3858095,10.4820421 L35.6036051,10.4820421 Z M32.5435033,14.1666544 L33.0118862,11.481259 L29.9673973,11.481259 L29.5146271,14.1666544 L32.5435033,14.1666544 Z" id="#"></path>
            </g>
        </g>
    </g>
</svg>