
<svg width="32px" height="23px" viewBox="0 0 32 23" version="1.1" xmlns="http://www.w3.org/2000/svg" xmlns:xlink="http://www.w3.org/1999/xlink">
    <g id="Page-1" stroke="none" stroke-width="1" fill="none" fill-rule="evenodd">
        <g id="reference" transform="translate(-22.000000, -436.000000)" fill="#FFFFFF">
            <g id="Group-32" transform="translate(22.000000, 436.000000)">
                <path d="M0.221986501,1.93781456 L1.68192586,1.93781456 L1.68192586,22.5549667 L0.221986501,22.5549667 L0.221986501,1.93781456 Z M20.1362202,1.97807107 L20.1362202,13.1333569 C14.1864682,18.0416716 8.2367163,8.22504214 2.28696438,13.1333569 L2.28696438,1.97807107 C8.2367163,-2.93024368 14.1864682,6.88638581 20.1362202,1.97807107 Z" id="corner-copy"></path>
                <path d="M31.2064529,10.4820421 C31.3729899,10.4820421 31.503095,10.5236757 31.596772,10.6069442 C31.6904491,10.6902127 31.7372869,10.799501 31.7372869,10.9348123 C31.7372869,11.1117578 31.6748365,11.2470671 31.5499337,11.3407441 C31.425031,11.4344212 31.2480881,11.481259 31.0190998,11.481259 L29.7856914,11.481259 L29.3173085,14.1666544 L30.5819424,14.1666544 C30.7484793,14.1666544 30.8759823,14.2108901 30.9644551,14.2993629 C31.0529279,14.3878357 31.0971636,14.499726 31.0971636,14.6350373 C31.0971636,14.7807572 31.0347131,14.905658 30.9098104,15.0097437 C30.7849077,15.1138293 30.6079648,15.1658713 30.3789764,15.1658713 L29.0987298,15.1658713 L28.5366703,18.3977134 C28.495036,18.5850675 28.4143709,18.7333873 28.2946724,18.8426772 C28.174974,18.9519671 28.02145,19.0066112 27.8340959,19.0066112 C27.688376,19.0066112 27.5738836,18.9675797 27.4906151,18.8895155 C27.4073466,18.8114513 27.365713,18.6995609 27.365713,18.5538411 C27.365713,18.4913897 27.3709172,18.4393477 27.3813257,18.3977134 L27.9277725,15.1658713 L24.8988963,15.1658713 L24.3368368,18.3977134 C24.3056111,18.574659 24.2249459,18.7203767 24.0948389,18.8348708 C23.9647319,18.949365 23.8164121,19.0066112 23.6498752,19.0066112 C23.5041553,19.0066112 23.3870607,18.9649776 23.298588,18.8817091 C23.2101152,18.7984406 23.1658795,18.6839482 23.1658795,18.5382283 L23.1814922,18.3977134 L23.7435517,15.1658713 L22.4320796,15.1658713 C22.2759511,15.1658713 22.1536524,15.1268398 22.0651796,15.0487756 C21.9767068,14.9707114 21.9324711,14.8692294 21.9324711,14.7443267 C21.9324711,14.5569726 21.9949215,14.413857 22.1198243,14.3149757 C22.244727,14.2160943 22.4060573,14.1666544 22.60382,14.1666544 L23.9621304,14.1666544 L24.4149006,11.481259 L23.1190412,11.481259 C22.744333,11.481259 22.5569817,11.3251329 22.5569817,11.0128761 C22.5569817,10.8463391 22.6194321,10.716234 22.7443348,10.622557 C22.8692376,10.5288799 23.0409763,10.4820421 23.2595561,10.4820421 L24.6334793,10.4820421 L25.1955388,7.34387654 C25.2267645,7.15652243 25.3048275,7.00560056 25.4297302,6.89110638 C25.554633,6.77661221 25.7055549,6.71936598 25.8825004,6.71936598 C26.0282203,6.71936598 26.1453148,6.7636017 26.2337876,6.85207447 C26.3222604,6.94054724 26.3664961,7.0576418 26.3664961,7.20336166 L26.3508833,7.32826377 L25.7888238,10.4820421 L28.8333128,10.4820421 L29.3953723,7.34387654 C29.4161894,7.16693099 29.4916504,7.01861122 29.6217574,6.89891276 C29.7518644,6.77921431 29.9053884,6.71936598 30.0823339,6.71936598 C30.2384623,6.71936598 30.3555569,6.7609996 30.4336211,6.84426809 C30.5116853,6.92753658 30.5507168,7.03682483 30.5507168,7.17213613 C30.5507168,7.24499606 30.5455126,7.29703809 30.5351041,7.32826377 L29.9886573,10.4820421 L31.2064529,10.4820421 Z M28.1463512,14.1666544 L28.6147341,11.481259 L25.5702451,11.481259 L25.117475,14.1666544 L28.1463512,14.1666544 Z" id="#"></path>
            </g>
        </g>
    </g>
</svg>