<?xml version="1.0" encoding="UTF-8"?>
<svg width="110px" height="110px" viewBox="0 0 110 110" version="1.1" xmlns="http://www.w3.org/2000/svg" xmlns:xlink="http://www.w3.org/1999/xlink">
    <title>profile_favcardempty</title>
    <g id="profile_favcardempty" stroke="none" stroke-width="1" fill="none" fill-rule="evenodd">
        <g id="Group-9" transform="translate(19.000000, 6.000000)">
            <path d="M66.564,17.8032 C66.529,16.5972 67.887,15.8322 68.875,16.5222 C71.233,18.1682 72.779,20.9022 72.779,23.9922 L72.779,23.9922 L72.779,88.8792 C72.779,93.9022 68.708,97.9732 63.686,97.9732 L63.686,97.9732 L25.478,97.9732 C23.118,97.9732 20.968,97.0662 19.352,95.5812 C18.368,94.6782 19.024,93.0292 20.36,93.0292 L20.36,93.0292 L20.491,93.0292 C20.839,93.0292 21.163,93.1762 21.422,93.4092 C22.5,94.3792 23.919,94.9732 25.478,94.9732 L25.478,94.9732 L63.686,94.9732 C67.051,94.9732 69.779,92.2442 69.779,88.8792 L69.779,88.8792 L69.779,23.9922 C69.779,21.9262 68.749,20.0962 67.176,18.9902 C66.801,18.7272 66.579,18.3012 66.565,17.8432 L66.565,17.8432 Z M58.3702,10.8593 C58.3352,9.6533 59.6932,8.8883 60.6812,9.5783 C63.0392,11.2243 64.5852,13.9583 64.5852,17.0483 L64.5852,17.0483 L64.5852,81.9353 C64.5852,86.9573 60.5142,91.0283 55.4922,91.0283 L55.4922,91.0283 L17.2842,91.0283 C14.9242,91.0283 12.7742,90.1213 11.1592,88.6383 C10.1742,87.7343 10.8302,86.0853 12.1672,86.0853 L12.1672,86.0853 L12.2972,86.0853 C12.6452,86.0853 12.9702,86.2333 13.2282,86.4663 C14.3062,87.4353 15.7252,88.0283 17.2842,88.0283 L17.2842,88.0283 L55.4812,88.0283 C58.8382,88.0283 61.5852,85.2813 61.5852,81.9243 L61.5852,81.9243 L61.5852,17.0483 C61.5852,14.9823 60.5552,13.1523 58.9822,12.0463 C58.6072,11.7833 58.3852,11.3573 58.3712,10.8993 L58.3712,10.8993 Z M47.2984,1 C52.3124,1 56.3914,5.084 56.3914,10.105 L56.3914,74.98 C56.3914,80 52.3124,84.085 47.2984,84.085 L9.0904,84.085 C4.0784,84.085 0.0004,80 0.0004,74.98 L0.0004,10.105 C0.0004,5.084 4.0784,1 9.0904,1 L47.2984,1 Z M47.2984,4 L9.0904,4 C5.7324,4 3.0004,6.739 3.0004,10.105 L3.0004,74.98 C3.0004,78.346 5.7324,81.085 9.0904,81.085 L47.2984,81.085 C50.6584,81.085 53.3914,78.346 53.3914,74.98 L53.3914,10.105 C53.3914,6.739 50.6584,4 47.2984,4 Z" id="Combined-Shape" fill="#FFC531" fill-rule="nonzero"></path>
            <g id="Group-8" transform="translate(0.000000, 0.973100)"></g>
        </g>
    </g>
</svg>