
<svg width="21px" height="10px" viewBox="0 0 21 10" version="1.1" xmlns="http://www.w3.org/2000/svg" xmlns:xlink="http://www.w3.org/1999/xlink">
    <g id="Page-1" stroke="none" stroke-width="1" fill="none" fill-rule="evenodd">
        <g id="reference" transform="translate(-177.000000, -442.000000)" fill="#FFFFFF">
            <path d="M178.61805,451.66572 L178.61805,445.27868 L177.255482,445.27868 C177.113547,445.27868 177,445.15094 177,445.009005 L177,444.11482 C177,444.058046 177.04258,443.944499 177.085161,443.901919 L179.1574,442.283868 L180.463195,442.283868 C180.605129,442.283868 180.718677,442.411609 180.718677,442.553543 L180.718677,451.66572 C180.718677,451.807654 180.605129,451.935395 180.463195,451.935395 L178.887725,451.935395 C178.731597,451.935395 178.61805,451.807654 178.61805,451.66572 Z M182.294146,451.537979 L185.274765,446.839957 L182.407694,442.397416 C182.294146,442.212901 182.407694,442 182.648982,442 L184.721221,442 C184.820575,442 184.905736,442.070967 184.948316,442.127741 L186.58056,444.767717 L186.594753,444.767717 L188.255383,442.127741 C188.28377,442.070967 188.383124,442 188.482478,442 L190.554718,442 C190.796006,442 190.923747,442.212901 190.796006,442.397416 L187.914741,446.839957 L190.89536,451.537979 C191.023101,451.736687 190.89536,451.935395 190.668265,451.935395 L188.69538,451.935395 C188.610219,451.935395 188.496672,451.878622 188.454091,451.807654 L186.594753,448.940583 L186.566366,448.940583 L184.749608,451.807654 C184.707028,451.864428 184.621868,451.935395 184.50832,451.935395 L182.535435,451.935395 C182.294146,451.935395 182.166406,451.722494 182.294146,451.537979 Z M191.576644,451.66572 L191.576644,451.381852 C192.399863,450.303152 194.500489,447.450274 195.337901,446.172866 C195.522415,445.888998 195.70693,445.491582 195.70693,445.094166 C195.70693,444.554816 195.25274,444.07224 194.457909,444.07224 C193.875979,444.07224 193.350822,444.483849 193.081147,444.781911 C192.9676,444.895458 192.797278,444.895458 192.683731,444.781911 L191.817932,443.901919 C191.718578,443.816758 191.704385,443.646437 191.803739,443.53289 C191.803739,443.53289 192.953406,442.141934 194.642423,442.141934 C196.672083,442.141934 197.86433,443.433536 197.86433,445.009005 C197.86433,445.761257 197.651429,446.187059 197.310787,446.85415 C196.856597,447.663175 195.692737,449.181871 195.025646,450.118637 L197.523688,450.118637 C197.665622,450.118637 197.793363,450.246378 197.793363,450.388312 L197.793363,451.66572 C197.793363,451.807654 197.665622,451.935395 197.523688,451.935395 L191.846319,451.935395 C191.690192,451.935395 191.576644,451.807654 191.576644,451.66572 Z" id="1X2-Copy"></path>
        </g>
    </g>
</svg>