
<svg width="22px" height="24px" viewBox="0 0 22 24" version="1.1" xmlns="http://www.w3.org/2000/svg" xmlns:xlink="http://www.w3.org/1999/xlink">
    <g id="Page-1" stroke="none" stroke-width="1" fill="none" fill-rule="evenodd">
        <g id="reference" transform="translate(-327.000000, -344.000000)" fill="#FFC531" stroke="#242F29">
            <g id="most-yellow" transform="translate(327.000000, 344.000000)">
                <path d="M8.20289376,0.99831157 L8.20289376,20.2918211 C8.20289376,20.569115 8.42274932,20.7901327 8.69438615,20.7901327 L20.1951521,20.7901327 C20.4631042,20.7901327 20.6866445,20.565793 20.6866445,20.2918211 L20.6866445,0.99831157 C20.6866445,0.721017724 20.4667889,0.5 20.1951521,0.5 L8.69438615,0.5 C8.42643406,0.5 8.20289376,0.724339694 8.20289376,0.99831157 Z" id="Rectangle-261-Copy"></path>
                <path d="M1.10618286,3.12732484 L1.10618286,22.4208344 C1.10618286,22.6981283 1.32603842,22.919146 1.59767525,22.919146 L13.0984412,22.919146 C13.3663933,22.919146 13.5899336,22.6948063 13.5899336,22.4208344 L13.5899336,3.12732484 C13.5899336,2.850031 13.370078,2.62901327 13.0984412,2.62901327 L1.59767525,2.62901327 C1.32972316,2.62901327 1.10618286,2.85335296 1.10618286,3.12732484 Z" id="Rectangle-261-Copy-2"></path>
            </g>
        </g>
    </g>
</svg>