
<svg width="20px" height="20px" viewBox="0 0 20 20" version="1.1" xmlns="http://www.w3.org/2000/svg" xmlns:xlink="http://www.w3.org/1999/xlink">
    <g id="Page-1" stroke="none" stroke-width="1" fill="none" fill-rule="evenodd">
        <g id="00_menu_notsignedin" transform="translate(-18.000000, -286.000000)" fill="#FFFFFF">
            <g id="Group-4" transform="translate(0.000000, 48.000000)">
                <g id="Group-2" transform="translate(18.000000, 238.000000)">
                    <path d="M6.95462691,14.6069173 C4.36693312,12.9362117 3.62337322,9.48400964 5.29389067,6.89631586 C6.96459621,4.30843397 10.4167983,3.56525027 13.0044921,5.23595582 C15.5921859,6.90647327 16.3357458,10.3586753 14.6650402,12.9463691 C12.9945228,15.534251 9.54232069,16.2774347 6.95462691,14.6069173 L6.95462691,14.6069173 Z M13.3229456,4.74275722 C10.4628828,2.89617803 6.64727126,3.7177995 4.80088017,6.5778623 C2.95430098,9.43792511 3.77592244,13.2535367 6.63617335,15.0999278 C9.49623615,16.946507 13.3118477,16.1248855 15.1582388,13.2648227 C17.004818,10.4047599 16.1830084,6.58933641 13.3229456,4.74275722 L13.3229456,4.74275722 Z" id="Fill-39"></path>
                    <path d="M6.31376969,15.5995218 C3.17776396,13.5748117 2.27695234,9.39146437 4.30147427,6.25545864 C6.3259962,3.11964101 10.5095317,2.21845319 13.6455374,4.24316322 C16.7815431,6.26768515 17.6823548,10.4514087 15.6578328,13.5872264 C13.6333109,16.7232321 9.44977542,17.6240437 6.31376969,15.5995218 L6.31376969,15.5995218 Z M17.7007886,16.1132233 L18.2511696,15.2613177 L18.8007983,14.4094121 L17.5074216,13.1077591 C17.6994719,12.6557544 17.8503282,12.1934042 17.9562286,11.725223 L19.7621781,11.4231341 L19.8129652,10.4104029 L19.8629998,9.39767167 L18.092225,8.91688769 C18.0325972,8.4357275 17.9302708,7.96077462 17.7865622,7.49748394 L19.2025802,6.3306987 L18.7400419,5.42819418 L18.2767512,4.52606585 L16.5067288,4.99424713 C16.2174308,4.61108712 15.8897603,4.25162773 15.528608,3.91869046 L16.1713462,2.19983127 L14.4679113,1.10019779 L13.1660701,2.39338633 C12.7140654,2.20133607 12.2515272,2.05066785 11.7833459,1.94495557 L11.4812571,0.138253611 L10.468902,0.088030871 L9.45579462,0.0376200303 L8.97538683,1.80858296 C8.49385045,1.86839881 8.01870946,1.97072529 7.55560689,2.1142457 L6.38844545,0.698415863 L5.48650522,1.16095414 L4.5841888,1.62386861 L5.05255817,3.39445534 C4.66939816,3.68356527 4.30993877,4.01123573 3.97700151,4.37219992 L2.25833042,3.72946171 L1.15850883,5.43308478 L2.45150928,6.73473783 C2.25964712,7.18693059 2.1089789,7.64946887 2.00307851,8.11765014 L0.196752759,8.41973899 L0.0959310773,10.4452014 L1.8667059,10.9257973 C1.92670985,11.4069575 2.02884824,11.8820985 2.17255675,12.3452011 L0.75635071,13.5121744 L1.21964138,14.4144908 L1.68217966,15.3168072 L3.45276638,14.8484379 C3.74168822,15.2315979 4.06954678,15.5910573 4.43051097,15.9238064 L3.78758465,17.6426656 L5.49139583,18.7426753 L6.79323698,17.4492987 C7.24524164,17.6413489 7.70759181,17.7920171 8.17596119,17.8977294 L8.47805003,19.7044314 L9.49078125,19.7546541 L10.5033244,19.805065 L10.9841084,18.034102 C11.4652685,17.9742862 11.9402214,17.8719597 12.4035121,17.7284393 L13.5702973,19.1444572 L14.47299,18.6817309 L15.3749302,18.2188164 L14.9065608,16.4484178 C15.2899089,16.1593078 15.6491802,15.8314493 15.9821175,15.470297 L17.7007886,16.1132233 L17.7007886,16.1132233 Z" id="Fill-40"></path>
                </g>
            </g>
        </g>
    </g>
</svg>