
<svg width="29px" height="26px" viewBox="0 0 29 26" version="1.1" xmlns="http://www.w3.org/2000/svg" xmlns:xlink="http://www.w3.org/1999/xlink">
    <g id="tablet_vertical" stroke="none" stroke-width="1" fill="none" fill-rule="evenodd">
        <g id="00_main_not_signed_in" transform="translate(-210.000000, -64.000000)" fill="#000">
            <g id="Group-15" transform="translate(20.000000, 62.000000)">
                <path d="M215.69656,11.9326601 C217.548364,9.68738685 217.523754,6.70104706 217.43419,5.56225669 L213.400768,5.56225669 C213.06712,8.27006943 212.295939,11.9681783 210.518772,14.6230147 C212.7835,14.2567958 214.521734,13.3572015 215.69656,11.9326601 Z M192.90344,11.9326601 C194.078266,13.3572015 195.8165,14.2567958 198.081228,14.6230147 C196.303859,11.9681783 195.53288,8.27006943 195.199232,5.56225669 L191.165609,5.56225669 C191.076246,6.70104706 191.051434,9.68738685 192.90344,11.9326601 Z M218.41617,4.44052309 L218.495245,4.90827998 C218.526108,5.09088777 219.221039,9.4194952 216.574856,12.6364024 C215.017566,14.5293028 212.647741,15.6141135 209.526907,15.8715704 C208.454959,16.9979194 207.105442,17.7745042 205.404526,17.9424632 L205.404526,24.7365378 L208.753507,25.0345297 C208.753507,25.0345297 210.699111,25.3216854 211.078751,28 L197.521047,28 C197.900889,25.3216854 199.846493,25.0345297 199.846493,25.0345297 L203.195474,24.7365378 L203.195474,17.9424632 C201.494558,17.7745042 200.145041,16.9979194 199.073093,15.8715704 C195.952259,15.6141135 193.582434,14.5293028 192.025144,12.6364024 C189.378961,9.4194952 190.073892,5.09088777 190.104755,4.90827998 L190.18383,4.44052309 L195.078603,4.44052309 C194.944055,2.97424269 194.943651,2 194.943651,2 L213.656147,2 C213.656147,2 213.655945,2.97424269 213.521397,4.44052309 L218.41617,4.44052309 Z M204.250133,11.3926009 L206.797814,12.725 L206.31125,9.90293349 L208.372367,7.90433489 L205.523973,7.49260093 L204.250133,4.925 L202.976293,7.49260093 L200.1279,7.90433489 L202.189016,9.90293349 L201.702453,12.725 L204.250133,11.3926009 Z M204.375083,14.675 C207.442478,14.675 209.929093,12.2013732 209.929093,9.15 C209.929093,6.09862676 207.442478,3.625 204.375083,3.625 C201.307688,3.625 198.821074,6.09862676 198.821074,9.15 C198.821074,12.2013732 201.307688,14.675 204.375083,14.675 Z M204.375083,14.025 C201.668558,14.025 199.474487,11.8423882 199.474487,9.15 C199.474487,6.45761184 201.668558,4.275 204.375083,4.275 C207.081608,4.275 209.27568,6.45761184 209.27568,9.15 C209.27568,11.8423882 207.081608,14.025 204.375083,14.025 Z" id="Shape"></path>
            </g>
        </g>
    </g>
</svg>