<?xml version="1.0" encoding="UTF-8"?>
<svg width="128px" height="128px" viewBox="0 0 128 128" version="1.1" xmlns="http://www.w3.org/2000/svg" xmlns:xlink="http://www.w3.org/1999/xlink">
    <!-- Generator: Sketch 64 (93537) - https://sketch.com -->
    <title>languge</title>
    <desc>Created with Sketch.</desc>
    <g id="languge" stroke="none" stroke-width="1" fill="none" fill-rule="evenodd">
        <g id="Group">
            <g id="Group-2">
                <rect id="Rectangle" x="0" y="0" width="128" height="128"></rect>
                <path d="M64,15.5 C91.3380951,15.5 113.5,37.6619049 113.5,65 C113.5,92.3380951 91.3380951,114.5 64,114.5 C36.6619049,114.5 14.5,92.3380951 14.5,65 C14.5,37.6619049 36.6619049,15.5 64,15.5 Z M50.2212487,88.8271754 C52.4871373,96.617699 55.7517022,102.473824 59.3665766,105.238352 C60.0723484,105.318496 60.7835703,105.380608 61.4997902,105.424162 L61.5002119,86.8641464 C57.6192888,87.0888865 53.8360252,87.7552934 50.2212487,88.8271754 Z M67.5004893,86.8700803 L67.5011399,105.350772 C67.8799963,105.318332 68.2573636,105.280676 68.6331697,105.237877 C72.2852783,102.445543 75.5796197,96.497558 77.8481718,88.5893347 C74.5156864,87.6643826 71.0486062,87.0825966 67.5004893,86.8700803 Z M44.5562935,90.9001243 L44.3378481,90.9948368 C41.7362437,92.1511893 39.256106,93.5325074 36.9290378,95.1226428 C40.6314572,98.4532282 44.951339,101.110082 49.6959198,102.901602 C47.6625587,99.5540717 45.9284851,95.4926268 44.5562935,90.9001243 Z M83.5453464,90.5572302 L83.5323036,90.6011552 C82.1464453,95.3164664 80.3814582,99.4816093 78.3039251,102.901724 C83.2127816,101.048112 87.666894,98.2683854 91.4532534,94.7755877 C88.9705002,93.1275882 86.32251,91.7156852 83.5453464,90.5572302 Z M41.0410533,67.5004292 L23.5759613,67.5009974 C24.1120904,76.3011301 27.4583641,84.3421999 32.7289241,90.7383484 C35.9301538,88.4587839 39.3961281,86.5397695 43.0598554,85.0131979 C41.910591,79.630924 41.2117506,73.7163442 41.0410533,67.5004292 Z M104.424039,67.5009974 L86.9589467,67.5004292 C86.7918233,73.5862007 86.1184409,79.383123 85.0121557,84.6765117 C88.7596198,86.1658424 92.3112546,88.0633548 95.5964966,90.3354352 C100.67958,84.007474 103.899057,76.118148 104.424039,67.5009974 Z M61.5,67.5 L47.0446581,67.5006954 C47.2098606,73.0361628 47.8270352,78.2645309 48.7896936,82.9953895 C52.8698639,81.8077452 57.1333379,81.0813046 61.5001014,80.8551742 L61.5,67.5 Z M80.9553419,67.5006954 L67.5,67.5 L67.5008881,80.8604834 C71.5285815,81.0761628 75.4689639,81.7173081 79.2590266,82.7539635 C80.1937215,78.0875075 80.7929347,72.9424987 80.9553419,67.5006954 Z M33.3782249,38.495302 L33.2490732,38.643034 C27.8837192,44.8970201 24.3932491,52.8065382 23.6491187,61.5001326 L41.0410259,61.5005692 C41.2138218,55.2061135 41.9281906,49.2206403 43.102969,43.7816814 C39.6695944,42.3554107 36.4095467,40.5838628 33.3782249,38.495302 Z M48.8334394,45.7961685 L48.7762356,46.0708917 C47.8212254,50.7845719 47.2090152,55.9903071 47.0446282,61.5003067 L61.5,61.5 L61.500091,47.9226039 C57.1486929,47.6973024 52.8999502,46.9753584 48.8334394,45.7961685 Z M94.9521864,38.8794447 L94.5354036,39.1571056 C91.53797,41.1232684 88.3321743,42.785134 84.9685984,44.1186548 C86.1009509,49.4668558 86.7897303,55.3355077 86.9589741,61.5005692 L104.350881,61.5001326 C103.616096,52.91572 100.20352,45.0958131 94.9521864,38.8794447 Z M79.2164293,46.0347303 C75.439634,47.0651095 71.5134795,47.7024147 67.5005805,47.9172992 L67.5,61.5 L80.9553718,61.5003067 C80.7905643,55.9762131 80.1756398,50.7579426 79.2164293,46.0347303 Z M58.0347077,24.9362404 C54.9851986,27.9832872 52.2600024,33.2454447 50.2807216,39.9671906 C53.8778349,41.0296167 57.640825,41.6900941 61.5003237,41.9136216 L61.4998931,24.5759071 C60.3307415,24.6471095 59.1749873,24.7679131 58.0347077,24.9362404 Z M67.5011887,24.6490739 L67.5006622,41.9076891 C71.0278089,41.6964465 74.4747507,41.120393 77.7884502,40.2055704 C75.8038184,33.3690679 73.0505283,28.019 69.9657966,24.9354826 C69.1518145,24.815671 68.3300391,24.7199313 67.5011887,24.6490739 Z M79.0550052,27.3905711 L79.2434214,27.7346353 C80.8956488,30.777474 82.3229636,34.3184208 83.4866458,38.2441583 C85.99251,37.2036053 88.3936452,35.9559906 90.6629571,34.515433 C87.2510985,31.5277522 83.3333089,29.1047301 79.0550052,27.3905711 Z M48.9456288,27.3904125 L48.8193136,27.4411727 C44.7492065,29.0878447 41.0077551,31.3769031 37.7206676,34.1826395 C39.9000261,35.6082671 42.2063441,36.8527429 44.6151552,37.9051376 C45.8046315,33.9656287 47.2613919,30.4222827 48.9456288,27.3904125 Z" id="Combined-Shape" fill="#fff" fill-rule="nonzero"></path>
            </g>
        </g>
    </g>
</svg>