
<svg width="10px" height="18px" viewBox="0 0 10 18" version="1.1" xmlns="http://www.w3.org/2000/svg" xmlns:xlink="http://www.w3.org/1999/xlink">
    <g id="Page-1" stroke="none" stroke-width="1" fill="none" fill-rule="evenodd">
        <g id="06_contest_gameplay" transform="translate(-322.000000, -369.000000)">
            <g id="Group-15" transform="translate(0.000000, 48.000000)">
                <g id="Group-13">
                    <g id="Group-5" transform="translate(10.000000, 315.000000)">
                        <g id="Group-10-Copy-14" transform="translate(312.000000, 6.000000)">
                            <polygon id="Fill-63" fill="#D0021B" points="3.88594597 9.44250399 9.66343303 9.44250399 9.66343303 0.398026852 3.88594597 0.398026852"></polygon>
                            <path d="M0.277031425,11.414435 C0.277031425,11.414435 0.383636972,11.1011592 0.575615887,10.8477856 C0.741693767,10.6282173 2.78031642,7.14309238 3.32179256,6.2163685 L3.32179256,10.0234683 C3.32179256,10.0234683 3.5790243,10.0398753 3.66473115,10.045381 C3.6924108,10.0440597 3.71831184,10.0364618 3.74276775,10.0234683 C4.28079783,9.73904242 4.05035643,6.75108465 4.05035643,6.75108465 C4.05035643,6.75108465 4.05057876,6.41512522 4.17452577,6.08544232 C4.29380393,5.7677619 4.52802487,5.45580744 4.98824069,5.45580744 C5.9262361,5.45580744 6.06163293,6.66662681 6.06163293,6.66662681 L6.06852505,9.7918974 C6.06852505,9.7918974 6.06041013,9.87877776 6.06185525,10.0234683 C6.06452317,10.2834487 6.09842796,10.7306238 6.26739608,11.1997117 C6.9211471,12.7984645 6.79831172,14.6348445 6.79831172,14.6348445 C6.79831172,14.6348445 6.84299934,15.6202595 5.99026613,16.1271166 C5.13764408,16.6338637 5.23613471,17.3730625 5.23613471,17.3730625 L2.34489001,17.3730625 L0.426212492,12.5371627 C0.426212492,12.5371627 0.0639314944,12.1147634 0.277031425,11.414435" id="Fill-64" fill="#FFFFFF" fill-rule="nonzero"></path>
                        </g>
                    </g>
                </g>
            </g>
        </g>
    </g>
</svg>