
<svg width="28px" height="18px" viewBox="0 0 28 18" version="1.1" xmlns="http://www.w3.org/2000/svg" xmlns:xlink="http://www.w3.org/1999/xlink">
    <g id="Page-1" stroke="none" stroke-width="1" fill="none" fill-rule="evenodd">
        <g id="06_contest_gameplay" transform="translate(-49.000000, -643.000000)" fill-rule="nonzero">
            <g id="Group-9" transform="translate(0.000000, 635.000000)">
                <g id="Group-23-Copy">
                    <g id="Group-2-Copy-2" transform="translate(49.000000, 8.000000)">
                        <polygon id="Rectangle-path" fill="#FFC531" transform="translate(5.098235, 9.992203) rotate(72.000000) translate(-5.098235, -9.992203) " points="4.6099157 6.15798972 5.58655496 6.15798972 5.58655496 13.8264165 4.6099157 13.8264165"></polygon>
                        <polygon id="Rectangle-path" fill="#FFC531" transform="translate(4.681888, 13.120813) rotate(-18.000000) translate(-4.681888, -13.120813) " points="0.268925277 12.6324934 9.0948504 12.6324934 9.0948504 13.6091327 0.268925277 13.6091327"></polygon>
                        <polygon id="Rectangle-path" fill="#FFC531" transform="translate(6.860915, 15.431146) rotate(-108.000000) translate(-6.860915, -15.431146) " points="6.37259564 11.5969325 7.34923489 11.5969325 7.34923489 19.2653592 6.37259564 19.2653592"></polygon>
                        <path d="M26.7139341,8.02700702 C26.6806368,6.84423119 26.3603721,5.67689757 25.7849894,4.64484403 C25.7845068,4.64403975 25.7840242,4.64307461 25.7835417,4.64227033 C24.791863,2.86191363 23.0927387,1.55785221 21.1219283,1.06434531 C20.4876722,0.905097651 19.8289659,0.830299506 19.1717074,0.843650573 C18.6114451,0.854588796 18.0547218,0.928743516 17.5145665,1.06418446 C15.5437561,1.55785221 13.8446318,2.86191363 12.8529531,4.64227033 C12.8476449,4.65159999 12.8424975,4.66092965 12.8373501,4.67025931 C12.2624499,5.71115995 11.9462066,6.88782323 11.9214347,8.07574645 C11.921113,8.0924755 11.9207913,8.10904369 11.9204696,8.12561188 C11.918861,8.16437823 11.918861,8.20298373 11.918861,8.24175008 C11.918861,9.58280843 12.2815918,10.8961995 12.9678045,12.0400481 C13.1159531,12.2877667 13.2787396,12.5263165 13.4545554,12.7545715 C13.4571291,12.7585929 13.4598637,12.7624534 13.4627591,12.766314 C13.8626477,13.2849144 14.3317044,13.7478587 14.8536829,14.142439 C15.0671391,14.3040995 15.2894424,14.4543392 15.5196276,14.5920321 C16.663798,15.2784056 17.9771891,15.6411364 19.3182474,15.6411364 C20.6593057,15.6411364 21.9726968,15.2784056 23.1165454,14.592193 C23.2905919,14.488119 23.4599735,14.3769674 23.6245294,14.2590597 C24.2097244,13.8405119 24.7336331,13.3371927 25.1737357,12.7664748 C25.1766311,12.7627751 25.1793657,12.7589146 25.1817785,12.7548932 C25.3575944,12.5267991 25.52022,12.2882493 25.6683686,12.0405307 C26.354903,10.8961995 26.7176338,9.58280843 26.7176338,8.24175008 C26.7176338,8.20250116 26.7176338,8.16325224 26.7160252,8.12689873 C26.7155426,8.0936015 26.7148992,8.06030426 26.7139341,8.02700702 Z M26.3798357,7.7746236 L25.1774354,6.67227589 L25.6682077,5.11454421 C26.0761391,5.9424712 26.3188712,6.84873517 26.3798357,7.7746236 Z M21.1352793,1.40005226 C22.9510244,1.88101237 24.5172815,3.08341265 25.4563601,4.71722933 L24.866822,6.58782637 L22.2411659,7.27210875 L19.4791036,5.49979487 L19.4791036,2.45398224 L21.1352793,1.40005226 Z M22.0315702,7.51982734 L21.2958138,10.7350216 L17.340681,10.7350216 L16.6049246,7.51982734 L19.3182474,5.77871956 L22.0315702,7.51982734 Z M19.3899893,1.16439789 C19.4083269,1.16455874 19.4265036,1.1647196 19.4446804,1.16504131 C19.8656411,1.1724407 20.2846716,1.21715873 20.6954984,1.29839112 L19.3182474,2.17489669 L17.9408355,1.29839112 C18.4163265,1.20461194 18.9048469,1.16069819 19.3899893,1.16439789 Z M17.5012155,1.40005226 L19.1573912,2.45398224 L19.1573912,5.49979487 L16.388573,7.27645187 L13.7698336,6.58814808 L13.1802956,4.71722933 C14.1190525,3.0832518 15.6853096,1.88117322 17.5012155,1.40005226 Z M12.9681262,5.11470506 L13.4588985,6.67243675 L12.2561765,7.77494531 C12.3168193,6.85130887 12.5597122,5.94359719 12.9681262,5.11470506 Z M13.2438338,11.8746879 C12.5875404,10.7807047 12.2405735,9.52457847 12.2405735,8.24175008 C12.2405735,8.23644182 12.2405735,8.23113357 12.2405735,8.22566446 L13.6876361,6.89892231 L16.2893247,7.58272212 L17.0387538,10.8571114 L15.6126025,12.6899073 L13.6614165,12.4947887 C13.5113377,12.2959704 13.3720362,12.0889484 13.2438338,11.8746879 Z M15.2165745,14.0097326 C14.7468743,13.6753125 14.3189968,13.2837885 13.9438801,12.8465812 L15.5675628,13.0088852 L16.1070746,14.548601 C15.7971046,14.3911227 15.4995206,14.2108029 15.2165745,14.0097326 Z M19.3182474,15.319424 C18.3495712,15.319424 17.3958547,15.1215708 16.5158102,14.7419501 L15.866112,12.8880821 L17.2911373,11.056734 L21.3453575,11.056734 L22.7703828,12.8880821 L22.1206846,14.7419501 C21.2406401,15.1215708 20.2869236,15.319424 19.3182474,15.319424 Z M23.3451221,14.0623326 C23.0846959,14.2424916 22.8120446,14.4049563 22.5294202,14.548601 L23.068932,13.0088852 L24.6926147,12.8465812 C24.2977127,13.3069518 23.844259,13.7164917 23.3451221,14.0623326 Z M26.3959213,8.24175008 C26.3959213,9.52457847 26.0489544,10.7807047 25.3925002,11.8750096 C25.2644586,12.0891093 25.1249963,12.2961312 24.9752391,12.4949495 L23.0240531,12.6900681 L21.597741,10.8572723 L22.3486178,7.57644873 L24.9486978,6.89892231 L26.3959213,8.22566446 C26.3959213,8.23113357 26.3959213,8.23644182 26.3959213,8.24175008 Z" id="Shape" fill="#FFFFFF"></path>
                        <path d="M27.1832376,8.01379529 C27.1846195,8.06750424 27.1846195,8.06750424 27.1850557,8.10614517 C27.1868108,8.14580922 27.1871656,8.17980168 27.1871232,8.24175008 C27.1871232,9.66783678 26.8012998,11.0647214 26.0712984,12.2815036 C25.914043,12.5444496 25.7411079,12.798282 25.5843624,12.9964435 C25.5626098,13.0306227 25.5626098,13.0306227 25.5455212,13.053173 C25.0788834,13.6583013 24.5222671,14.194187 23.8979789,14.6406953 C23.7224657,14.766454 23.5422218,14.8846763 23.3580708,14.9947919 C22.1411342,15.7248511 20.7442393,16.1106259 19.3182474,16.1106259 C17.8922215,16.1106259 16.4953352,15.7248338 15.2786158,14.9949386 C15.0344993,14.8489123 14.7979861,14.6891952 14.5705693,14.5169614 C14.0135595,14.0958998 13.5150951,13.6030395 13.0871675,13.0480076 C12.8947252,12.7971386 12.7217439,12.5433213 12.5652056,12.2815735 C11.8351463,11.0646368 11.4493716,9.66774198 11.4493716,8.24175008 C11.4493695,8.21188284 11.4493695,8.21188284 11.449598,8.1788009 C11.4500743,8.14409447 11.4500743,8.14409447 11.4510686,8.1164973 L11.4520473,8.06595828 C11.4784122,6.8016447 11.8148541,5.55048486 12.4262756,4.4434596 C13.4974908,2.52032641 15.303684,1.13399335 17.4003796,0.608792682 C17.9751508,0.464671969 18.5671145,0.385875372 19.1621725,0.374257964 C19.860433,0.360074014 20.5608169,0.439401052 21.2359711,0.608917418 C23.3327526,1.13396849 25.1389788,2.52028126 26.1861255,4.40072 C26.8072581,5.51480159 27.1478144,6.75550274 27.1832376,8.01379529 Z M24.8040104,12.4771246 C24.7987557,12.4840211 24.7961001,12.4875063 24.7967605,12.486509 C24.7991798,12.483383 24.8015965,12.4802549 24.8040104,12.4771246 Z M25.2657747,11.798997 C25.9084478,10.7277748 26.2481443,9.49789396 26.2481443,8.24175008 C26.2481019,8.18595172 26.2479206,8.16857743 26.2465851,8.13370221 C26.2458223,8.08640151 26.2458223,8.08640151 26.2446417,8.04060969 C26.2134426,6.93236676 25.9132248,5.83900364 25.3824055,4.88639435 C24.4440479,3.20305791 22.8523862,1.98165113 21.0075985,1.51970126 C20.4131371,1.37044517 19.7960644,1.30055414 19.1808717,1.31305056 C18.656207,1.3232938 18.1347091,1.39271065 17.6286444,1.51960359 C15.7836511,1.98175544 14.1916836,3.20366081 13.2610164,4.87444424 C12.7103696,5.87124876 12.414015,6.97333193 12.3908374,8.08477343 C12.3903534,8.10985937 12.3903534,8.10985937 12.3895554,8.14507602 C12.3888542,8.16523861 12.3888542,8.16523861 12.3885262,8.18856107 C12.3883526,8.21350801 12.3883526,8.21350801 12.3883505,8.24175008 C12.3883505,9.49781347 12.7280059,10.7277098 13.3707342,11.7990752 C13.5086554,12.0296926 13.6609286,12.2531247 13.849993,12.5014915 C14.207477,12.9632578 14.6462456,13.3970934 15.1371334,13.7681715 C15.3377371,13.9200982 15.5459229,14.0606858 15.7611447,14.1894283 C16.832256,14.8319746 18.062151,15.171647 19.3182474,15.171647 C20.5743108,15.171647 21.8042071,14.8319916 22.8755978,14.1892481 C23.038029,14.0921197 23.1965896,13.9881196 23.351406,13.8771908 C23.8983132,13.4860273 24.3858682,13.0174232 24.7967605,12.486509 C24.9749638,12.2541706 25.1271337,12.0308172 25.2657747,11.798997 Z M25.6955148,6.5103121 C25.6994158,6.52471916 25.7032683,6.53913998 25.7070721,6.55357427 L25.7150574,6.52822855 L25.6955148,6.5103121 Z M24.6398134,6.81632323 L25.5720938,3.85722659 L26.089352,4.90704043 C26.5247436,5.79069996 26.7833402,6.75704814 26.8483107,7.74377717 L26.9252014,8.91154251 L24.6398134,6.81632323 Z M19.9485931,2.71170654 L19.9485931,5.24321893 L22.3216941,6.76595068 L24.4971085,6.19900754 L24.9453749,4.77666388 C24.0950706,3.39798347 22.7570327,2.37074366 21.2102116,1.90885836 L19.9485931,2.71170654 Z M21.2554933,0.946214256 C23.1924506,1.45928143 24.8619331,2.74090577 25.8634028,4.48327092 L25.9660597,4.66187412 L25.2365356,6.97664521 L22.1606377,7.77826682 L19.0096142,5.7563708 L19.0096142,2.19625794 L21.0567108,0.893560123 L21.2554933,0.946214256 Z M19.3182474,6.336556 L17.1361913,7.73675608 L17.7148696,10.2655321 L20.9216252,10.2655321 L21.5003035,7.73675608 L19.3182474,6.336556 Z M21.6700025,11.204511 L16.9664923,11.204511 L16.0736579,7.3028986 L19.3182474,5.22088312 L22.5628369,7.3028986 L21.6700025,11.204511 Z M19.3935695,0.694922096 C19.4222531,0.695172593 19.4222531,0.695172593 19.4529315,0.69562438 C19.9014909,0.703508879 20.3482409,0.751149006 20.7865669,0.837818805 L21.9363881,1.06517185 L19.3182621,2.73139101 L16.6991637,1.06474762 L17.84999,0.837774764 C18.3524331,0.738679937 18.8723162,0.690947021 19.3935695,0.694922096 Z M13.6912581,4.77662636 L14.1397535,6.19994134 L16.3085345,6.76997905 L18.6879017,5.24321955 L18.6879017,2.71170654 L17.426295,1.90886589 C15.8790918,2.37093015 14.5411636,3.39804706 13.6912581,4.77662636 Z M19.6268806,2.19625794 L19.6268806,5.75637018 L16.4686115,7.78292469 L13.3999138,6.97635483 L12.6706189,4.66191303 L12.7732082,4.48334849 C13.7742202,2.74101144 15.4435938,1.45952689 17.3809739,0.946221572 L17.5797697,0.893550983 L19.6268806,2.19625794 Z M12.9291946,6.55352155 C12.9329738,6.53919522 12.936801,6.52488182 12.9406761,6.51058167 L12.9212705,6.52837034 L12.9291946,6.55352155 Z M13.9965266,6.81650315 L11.7110508,8.91154803 L11.7876958,7.74418648 C11.8523753,6.75906741 12.111365,5.79130284 12.5469833,4.90719841 L13.0642436,3.85739847 L13.9965266,6.81650315 Z M13.6464333,11.6331637 C13.7317366,11.7757276 13.8218056,11.9141065 13.9167567,12.0484916 L15.4013098,12.196947 L16.5313845,10.7446493 L15.8950839,7.96453878 L13.8160764,7.41811484 L12.7127231,8.42972649 C12.744779,9.56192776 13.0659965,10.6656268 13.6464333,11.6331637 Z M11.7710841,8.24175008 L11.7710841,8.01916345 L13.5591957,6.37972978 L16.6835654,7.20090547 L17.5461231,10.9695736 L15.8238952,13.1828676 L13.4104001,12.9415181 L13.2866999,12.7776452 C13.1268941,12.565941 12.9781917,12.3450866 12.8410953,12.1159805 C12.1410076,10.9489005 11.7710841,9.60934663 11.7710841,8.24175008 Z M15.2144621,13.4209207 L15.2233575,13.4463075 L15.2500705,13.4489777 C15.2381694,13.4396664 15.2262998,13.430314 15.2144621,13.4209207 Z M14.9446163,14.3924323 C14.4443862,14.0362756 13.9881365,13.6191688 13.5875652,13.1522936 L12.8244389,12.2628523 L15.9117681,12.5714629 L16.9367723,15.4967284 L15.8944234,14.9671697 C15.5647082,14.79966 15.2472352,14.6074827 14.9446163,14.3924323 Z M19.3182474,14.8499345 C20.1524656,14.8499345 20.9766857,14.6928012 21.7471133,14.3883686 L22.2426537,12.9743792 L21.1158015,11.5262235 L17.5206933,11.5262235 L16.3938411,12.9743792 L16.8893815,14.3883686 C17.6598091,14.6928012 18.4840292,14.8499345 19.3182474,14.8499345 Z M19.3182474,15.7889134 C18.2880299,15.7889134 17.2708345,15.5789489 16.3298523,15.1730417 L16.1408271,15.0915028 L15.3383828,12.801785 L17.0615812,10.5872446 L21.5749136,10.5872446 L23.298112,12.801785 L22.4956677,15.0915028 L22.3066425,15.1730417 C21.3656603,15.5789489 20.3484649,15.7889134 19.3182474,15.7889134 Z M23.4220252,13.4209422 C23.4101987,13.4303271 23.3983403,13.4396715 23.3864503,13.4489751 L23.4131373,13.4463075 L23.4220252,13.4209422 Z M23.6125089,14.4482401 C23.3346795,14.6404386 23.0438834,14.813773 22.742141,14.9671344 L21.6996295,15.4969936 L22.7247267,12.5714629 L25.811869,12.262871 L25.0489634,13.1522542 C24.6273915,13.643716 24.1438964,14.0800536 23.6125089,14.4482401 Z M24.8198012,7.41767727 L22.74271,7.95892375 L22.1051125,10.7447932 L23.2353292,12.1971095 L24.719709,12.0486715 C24.8150071,11.9136917 24.9051348,11.7752227 24.9898954,11.6334941 C25.5704717,10.6656772 25.8917117,9.56196822 25.9237712,8.42974185 L24.8198012,7.41767727 Z M26.8654107,8.24175008 C26.8654107,9.6094711 26.495421,10.949103 25.7954309,12.115981 C25.6591718,12.3438212 25.5104525,12.5647302 25.3502473,12.7774193 L25.2265427,12.9416502 L22.8127771,13.1830268 L21.0903694,10.9697514 L21.9545257,7.19397372 L25.0775945,6.38016736 L26.8654107,8.01914794 L26.8654107,8.24175008 Z" id="Shape-Copy" fill="#FFC531"></path>
                    </g>
                </g>
            </g>
        </g>
    </g>
</svg>