
<svg width="16px" height="16px" viewBox="0 0 16 16" version="1.1" xmlns="http://www.w3.org/2000/svg" xmlns:xlink="http://www.w3.org/1999/xlink">
    <g id="Page-1" stroke="none" stroke-width="1" fill="none" fill-rule="evenodd">
        <g id="06_contest_gameplay" transform="translate(-227.000000, -370.000000)" fill="#FFFFFF">
            <g id="Group-15" transform="translate(0.000000, 48.000000)">
                <g id="Group-13">
                    <g id="Group-5" transform="translate(10.000000, 315.000000)">
                        <g id="foul-icon" transform="translate(217.000000, 7.000000)">
                            <path d="M1.11264052,8.71957236 C0.574064388,8.71957236 0.137301276,8.25951164 0.137301276,7.69566618 C0.137301276,7.13182071 0.574064388,6.67330902 1.11264052,6.67330902 C1.64974111,6.67330902 2.08797977,7.13182071 2.08797977,7.69566618 C2.08797977,7.78086261 2.02157997,7.85056878 1.94042466,7.85056878 C1.85779381,7.85056878 1.79139401,7.78086261 1.79139401,7.69566618 C1.79139401,7.30221357 1.48743049,6.98311422 1.11264052,6.98311422 C0.737850555,6.98311422 0.432411487,7.30221357 0.432411487,7.69566618 C0.432411487,8.08911878 0.737850555,8.40976716 1.11264052,8.40976716 C1.19379583,8.40976716 1.26019563,8.47947333 1.26019563,8.56466976 C1.26019563,8.64986619 1.19379583,8.71957236 1.11264052,8.71957236" id="Fill-22"></path>
                            <path d="M4.46804362,7.04972234 C2.38308998,7.04972234 0.686206268,8.82955321 0.686206268,11.019876 C0.686206268,13.2101987 2.38308998,14.9915786 4.46804362,14.9915786 C6.55447281,14.9915786 8.25283208,13.2101987 8.25283208,11.019876 C8.25283208,8.82955321 6.55447281,7.04972234 4.46804362,7.04972234 L4.46804362,7.04972234 Z" id="Fill-23"></path>
                            <path d="M4.46804362,15.611189 C2.05846875,15.611189 0.0959858466,13.5509844 0.0959858466,11.019876 C0.0959858466,8.48876749 2.05846875,6.42856291 4.46804362,6.42856291 C6.88056959,6.42856291 8.8430525,8.48876749 8.8430525,11.019876 C8.8430525,13.5509844 6.88056959,15.611189 4.46804362,15.611189 L4.46804362,15.611189 Z" id="Path"></path>
                            <path d="M8.6349998,11.3157399 L8.46236032,10.722463 L14.3970267,8.81561197 L14.9223228,7.04972234 L4.46804362,7.04972234 L4.46804362,6.42856291 L15.3236727,6.42856291 C15.4166324,6.42856291 15.5051655,6.47658272 15.5612364,6.55558304 C15.6173074,6.63458337 15.6335384,6.73836811 15.605503,6.83130967 L14.9149451,9.15639769 C14.8854341,9.25398633 14.8116565,9.32988861 14.7186968,9.3593201 L8.6349998,11.3157399" id="Fill-24"></path>
                            <path d="M0.138776827,5.04373367 C0.0620481723,5.02049828 0.0177816407,4.93530185 0.0399149065,4.8547525 C0.053194866,4.80673269 0.0871325402,4.77110509 0.12844797,4.75406581 L2.31098019,3.93927825 L1.35315534,1.6730531 C1.31774212,1.5956018 1.34872869,1.50266024 1.42250624,1.46548361 C1.46382167,1.44534627 1.51103931,1.4468953 1.54940364,1.46548361 L3.72436598,2.51755617 L4.48279913,0.190635216 C4.5108346,0.108536839 4.59494101,0.0667131366 4.67166967,0.0945956046 C4.71446065,0.111634891 4.74692277,0.147262489 4.76167828,0.190635216 L5.534867,2.51755617 L7.69507378,1.46548361 C7.76885133,1.42985601 7.85590884,1.46238556 7.89132207,1.53983686 C7.91050423,1.58320959 7.90902868,1.63277842 7.89132207,1.6730531 L6.88969108,3.83963589 L9.10717614,4.75096775 C9.19128255,4.78194827 9.22964687,4.86869373 9.20308695,4.94924308 C9.18685589,4.99571386 9.14996712,5.02979243 9.10717614,5.04373367 L6.6725169,5.78881517 L8.69885112,4.85475242 L6.62234816,4.15304372 C6.54561951,4.12361223 6.50577963,4.03531774 6.53233955,3.95476839 L7.22801451,2.41824651 L7.62572288,1.53983686 L7.463779,1.8944061 L5.53486703,2.88748948 C5.46108948,2.92311708 5.37255642,2.89058753 5.33714319,2.81313623 L4.67166961,0.602505553 L3.91323642,2.799195 C3.88520095,2.87974435 3.80109454,2.92156805 3.72436589,2.89368558 L1.78157271,1.8944061 L2.70771121,3.93927813 C2.74164889,4.01672943 2.71066231,4.10967099 2.63688476,4.14684762 L0.5387093,4.85475242 L2.57343607,5.78881517 L0.138776827,5.04373367 Z M6.51284893,6.79197103 L14.9795525,6.79197103 L14.9795525,8.82956234 L8.17667831,10.8671536 L6.51284893,8.82956234 L6.51284893,6.79197103 Z" id="Fill-25"></path>
                        </g>
                    </g>
                </g>
            </g>
        </g>
    </g>
</svg>