
<svg width="16px" height="24px" viewBox="0 0 16 24" version="1.1" xmlns="http://www.w3.org/2000/svg" xmlns:xlink="http://www.w3.org/1999/xlink">
    <g id="Page-1" stroke="none" stroke-width="1" fill="none" fill-rule="evenodd">
        <g id="06_contest_gameplay" transform="translate(-180.000000, -641.000000)" fill="#FFFFFF">
            <g id="Group-9" transform="translate(0.000000, 635.000000)">
                <g id="Group-26" transform="translate(180.000000, 6.000000)">
                    <path d="M5.5092,14.4424615 L5.06150769,13.0689231 L3.36212308,12.4449231 L2.35043077,13.4298462 C2.36889231,14.2864615 2.6532,15.0775385 3.12396923,15.7264615 L4.48273846,15.9046154 L5.5092,14.4424615 Z" id="Fill-1"></path>
                    <path d="M5.19452308,9.24341538 L5.50929231,8.53356923 C4.09606154,8.82803077 2.89975385,9.72341538 2.20006154,10.9409538 L2.97544615,10.8560308 C3.51913846,10.1046462 4.2936,9.53141538 5.19452308,9.24341538" id="Fill-3"></path>
                    <path d="M6.48673846,18.6120923 C3.6252,18.6120923 1.2972,16.2840923 1.2972,13.4225538 C1.2972,10.5610154 3.6252,8.23301538 6.48673846,8.23301538 C9.34827692,8.23301538 11.6762769,10.5610154 11.6762769,13.4225538 C11.6762769,16.2840923 9.34827692,18.6120923 6.48673846,18.6120923 M11.1288923,3.6924 L1.84458462,3.6924 C0.831046154,3.6924 0.000276923077,4.51947692 0.000276923077,5.5404 L0.000276923077,21.3047077 C0.000276923077,22.3293231 0.826430769,23.1527077 1.84458462,23.1527077 L11.1288923,23.1527077 C12.1424308,23.1527077 12.9741231,22.3247077 12.9741231,21.3047077 L12.9741231,5.5404 C12.9741231,4.51578462 12.1479692,3.6924 11.1288923,3.6924" id="Fill-5"></path>
                    <path d="M3.25283077,10.9151077 L3.48175385,12.2803385 L5.20606154,12.8960308 L6.40513846,12.0495692 L6.4116,10.2200308 L5.13313846,9.5868 C4.3836,9.84895385 3.73375385,10.3141846 3.25283077,10.9151077" id="Fill-7"></path>
                    <path d="M4.75689231,16.1651077 L5.49350769,17.4241846 C5.83504615,17.5118769 6.19412308,17.5589538 6.56427692,17.5589538 C6.96304615,17.5589538 7.34796923,17.5044923 7.71350769,17.4029538 L8.36704615,16.1235692 L7.29996923,14.7011077 L5.80458462,14.7011077 L4.75689231,16.1651077 Z" id="Fill-9"></path>
                    <path d="M9.50529231,12.3569538 L9.72129231,10.9326462 C9.23298462,10.3215692 8.57852308,9.84987692 7.82713846,9.5868 L6.56898462,10.2569538 L6.56252308,12.1640308 L7.7736,13.0464923 L9.50529231,12.3569538 Z" id="Fill-11"></path>
                    <path d="M2.19904615,13.4233846 L1.6332,12.8963077 C1.61012308,13.0901538 1.59812308,13.2876923 1.59812308,13.488 C1.59812308,14.8347692 2.12796923,16.0578462 2.98735385,16.9578462 L3.10273846,16.1667692 C2.53596923,15.4246154 2.19812308,14.496 2.19812308,13.488 C2.19812308,13.4667692 2.19904615,13.4446154 2.19904615,13.4233846" id="Fill-13"></path>
                    <path d="M10.0217538,16.0511077 L10.1777538,16.8071077 C11.0140615,15.9163385 11.5263692,14.7218769 11.5263692,13.4111077 C11.5263692,13.1858769 11.5106769,12.9634154 11.4811385,12.7455692 L10.9134462,13.2763385 C10.9143692,13.3206462 10.9152923,13.3658769 10.9152923,13.4111077 C10.9152923,14.4015692 10.5820615,15.3163385 10.0217538,16.0511077" id="Fill-15"></path>
                    <path d="M6.46153846,17.7592615 C5.99538462,17.7592615 5.54584615,17.6937231 5.124,17.5709538 L4.45661538,17.9300308 C5.07046154,18.1746462 5.74892308,18.3112615 6.46153846,18.3112615 C7.19353846,18.3112615 7.88953846,18.1672615 8.51815385,17.9097231 L7.83692308,17.5589538 C7.404,17.6891077 6.94246154,17.7592615 6.46153846,17.7592615" id="Fill-17"></path>
                    <path d="M7.46483077,8.53393846 L7.79344615,9.25947692 C8.68236923,9.54563077 9.45036923,10.1142462 9.99683077,10.8628615 L10.7740615,10.9404 C10.0642154,9.71824615 8.87067692,8.82193846 7.46483077,8.53393846" id="Fill-19"></path>
                    <path d="M9.59584615,12.4448308 L7.90846154,13.1177538 L7.46446154,14.4922154 L8.49553846,15.9045231 L9.91338462,15.6912923 C10.3536923,15.0460615 10.6149231,14.2697538 10.6232308,13.4325231 L9.59584615,12.4448308 Z" id="Fill-21"></path>
                    <path d="M13.8980308,0.923076923 L4.61372308,0.923076923 C3.60018462,0.923076923 2.76941538,1.75015385 2.76941538,2.77107692 L2.76941538,3.04615385 L11.1288,3.04615385 C12.5023385,3.04615385 13.6201846,4.16492308 13.6201846,5.54030769 L13.6201846,20.3833846 L13.8980308,20.3833846 C14.9115692,20.3833846 15.7432615,19.5563077 15.7432615,18.5353846 L15.7432615,2.77107692 C15.7432615,1.74738462 14.9171077,0.923076923 13.8980308,0.923076923" id="Fill-23"></path>
                </g>
            </g>
        </g>
    </g>
</svg>