<?xml version="1.0" encoding="UTF-8"?>
<svg width="110px" height="110px" viewBox="0 0 110 110" version="1.1" xmlns="http://www.w3.org/2000/svg" xmlns:xlink="http://www.w3.org/1999/xlink">
    <title>profile_matchesplayed</title>
    <g id="profile_matchesplayed" stroke="none" stroke-width="1" fill="none" fill-rule="evenodd">
        <path d="M78.5442473,77.6247498 L82.2881944,95.0768842 C82.8755764,97.8394854 81.2141955,100.562816 78.4928073,101.360082 L78.3098241,101.410359 L78.1119549,101.45636 L61.6303126,104.926117 C58.9919633,105.363793 56.4391464,103.818966 55.5994601,101.297871 L55.5813479,101.240801 L55.5730564,101.267843 C54.7822051,103.729654 52.3108764,105.295835 49.6818951,104.947897 L49.4982411,104.920504 L49.299295,104.882781 L33.0456884,101.455796 C30.1261985,100.835492 28.2536818,97.9855342 28.8727033,95.0741367 L32.4348009,78.469692 C32.612688,77.6404849 33.4269917,77.1129393 34.253599,77.2913859 C35.0802063,77.4698324 35.6060979,78.2866971 35.4282108,79.1159042 L31.8667,95.7176014 C31.612728,96.9120939 32.3515626,98.0930605 33.5435409,98.4178713 L33.6778203,98.4503953 L49.8957401,101.870241 L50.0295662,101.895704 C51.2308753,102.094989 52.3776929,101.360593 52.6884819,100.224255 L52.7195338,100.096368 L54.0833996,93.7390431 C54.4209006,92.1658653 56.6070201,92.1233294 57.0444703,93.6114645 L57.0767995,93.7390189 L58.4338995,100.065826 L58.4650011,100.199326 C58.7524277,101.307019 59.8354488,102.038112 60.9332872,101.925659 L61.065049,101.908086 L77.4488456,98.4578868 L77.5814601,98.4271319 C78.7981139,98.1145744 79.5492049,96.9197226 79.2941977,95.7203489 L75.5508374,78.270962 C75.3729503,77.4417549 75.898842,76.6248902 76.7254493,76.4464436 C77.5520566,76.2679971 78.3663602,76.7955427 78.5442473,77.6247498 Z M60.5284969,5 C63.0638224,5 65.2732303,6.55527738 66.1953016,8.8096716 L66.2063605,8.83946301 L71.0399443,8.83946301 C74.2664251,8.83946301 77.2337401,10.3928774 79.0904169,12.9529609 L79.1591337,13.050586 L94.4340461,28.3741439 C96.4093193,30.3556294 96.5269812,33.5130359 94.7240689,35.6586165 L94.5920223,35.8101219 L94.4340461,35.9758928 L85.773571,44.6636058 C84.3677005,46.0738979 82.3680158,46.5402271 80.5608158,46.0398215 L80.3410427,45.9739813 L79.7551852,70.4003576 C79.6865985,73.2556594 77.4075494,75.5467724 74.5832912,75.642974 L74.3983446,75.6461194 L36.7073431,75.6461194 C33.798272,75.6461194 31.4205802,73.3177311 31.3505022,70.4003481 L31.1400153,61.6354157 C31.1196522,60.7874709 31.7883846,60.0835164 32.6336708,60.0630893 C33.478957,60.0426621 34.1807045,60.7134977 34.2010676,61.5614424 L34.4115543,70.3263654 C34.440515,71.5320146 35.3890733,72.5029498 36.5746694,72.5707645 L36.7073431,72.574549 L74.3983446,72.574549 C75.6450893,72.574549 76.6641001,71.5766683 76.694133,70.3263819 L77.3469089,43.1388011 C77.3783673,41.8285816 78.9133111,41.174038 79.874053,42.0094962 L79.9597536,42.0895748 L80.3339117,42.4653834 L80.4447112,42.5718524 C81.3105196,43.359003 82.626663,43.3621057 83.4974681,42.5959696 L83.6084522,42.4916776 L92.2427156,33.8309114 L92.3488508,33.7197634 C93.1335336,32.851232 93.1366265,31.5309491 92.3728697,30.6573826 L92.2689016,30.5460463 L76.9023947,15.1304784 C76.8582484,15.0861911 76.8168647,15.0392571 76.7784673,14.9899462 L76.7231388,14.9142308 C75.4887465,13.1119583 73.4834155,11.9902848 71.2771143,11.9150711 L71.0399818,11.9110334 L65.0579661,11.9111805 C64.3517003,11.9111978 63.7430279,11.427819 63.5733651,10.7508639 L63.5480513,10.6294508 C63.3112865,9.21346942 62.1158509,8.14728059 60.682903,8.07543401 L60.5284969,8.07157041 L50.5771908,8.07157041 C49.0764479,8.07157041 47.8028571,9.16289866 47.5576365,10.6294508 C47.4408033,11.3281765 46.8648774,11.8503743 46.1712748,11.9062245 L46.0477222,11.9111805 L40.0146735,11.9102024 L39.7185102,11.9197598 C37.6826116,12.0215987 35.8314118,13.0123291 34.6064591,14.6060605 L34.5439024,14.6822551 L34.4765954,14.7542611 L18.7345576,30.5460721 C17.8736089,31.4097286 17.839171,32.7885281 18.6312438,33.693396 L18.7345576,33.8039645 L27.3950328,42.4916776 C28.2559815,43.355334 29.6304581,43.3898803 30.5320703,42.5957367 L30.6422376,42.4921526 L31.1426793,41.9896977 C32.0944252,41.034123 33.7238087,41.6877959 33.7562382,43.0382001 L33.9508213,51.1408805 C33.9711844,51.9888252 33.3024521,52.6927797 32.4571658,52.7132069 C31.6118796,52.733634 30.9101322,52.0627985 30.8897691,51.2148538 L30.76287,45.9455693 L30.679618,45.9744997 C28.8837967,46.5600106 26.8407145,46.16967 25.3745743,44.8034779 L25.229914,44.6636058 L16.5694389,35.9758928 C14.5244139,33.9244361 14.4779361,30.627336 16.4299969,28.5192676 L16.5694298,28.3741529 L32.2486766,12.6451387 L32.3553744,12.5108438 C34.0623383,10.4133854 36.5491804,9.08498875 39.3057971,8.86925988 L39.5919057,8.85092628 L39.9643526,8.83946301 L44.8983177,8.83946301 L44.9103861,8.8096716 C45.8081923,6.61460354 47.9264722,5.08234086 50.3777282,5.00321558 L50.5771908,5 L60.5284969,5 Z M52.1260278,66.0474618 C52.9715593,66.0474618 53.656998,66.7350563 53.656998,67.583247 C53.656998,68.3928837 53.0324557,69.0561919 52.2402859,69.1148198 L52.1260278,69.1190322 L41.4092366,69.1190322 C40.5637051,69.1190322 39.8782665,68.4314378 39.8782665,67.583247 C39.8782665,66.7736104 40.5028087,66.1103022 41.2949785,66.0516743 L41.4092366,66.0474618 L52.1260278,66.0474618 Z M59.3981362,66.0474618 C60.2436676,66.0474618 60.9291063,66.7350563 60.9291063,67.583247 C60.9291063,68.3928837 60.3045641,69.0561919 59.5123943,69.1148198 L59.3981362,69.1190322 L56.7189384,69.1190322 C55.8734069,69.1190322 55.1879682,68.4314378 55.1879682,67.583247 C55.1879682,66.7736104 55.8125105,66.1103022 56.6046803,66.0516743 L56.7189384,66.0474618 L59.3981362,66.0474618 Z M58.6147842,10.3752482 C61.1092845,10.3752482 63.2076947,12.2171319 63.2076947,14.5986575 C63.2076947,16.9801832 61.1092845,18.8220668 58.6147842,18.8220668 C57.7692527,18.8220668 57.083814,18.1344724 57.083814,17.2862816 C57.083814,16.476645 57.7083563,15.8133368 58.5005261,15.7547089 L58.6147842,15.7504964 C59.5024098,15.7504964 60.1457544,15.1857995 60.1457544,14.5986575 C60.1457544,14.0408727 59.5651359,13.5033444 58.7460461,13.4509861 L58.6147842,13.4468186 L52.4909035,13.4468186 C51.6032779,13.4468186 50.9599333,14.0115156 50.9599333,14.5986575 C50.9599333,15.1564424 51.5405518,15.6939706 52.3596417,15.746329 L52.4909035,15.7504964 C53.336435,15.7504964 54.0218737,16.4380909 54.0218737,17.2862816 C54.0218737,18.1344724 53.336435,18.8220668 52.4909035,18.8220668 C49.9964032,18.8220668 47.897993,16.9801832 47.897993,14.5986575 C47.897993,12.2725162 49.8999376,10.4612091 52.3175327,10.3782203 L52.4909035,10.3752482 L58.6147842,10.3752482 Z" id="Combined-Shape" fill="#FFC531" fill-rule="nonzero"></path>
    </g>
</svg>