<?xml version="1.0" encoding="UTF-8"?>
<svg width="110px" height="110px" viewBox="0 0 110 110" version="1.1" xmlns="http://www.w3.org/2000/svg" xmlns:xlink="http://www.w3.org/1999/xlink">
    <title>profile_highestrank</title>
    <g id="profile_highestrank" stroke="none" stroke-width="1" fill="none" fill-rule="evenodd">
        <g id="Group-Copy-2" transform="translate(17.000000, 28.000000)" fill="#FFC531" fill-rule="nonzero">
            <g id="Leaders-icon">
                <path d="M21.1751538,12.4862056 C22.2772811,12.4862056 23.1707317,13.372899 23.1707317,14.4768659 L23.1707317,52.9486446 C23.1707317,54.0480559 22.2766091,54.9393048 21.1751538,54.9393048 L1.99557787,54.9393048 C0.893450647,54.9393048 0,54.0526115 0,52.9486446 L0,14.4768659 C0,13.3774546 0.894122564,12.4862056 1.99557787,12.4862056 L21.1751538,12.4862056 Z M13.3471074,28.7365177 C12.415167,28.7365177 11.6619662,28.8456589 11.0874824,29.0639445 C10.5129985,29.2822302 10.0661845,29.5936035 9.74702681,29.998074 C9.42786913,30.4025444 9.21084516,30.8904697 9.0959484,31.4618644 C8.98105163,32.0332591 8.91722105,32.665636 8.90445475,33.3590139 L8.90445475,33.3590139 L12.2364443,33.3590139 L12.2364443,32.7812018 C12.2364443,32.3959919 12.265168,32.0846185 12.3226164,31.8470724 C12.3800648,31.6095263 12.4566615,31.4265543 12.5524088,31.298151 C12.6481561,31.1697477 12.7534765,31.0830768 12.8683733,31.0381356 C12.9832701,30.9931944 13.1045482,30.9707242 13.2322112,30.9707242 C13.51307,30.9707242 13.736477,31.0798654 13.902439,31.298151 C14.068401,31.5164366 14.1513808,31.9144809 14.1513808,32.4922958 C14.1513808,33.0059091 14.0779756,33.4200036 13.9311631,33.7345917 C13.7843505,34.0491798 13.5386028,34.3798134 13.1939125,34.7265023 L13.1939125,34.7265023 L10.8193913,37.1533128 C10.0406465,37.9622537 9.50766118,38.7936526 9.22041927,39.6475347 C8.93317736,40.5014167 8.78955856,41.4098565 8.78955856,42.3728814 L8.78955856,42.3728814 L17.7131627,42.3728814 L17.7131627,39.6764253 L13.0407176,39.6764253 C13.1045491,39.47098 13.2290188,39.2719578 13.4141302,39.0793529 C13.5992417,38.8867479 13.7683927,38.713406 13.9215884,38.559322 L13.9215884,38.559322 L16.0280185,36.4984592 C16.5386708,35.9848459 16.9471865,35.4134597 17.2535779,34.7842835 C17.5599693,34.1551073 17.7131627,33.3782789 17.7131627,32.453775 C17.7131627,31.9401618 17.6525236,31.4586566 17.5312437,31.009245 C17.4099638,30.5598334 17.1865568,30.1649991 16.8610159,29.8247304 C16.5354751,29.4844616 16.0918526,29.2180287 15.5301351,29.0254237 C14.9684175,28.8328188 14.2407489,28.7365177 13.3471074,28.7365177 Z" id="Combined-Shape"></path>
                <path d="M47.323942,1.1439738e-12 C48.4260692,1.1439738e-12 49.3195198,0.896443916 49.3195198,2.00409525 L49.3195198,52.9352096 C49.3195198,54.0420408 48.4253973,54.9393048 47.323942,54.9393048 L28.144366,54.9393048 C27.0422388,54.9393048 26.1487881,54.0428609 26.1487881,52.9352096 L26.1487881,2.00409525 C26.1487881,0.897264007 27.0429107,1.1439738e-12 28.144366,1.1439738e-12 L47.323942,1.1439738e-12 Z M40.7689982,18.1432974 L38.2029833,18.1432974 C38.0880865,18.5413477 37.9412762,18.8784013 37.7625479,19.1544684 C37.5838196,19.4305355 37.3540295,19.6488179 37.0731707,19.809322 C36.792312,19.9698262 36.4540099,20.0853874 36.0582544,20.1560092 C35.6624989,20.2266311 35.1901526,20.2619414 34.6412014,20.2619414 L34.6412014,20.2619414 L34.6412014,22.4961479 L37.2072163,22.4961479 L37.2072163,31.779661 L40.7689982,31.779661 L40.7689982,18.1432974 Z" id="Combined-Shape"></path>
                <path d="M73.4727301,19.977929 C74.5748573,19.977929 75.468308,20.877281 75.468308,21.9831749 L75.468308,52.9340589 C75.468308,54.0415257 74.5741854,54.9393048 73.4727301,54.9393048 L54.2931541,54.9393048 C53.1910269,54.9393048 52.2975763,54.0399529 52.2975763,52.9340589 L52.2975763,21.9831749 C52.2975763,20.8757082 53.1916988,19.977929 54.2931541,19.977929 L73.4727301,19.977929 Z M63.7482362,32.9738059 C62.3567088,32.9738059 61.3098873,33.3076495 60.6077404,33.9753467 C59.9055935,34.6302036 59.5353761,35.6702548 59.4970772,37.0955316 L59.4970772,37.0955316 L62.7141705,37.0955316 C62.7141705,36.376473 62.7875757,35.8821277 62.9343882,35.6124807 C63.0812008,35.3428338 63.3269485,35.2080123 63.6716388,35.2080123 C63.9780302,35.2080123 64.2046287,35.3075234 64.3514412,35.5065485 C64.4982538,35.7055737 64.5716589,36.0939879 64.5716589,36.6718028 C64.5716589,37.069853 64.5397437,37.3940665 64.4759121,37.644453 C64.4120806,37.8948395 64.3163347,38.0906516 64.1886716,38.2318952 C64.0610086,38.3731389 63.9014321,38.4694399 63.7099375,38.5208012 C63.5184429,38.5721626 63.2886528,38.5978428 63.0205604,38.5978428 L63.0205604,38.5978428 L62.5035275,38.5978428 L62.5035275,40.8320493 L63.4035477,40.8320493 C63.8503684,40.8320493 64.1790959,40.9476106 64.38974,41.1787365 C64.600384,41.4098625 64.7057045,41.8592673 64.7057045,42.5269646 C64.7057045,42.9506955 64.6929384,43.3005893 64.6674058,43.5766564 C64.6418732,43.8527235 64.5940002,44.0710059 64.5237855,44.23151 C64.4535708,44.3920142 64.3546334,44.5011553 64.2269704,44.5589368 C64.0993073,44.6167183 63.9333478,44.6456086 63.7290869,44.6456086 C63.3460977,44.6456086 63.0780092,44.4786868 62.9248135,44.1448382 C62.8482157,43.9650736 62.7875767,43.7467912 62.7428946,43.4899846 C62.6982125,43.233178 62.6758718,42.9121745 62.6758718,42.5269646 L62.6758718,42.5269646 L59.3438823,42.5269646 C59.3438823,43.3487458 59.4332451,44.0389032 59.6119734,44.5974576 C59.7907017,45.156012 60.0651732,45.6022069 60.4353961,45.9360555 C60.805619,46.2699041 61.2747738,46.5010266 61.8428744,46.6294299 C62.4109751,46.7578332 63.0780046,46.8220339 63.8439831,46.8220339 C65.3121084,46.8220339 66.4163774,46.4849803 67.1568232,45.8108629 C67.897269,45.1367455 68.2674864,44.0292835 68.2674864,42.4884438 C68.2674864,41.7437045 68.1079099,41.0984876 67.7887523,40.5527735 C67.4695946,40.0070594 66.9142686,39.6571656 66.1227575,39.5030817 L66.1227575,39.5030817 L66.1227575,39.4645609 C66.4802141,39.3875189 66.7802178,39.2526974 67.0227777,39.0600924 C67.2653375,38.8674875 67.4600208,38.6459951 67.6068333,38.3956086 C67.7536458,38.1452222 67.8589663,37.8755793 67.9227978,37.5866718 C67.9866294,37.2977643 68.0185446,37.0184913 68.0185446,36.7488444 C68.0185446,36.1453488 67.9515225,35.609273 67.8174763,35.1406009 C67.6834301,34.6719288 67.45364,34.2770946 67.1280992,33.9560863 C66.8025583,33.635078 66.3653189,33.3911154 65.8163677,33.2241911 C65.2674165,33.0572668 64.5780462,32.9738059 63.7482362,32.9738059 Z" id="Combined-Shape"></path>
            </g>
        </g>
    </g>
</svg>