<?xml version="1.0" encoding="UTF-8"?>
<svg width="110px" height="110px" viewBox="0 0 110 110" version="1.1" xmlns="http://www.w3.org/2000/svg" xmlns:xlink="http://www.w3.org/1999/xlink">
    <title>profile_cardsplayed</title>
    <g id="profile_cardsplayed" stroke="none" stroke-width="1" fill="none" fill-rule="evenodd">
        <g id="Group-26" transform="translate(20.000000, 5.000000)" fill="#FFC531" fill-rule="nonzero">
            <path d="M24.5946429,60.9038462 L22.5960165,54.771978 L15.009478,51.9862637 L10.4929945,56.3832418 C10.5754121,60.2074176 11.8446429,63.739011 13.9462912,66.635989 L20.0122253,67.4313187 L24.5946429,60.9038462 Z" id="Fill-1"></path>
            <path d="M23.1898352,37.6938187 L24.5950549,34.5248626 C18.285989,35.8394231 12.9453297,39.8366758 9.8217033,45.2721154 L13.2832418,44.8929945 C15.7104396,41.5385989 19.1678571,38.979533 23.1898352,37.6938187" id="Fill-3"></path>
            <path d="M28.9586538,79.5182692 C16.1839286,79.5182692 5.79107143,69.1254121 5.79107143,56.3506868 C5.79107143,43.5759615 16.1839286,33.1831044 28.9586538,33.1831044 C41.7333791,33.1831044 52.1262363,43.5759615 52.1262363,56.3506868 C52.1262363,69.1254121 41.7333791,79.5182692 28.9586538,79.5182692 M49.6825549,12.9125 L8.23475275,12.9125 C3.71002747,12.9125 0.00123626374,16.6048077 0.00123626374,21.1625 L0.00123626374,91.5388736 C0.00123626374,96.1130495 3.68942308,99.7888736 8.23475275,99.7888736 L49.6825549,99.7888736 C54.2072802,99.7888736 57.9201923,96.0924451 57.9201923,91.5388736 L57.9201923,21.1625 C57.9201923,16.5883242 54.2320055,12.9125 49.6825549,12.9125" id="Fill-5"></path>
            <path d="M14.5215659,45.1567308 L15.543544,51.251511 L23.2413462,54.0001374 L28.5943681,50.2212912 L28.6232143,42.0537088 L22.9157967,39.2267857 C19.5696429,40.3971154 16.668544,42.4740385 14.5215659,45.1567308" id="Fill-7"></path>
            <path d="M21.2361264,68.5942308 L24.5245879,74.2151099 C26.0493132,74.6065934 27.6523352,74.8167582 29.3048077,74.8167582 C31.0850275,74.8167582 32.8034341,74.5736264 34.4353022,74.1203297 L37.3528846,68.4087912 L32.5891484,62.0585165 L25.9133242,62.0585165 L21.2361264,68.5942308 Z" id="Fill-9"></path>
            <path d="M42.4343407,51.593544 L43.3986264,45.2350275 C41.2186813,42.5070055 38.296978,40.4012363 34.9425824,39.2267857 L29.3258242,42.218544 L29.296978,50.7322802 L34.7035714,54.6718407 L42.4343407,51.593544 Z" id="Fill-11"></path>
            <path d="M9.81717033,56.3543956 L7.29107143,54.0013736 C7.18804945,54.8667582 7.13447802,55.7486264 7.13447802,56.6428571 C7.13447802,62.6552198 9.49986264,68.1153846 13.3364011,72.1332418 L13.851511,68.6016484 C11.3212912,65.2884615 9.81304945,61.1428571 9.81304945,56.6428571 C9.81304945,56.5480769 9.81717033,56.4491758 9.81717033,56.3543956" id="Fill-13"></path>
            <path d="M44.7399725,68.0853022 L45.4364011,71.4603022 C49.1699176,67.4836538 51.4570055,62.1512363 51.4570055,56.2995879 C51.4570055,55.2940934 51.3869505,54.3009615 51.2550824,53.3284341 L48.7207418,55.6979396 C48.7248626,55.8957418 48.7289835,56.0976648 48.7289835,56.2995879 C48.7289835,60.7212912 47.2413462,64.8050824 44.7399725,68.0853022" id="Fill-15"></path>
            <path d="M28.8461538,75.710989 C26.7651099,75.710989 24.7582418,75.4184066 22.875,74.8703297 L19.8956044,76.4733516 C22.635989,77.5653846 25.6648352,78.1752747 28.8461538,78.1752747 C32.114011,78.1752747 35.2211538,77.5324176 38.0274725,76.3826923 L34.9862637,74.8167582 C33.0535714,75.3978022 30.9931319,75.710989 28.8461538,75.710989" id="Fill-17"></path>
            <path d="M33.3251374,34.526511 L34.7921703,37.765522 C38.7605769,39.0429945 42.1891484,41.581456 44.6287088,44.923489 L48.098489,45.2696429 C44.929533,39.8135989 39.6012363,35.8122253 33.3251374,34.526511" id="Fill-19"></path>
            <path d="M42.8385989,51.9858516 L35.3056319,54.9899725 L33.323489,61.1259615 L37.926511,67.4309066 L44.2561813,66.4789835 C46.2218407,63.598489 47.3880495,60.1328297 47.4251374,56.3951923 L42.8385989,51.9858516 Z" id="Fill-21"></path>
            <path d="M62.0447802,0.549450549 L20.596978,0.549450549 C16.0722527,0.549450549 12.3634615,4.24175824 12.3634615,8.79945055 L12.3634615,10.0274725 L49.6821429,10.0274725 C55.814011,10.0274725 60.8043956,15.021978 60.8043956,21.1620879 L60.8043956,87.4258242 L62.0447802,87.4258242 C66.5695055,87.4258242 70.2824176,83.7335165 70.2824176,79.1758242 L70.2824176,8.79945055 C70.2824176,4.2293956 66.5942308,0.549450549 62.0447802,0.549450549" id="Fill-23"></path>
        </g>
    </g>
</svg>