
<svg width="103px" height="18px" viewBox="0 0 103 18" version="1.1" xmlns="http://www.w3.org/2000/svg" xmlns:xlink="http://www.w3.org/1999/xlink">
    <g id="desktop" stroke="none" stroke-width="1" fill="none" fill-rule="evenodd">
        <g id="01_2_contest_info" transform="translate(-499.000000, -16.000000)" fill="#FEFEFE">
            <g id="Group-8" transform="translate(459.000000, 10.000000)">
                <g id="Group-231" transform="translate(39.394688, 5.893965)">
                    <g id="Group-2" transform="translate(0.000000, 0.081797)">
                        <path d="M7.32118195,17.6366454 C5.23987987,17.6366454 2.70895977,16.8798889 1.00594721,15.3897973 L2.33067026,13.7107383 C3.63143969,14.9639554 5.4528008,15.6499157 7.41539946,15.6499157 C9.49670153,15.6499157 11.081543,14.8221856 11.081543,12.7884358 C11.081543,10.9200547 9.33133294,10.4704366 7.27345217,10.0681935 C4.69568947,9.57155546 1.95220331,9.09869357 1.95220331,5.50352369 C1.95220331,2.4763204 4.48276854,0.867880218 7.41539946,0.867880218 C9.63900368,0.867880218 11.3178852,1.36434085 12.6899832,2.45272166 L11.5309836,4.22635299 C10.3246091,3.42222162 8.95304343,2.90198482 7.41539946,2.90198482 C5.21628114,2.90198482 4.00972921,3.87166221 4.00972921,5.50352369 C4.00972921,7.23031242 5.64159069,7.70317432 8.62177395,8.2945622 C10.7266748,8.72022662 13.2098651,9.35863453 13.2334638,12.8120346 C13.2334638,15.8156391 10.821602,17.6366454 7.32118195,17.6366454" id="Fill-217"></path>
                        <path d="M21.6992354,2.94912906 L17.7019999,2.94912906 L17.7019999,8.95669305 L21.7934529,8.95669305 C23.8987086,8.95669305 24.9155835,7.39562778 24.9155835,5.95308849 C24.9155835,3.94276006 23.5438404,2.94912906 21.6992354,2.94912906 M21.9829526,10.8722717 L17.7019999,10.8722717 L17.7019999,17.4948223 L15.6205203,17.4948223 L15.6205203,1.03355044 L21.6516831,1.03355044 C24.3719254,1.03355044 27.0916354,2.47626717 27.0916354,6.02370727 C27.0916354,8.3181077 25.2230768,10.8722717 21.9829526,10.8722717" id="Fill-219"></path>
                        <path d="M30.5903343,7.04084828 L30.5903343,11.4163734 C30.5903343,13.5920704 31.8439063,15.6973261 34.3982477,15.6973261 C36.7157145,15.6973261 38.1586087,13.8525436 38.1586087,11.4163734 L38.1586087,7.04084828 C38.1586087,4.74680272 36.7396682,2.8780667 34.3982477,2.8780667 C31.8439063,2.8780667 30.5903343,4.93594747 30.5903343,7.04084828 M40.2400882,6.99365081 L40.2400882,11.5347219 C40.2400882,15.2716616 37.9456878,17.6366808 34.3742941,17.6366808 C30.448387,17.6366808 28.5324535,14.8220436 28.5324535,11.5347219 L28.5324535,6.99365081 C28.5324535,3.77677045 30.448387,0.915468046 34.3742941,0.915468046 C37.9930627,0.915468046 40.2400882,3.49340818 40.2400882,6.99365081" id="Fill-221"></path>
                        <path d="M49.5562128,2.8545212 L45.2988588,2.8545212 L45.2988588,8.43624333 L49.4616404,8.43624333 C51.2594028,8.43624333 52.6071922,7.39559229 52.6071922,5.52721115 C52.6071922,3.6822513 51.3536203,2.8545212 49.5562128,2.8545212 Z M52.1577516,17.4947868 L49.0121998,10.2576044 L45.2988588,10.2576044 L45.2988588,17.4947868 L43.2173793,17.4947868 L43.2173793,1.03351496 L49.9345023,1.03351496 C52.6071922,1.03351496 54.6884943,2.8545212 54.6884943,5.52721115 C54.6884943,7.77441411 53.245955,9.40627559 51.1406993,10.0445061 L54.4757508,17.4947868 L52.1577516,17.4947868 Z" id="Fill-223"></path>
                        <polygon id="Fill-225" points="62.3496555 2.8545212 62.3496555 17.4947868 60.2683534 17.4947868 60.2683534 2.8545212 55.585335 2.8545212 55.585335 1.03351496 67.0328513 1.03351496 67.0328513 2.8545212"></polygon>
                        <polygon id="Fill-227" points="68.8520832 17.4947336 70.9332078 17.4947336 70.9332078 1.03363916 68.8520832 1.03363916"></polygon>
                        <polygon id="Fill-229" points="86.8265486 17.4947336 86.8265486 5.76367758 86.7553975 5.81105249 85.4780493 8.90922943 82.6401682 15.0587407 80.8189846 15.0587407 77.9333737 8.72026211 76.7037553 5.76367758 76.6326042 5.81105249 76.6326042 17.4947336 74.5511247 17.4947336 74.5511247 1.03363916 76.6326042 1.03363916 80.1094256 8.72026211 81.741287 12.5519516 81.8124381 12.5519516 83.4442996 8.74386084 86.873746 1.03363916 88.9078506 1.03363916 88.9078506 17.4947336"></polygon>
                        <path d="M93.6825492,7.04084828 L93.6825492,11.4163734 C93.6825492,13.5920704 94.9361212,15.6973261 97.4904626,15.6973261 C99.8079295,15.6973261 101.251001,13.8525436 101.251001,11.4163734 L101.251001,7.04084828 C101.251001,4.74680272 99.8318831,2.8780667 97.4904626,2.8780667 C94.9361212,2.8780667 93.6825492,4.93594747 93.6825492,7.04084828 M103.332303,6.99365081 L103.332303,11.5347219 C103.332303,15.2716616 101.03808,17.6366808 97.466509,17.6366808 C93.5407794,17.6366808 91.6246684,14.8220436 91.6246684,11.5347219 L91.6246684,6.99365081 C91.6246684,3.77677045 93.5407794,0.915468046 97.466509,0.915468046 C101.085278,0.915468046 103.332303,3.49340818 103.332303,6.99365081" id="Fill-230"></path>
                    </g>
                </g>
            </g>
        </g>
    </g>
</svg>