
<svg width="30px" height="30px" viewBox="0 0 30 30" version="1.1" xmlns="http://www.w3.org/2000/svg" xmlns:xlink="http://www.w3.org/1999/xlink">
    <defs>
        <polygon id="path-1" points="0 0 28.4572965 0 28.4572965 28.4573416 0 28.4573416"></polygon>
    </defs>
    <g id="desktop" stroke="none" stroke-width="1" fill="none" fill-rule="evenodd">
        <g id="01_2_contest_info" transform="translate(-459.000000, -10.000000)">
            <g id="Group-8" transform="translate(459.000000, 10.000000)">
                <g id="Group-3" transform="translate(0.600000, 0.706612)">
                    <mask id="mask-2" fill="white">
                        <use xlink:href="#path-1"></use>
                    </mask>
                    <g id="Clip-2"></g>
                    <path d="M25.6848758,17.1591487 C25.6665512,17.2261386 25.6489776,17.2935791 25.6296016,17.3601184 L25.2339706,17.1397727 C25.2955533,16.7950601 25.364646,16.2735602 25.3687014,15.6548799 C25.3717055,15.1279727 25.3269454,14.6010656 25.2344212,14.0888782 C25.2033295,13.9171978 25.1660795,13.748221 25.1244737,13.5816474 C24.9407771,12.9808411 24.6914425,12.4184864 24.3779718,11.9056982 C24.4611835,11.7141912 24.5726331,11.4179937 24.6644062,11.0376833 C24.7672943,10.6093084 24.8680796,9.96284078 24.8180624,9.18119175 C24.9164445,9.37390038 25.0091189,9.56961304 25.0968366,9.76757872 C25.1094535,9.60596182 25.1174142,9.43728545 25.1171138,9.26004758 C25.480902,10.0999748 25.7481106,10.9827095 25.9124312,11.8902275 C26.0312406,12.5451063 26.0934241,13.2094479 26.1015349,13.8740899 C26.1724301,15.0001512 26.0857638,16.1349241 25.8395834,17.2330479 L25.6848758,17.1591487 Z M21.9786518,23.6697864 C22.0038856,23.5524789 22.0256649,23.4218036 22.0420368,23.2807643 C21.7766306,23.521988 21.5011609,23.7531483 21.2132245,23.971241 C21.3332356,23.5472219 21.4235067,22.9524236 21.3306822,22.2249974 C21.6118595,22.039198 22.0309219,21.7375933 22.5025549,21.3177798 C23.1403108,20.7494171 24.0343106,19.8139616 24.7085655,18.5635335 L24.8324818,18.632476 C24.9349193,18.446226 25.0337519,18.2533672 25.1262761,18.0523975 L25.5597578,18.2590749 C24.885503,20.3643002 23.6503954,22.2289026 21.9786518,23.6697864 Z M20.9607357,21.1839502 C20.7795926,21.3090681 20.6433597,21.3930308 20.5813265,21.4301306 C20.4806914,21.4295298 20.3803568,21.4278776 20.2818245,21.4250238 C18.7826625,21.3814653 17.8384954,21.090675 17.3103867,20.8545582 C16.9755873,20.7042064 16.7582456,20.5589615 16.6298233,20.457275 C16.618408,20.3329081 16.5937749,20.1663345 16.5529201,19.9384787 C16.466404,19.4644425 16.3073405,18.730107 16.0930029,17.8153794 C15.9331884,17.1306104 15.7425826,16.3429533 15.5262923,15.4735866 L18.061695,12.7885831 L19.2568489,11.3514544 L19.2718691,11.3508536 C20.1852449,11.3197619 22.0746306,11.8782113 23.4276464,12.3698211 C23.7899326,12.9420891 24.0571412,13.5717341 24.2229638,14.242234 C24.3311089,14.6823246 24.399751,15.1411905 24.4261865,15.6063648 C24.474251,16.4456912 24.3737662,17.0732334 24.3498841,17.2061618 C23.7475758,18.6845959 22.7548935,19.7815181 22.3559581,20.1849595 C21.8255964,20.7223808 21.3230219,21.0806115 21.1878405,21.1735863 C21.111538,21.1779422 21.0359867,21.180796 20.9607357,21.1839502 Z M11.7957356,22.9246363 C11.5301792,22.833464 11.2404404,22.6928753 10.9343296,22.5112816 C10.6795877,22.3899187 10.4084738,22.2280014 10.1241423,22.0237273 C9.47121598,21.5531457 8.45119705,20.6439755 7.29028904,18.9803428 C7.60481115,17.5743059 8.86890765,15.3369031 9.29758296,14.603619 C10.3563539,14.7822087 13.3530256,15.3417096 14.5086766,15.7196167 C14.5152855,15.745902 14.5220445,15.7730885 14.5286534,15.7996742 C14.6147189,15.8189 14.6947763,15.8381258 14.7674739,15.856901 C15.2491704,17.3704823 15.8318023,19.2942641 16.0605593,20.2183043 C16.091651,20.3452246 16.1162841,20.4529191 16.1331067,20.5386842 C15.1148902,21.7045489 12.4034512,22.7096979 11.7957356,22.9246363 Z M7.92173648,9.05772605 C8.89594393,7.61549048 10.4601432,5.91415718 11.5940149,5.41969358 C11.942783,5.39220669 12.3091246,5.3836452 12.6837274,5.39445971 C14.1331726,5.43651616 15.5698507,5.76065117 16.6239654,6.28275186 C16.6319261,6.28725791 16.6540058,6.30423069 16.6610652,6.31129016 C17.5771447,7.46619011 18.2601112,10.0127077 18.4639348,10.8371642 L17.2774925,12.0929996 L14.9972823,14.834629 C13.6762594,14.5010313 10.5495131,14.1246262 9.48353251,14.0166312 C9.0164056,13.2695286 8.44143395,11.7916952 7.77408833,9.623235 C7.83882521,9.51313725 7.90746733,9.40108687 7.97791187,9.28828548 C7.95913668,9.21168267 7.94051168,9.13628148 7.92173648,9.05772605 Z M10.5712924,3.01812051 C11.0007187,2.88954796 11.4405089,2.78425665 11.8802991,2.70480002 C12.2732265,2.63345427 12.6729129,2.58133432 13.0680932,2.54949158 C13.4919621,2.51539582 13.9228904,2.50443111 14.3497633,2.51689784 C16.4154856,2.57667807 18.4296888,3.17177673 20.1947076,4.24091158 C20.118255,4.24211319 20.0401502,4.24556783 19.9603931,4.2521767 C19.4569174,4.29258092 18.8651232,4.44518573 18.2009318,4.70578547 C17.667566,4.91591748 17.2083998,5.14918053 16.9620692,5.28105752 C16.8862174,5.24485894 16.8111166,5.21076318 16.736166,5.17696783 C16.6693263,5.21662104 16.6083445,5.25357063 16.5583273,5.28451216 C14.9535737,4.63669274 13.5553472,4.51608087 12.6622486,4.52959901 C12.6030691,4.53050022 12.5438897,4.53200224 12.4851609,4.53380466 C12.1852083,4.54416857 11.8917144,4.56985304 11.6129403,4.60965646 C11.5109534,4.62467661 11.410769,4.64104859 11.3150906,4.65952338 C10.9394364,4.13516966 10.5106109,3.72196512 10.0377763,3.42862143 C10.2829053,3.33804988 10.5319395,3.25619002 10.7830766,3.18169003 C10.7135333,3.12461343 10.6432389,3.06933925 10.5712924,3.01812051 Z M22.8921778,7.19793009 C23.3810839,7.81841282 23.6239599,8.34126452 23.6621111,8.42657901 C23.6630123,8.43048425 23.6640637,8.43544091 23.6649649,8.43949635 C23.7770153,8.66509912 23.8373963,8.82070796 23.8537683,8.86441662 C23.8570727,8.88409303 23.8608278,8.91142971 23.8650334,8.93966761 C23.9990132,9.92949603 23.846859,10.7261652 23.6959064,11.2201782 C23.6442371,11.387653 23.5832553,11.5506217 23.5141625,11.7059301 C22.4744672,11.2611832 20.6484666,10.5489273 19.4510596,10.4667671 C19.4385928,10.4165998 19.4244739,10.3613256 19.4100545,10.3045494 C19.3966866,10.3043992 19.3824175,10.3031976 19.3691997,10.3031976 C19.0784095,9.38741852 18.3473784,7.2848968 17.4002072,6.0012741 C17.9296678,5.69546368 18.8561111,5.21707165 19.6400132,5.10396986 C19.8403821,5.07528136 20.0203236,5.07302833 20.1664697,5.09781159 C20.1814899,5.10036502 20.2463769,5.12109284 20.2825755,5.13746481 C21.5529805,5.71408868 22.402821,6.57609555 22.8921778,7.19793009 Z M14.2287008,-3.0040316e-05 C6.37030436,-3.0040316e-05 -4.50604741e-05,6.37046958 -4.50604741e-05,14.2285657 C-4.50604741e-05,22.0869621 6.37030436,28.4574618 14.2287008,28.4574618 C22.0869471,28.4574618 28.4572965,22.0869621 28.4572965,14.2285657 C28.4572965,6.37046958 22.0869471,-3.0040316e-05 14.2287008,-3.0040316e-05 Z" id="Fill-1" fill="#FEFEFE" mask="url(#mask-2)"></path>
                </g>
            </g>
        </g>
    </g>
</svg>