<?xml version="1.0" encoding="UTF-8"?>
<svg width="77px" height="70px" viewBox="0 0 77 70" version="1.1" xmlns="http://www.w3.org/2000/svg" xmlns:xlink="http://www.w3.org/1999/xlink">
    <title>Shape</title>
    <g id="Page-1" stroke="none" stroke-width="1" fill="none" fill-rule="evenodd">
        <g id="nowinners" transform="translate(-149.000000, -262.000000)" fill="#FFC531">
            <path d="M218.183047,288.741777 C223.168672,282.696811 223.102414,274.656665 222.86128,271.590691 L212.002067,271.590691 C211.103785,278.880956 209.027528,288.837403 204.242848,295.98504 C210.340192,294.999066 215.020053,292.577081 218.183047,288.741777 Z M156.816953,288.741777 C159.979947,292.577081 164.659808,294.999066 170.757152,295.98504 C165.971929,288.837403 163.896215,278.880956 162.997933,271.590691 L152.138177,271.590691 C151.897586,274.656665 151.830785,282.696811 156.816953,288.741777 Z M225.505073,268.570639 L225.717967,269.829985 C225.801061,270.321621 227.672028,281.975564 220.547689,290.636468 C216.354984,295.732738 209.974688,298.653382 201.572443,299.346536 C198.686429,302.379014 195.053113,304.469819 190.473724,304.922016 L190.473724,323.213756 L199.490211,324.016041 C199.490211,324.016041 204.728376,324.789153 205.750484,332 L169.248973,332 C170.271624,324.789153 175.509789,324.016041 175.509789,324.016041 L184.526276,323.213756 L184.526276,304.922016 C179.946887,304.469819 176.313571,302.379014 173.427557,299.346536 C165.025312,298.653382 158.645016,295.732738 154.452311,290.636468 C147.327972,281.975564 149.198939,270.321621 149.282033,269.829985 L149.494927,268.570639 L162.673162,268.570639 C162.310916,264.622961 162.30983,262 162.30983,262 L212.689627,262 C212.689627,262 212.689084,264.622961 212.326838,268.570639 L225.505073,268.570639 Z M187.365743,287.287772 L194.224883,290.875 L192.914904,283.277129 L198.464065,277.896286 L190.795313,276.787772 L187.365743,269.875 L183.936173,276.787772 L176.267422,277.896286 L181.816583,283.277129 L180.506603,290.875 L187.365743,287.287772 Z M187.702147,296.125 C195.960517,296.125 202.655249,289.465236 202.655249,281.25 C202.655249,273.034764 195.960517,266.375 187.702147,266.375 C179.443777,266.375 172.749045,273.034764 172.749045,281.25 C172.749045,289.465236 179.443777,296.125 187.702147,296.125 Z M187.702147,294.375 C180.41535,294.375 174.508233,288.498737 174.508233,281.25 C174.508233,274.001263 180.41535,268.125 187.702147,268.125 C194.988944,268.125 200.896061,274.001263 200.896061,281.25 C200.896061,288.498737 194.988944,294.375 187.702147,294.375 Z" id="Shape"></path>
        </g>
    </g>
</svg>